<svg width="97" height="108" viewBox="0 0 97 108" fill="none" xmlns="http://www.w3.org/2000/svg">
<path fill-rule="evenodd" clip-rule="evenodd" d="M36.7997 48.2553C35.6574 49.3529 35.2234 51.0609 36.312 52.3793C37.3374 53.6202 39.3217 53.8838 40.6023 52.8941C43.6944 50.506 40.4713 46.0998 37.135 47.0121C36.5177 47.181 36.6719 48.0619 37.2819 48.0969C38.2577 48.1525 39.3017 48.1898 40.081 48.874C40.918 49.6087 40.9367 50.8515 40.2498 51.6969C38.431 53.9343 35.2721 50.6394 37.1827 48.6386C37.4234 48.3864 37.0513 48.0136 36.7997 48.2553Z" fill="#0253B3"/>
<path fill-rule="evenodd" clip-rule="evenodd" d="M8.99552 65.955C8.60702 63.9315 8.10116 61.8316 7.36557 59.9069C7.0949 59.1994 6.1091 59.5659 6.27241 60.2802C6.72369 62.2499 7.45155 64.2452 8.23991 66.1039C8.39822 66.4767 9.08286 66.4135 8.99552 65.955Z" fill="#0253B3"/>
<path fill-rule="evenodd" clip-rule="evenodd" d="M14.8411 48.0423L14.7369 47.9494C14.2766 47.542 13.5219 47.4619 13.0747 47.9494C12.6221 48.4425 12.6384 49.1198 13.0747 49.6129L13.1675 49.7176C13.5787 50.1828 14.4267 50.1691 14.8411 49.7176C15.2533 49.2682 15.3365 48.4807 14.8411 48.0423Z" fill="#0253B3"/>
<path fill-rule="evenodd" clip-rule="evenodd" d="M64.3473 100.196C64.3473 100.196 44.8252 104.74 36.9839 96.8929L39.7902 78.1497C40.6427 72.7621 40.1342 62.3956 44.2575 58.7183C45.0554 58.0068 45.8233 57.6522 45.8233 57.6522C48.7156 56.2546 53.8611 55.5003 58.8015 55.4812C64.8027 55.4575 70.9799 59.9993 72.5557 65.7939L66.06 80.999L64.3473 100.196Z" fill="#0253B3"/>
<path fill-rule="evenodd" clip-rule="evenodd" d="M62.4171 68.1298C62.4171 68.1298 71.1623 84.9856 66.8197 85.8833C52.5355 88.8364 44.2438 91.2586 44.2438 91.2586L43.5155 96.8097C43.7289 97.6487 72.4161 96.9231 75.8134 93.0659C78.213 90.3432 81.4024 84.0497 74.6174 70.4278L72.5557 65.7941L62.4171 68.1298Z" fill="#F5C8BA"/>
<path fill-rule="evenodd" clip-rule="evenodd" d="M45.9948 59.4468L24.2136 67.8859L23.5317 56.451L18.8684 54.646C18.8684 54.646 12.1066 72.9995 20.5625 76.4169C29.0193 79.8343 38.5484 73.5198 38.5484 73.5198L45.9948 59.4468Z" fill="#F5C8BA"/>
<path fill-rule="evenodd" clip-rule="evenodd" d="M48.6892 56.6449C41.0867 59.0685 36.5526 61.9092 25.8499 66.3759L31.3456 78.6402L40.8187 75.5965L48.6892 56.6449Z" fill="#0253B3"/>
<path fill-rule="evenodd" clip-rule="evenodd" d="M61.1069 65.7939L66.6318 78.64L79.0919 76.3634L70.6974 61.8962L60.7589 65.7939" fill="#0253B3"/>
<path fill-rule="evenodd" clip-rule="evenodd" d="M66.474 59.6529C57.5086 60.4632 63.6408 73.6917 65.9381 77.6972C66.0669 77.9203 66.4103 77.7195 66.2834 77.4951C63.9997 73.449 57.8875 61.1387 66.504 59.8714C66.6269 59.8536 66.5991 59.6419 66.474 59.6529Z" fill="#302E58"/>
<path fill-rule="evenodd" clip-rule="evenodd" d="M41.6253 67.2156C40.5213 71.6213 39.7807 76.2027 39.5073 80.739C39.4959 80.9261 39.8125 80.9744 39.8393 80.7841C40.4812 76.2737 41.1263 71.776 41.8487 67.2775C41.8719 67.1336 41.6622 67.0681 41.6253 67.2156Z" fill="#302E58"/>
<path fill-rule="evenodd" clip-rule="evenodd" d="M62.6105 42.7796C62.7479 40.8854 62.8852 38.9912 63.0217 37.0965C64.5102 36.6772 65.2835 34.7721 64.6894 33.3441C64.0962 31.916 62.4094 31.1139 60.8791 31.3324C61.8449 30.6746 61.7703 29.1036 60.9778 28.2441C60.1853 27.3851 58.9434 27.107 57.7757 27.0619C56.6084 27.0168 55.4265 27.1584 54.2778 26.9449C53.2598 26.756 52.263 26.2898 51.2359 26.4196C50.2087 26.5489 49.2274 27.7051 49.781 28.5805C48.2998 28.3629 46.6976 28.1645 45.3816 28.8796C44.0655 29.5943 43.405 31.6283 44.5359 32.6102C43.7885 32.9912 43.602 34.0733 44.0223 34.7999C44.4422 35.526 45.302 35.9074 46.1386 35.9675C46.9751 36.0276 47.8045 35.8159 48.616 35.6056" fill="#282544"/>
<path fill-rule="evenodd" clip-rule="evenodd" d="M62.369 39.0961L62.0701 43.0338C62.0701 43.0338 65.416 43.4849 64.462 46.5386C63.509 49.5923 61.2199 48.2566 61.2199 48.2566C61.2199 48.2566 60.648 56.0815 52.637 53.6005C46.2619 51.6258 46.6518 43.3647 47.4611 36.3214C47.7749 33.5932 50.3538 31.7168 53.0478 32.2421L57.8635 33.1808C60.6471 33.7234 62.5837 36.2659 62.369 39.0961Z" fill="#F5C8BA"/>
<path fill-rule="evenodd" clip-rule="evenodd" d="M62.0701 46.3018L59.9115 57.82C59.4257 60.4152 56.8686 62.075 54.3024 61.4627C51.9242 60.8941 50.4007 58.5697 50.8283 56.1606L51.9997 49.5594L62.0701 46.3018Z" fill="#F5C8BA"/>
<path fill-rule="evenodd" clip-rule="evenodd" d="M53.2098 46.4312C53.2221 46.4266 53.2462 46.5932 53.0105 46.708C52.7644 46.8172 52.3723 46.5787 52.2713 46.1885C52.1403 45.813 52.1598 45.3573 52.1808 44.8902C52.2062 44.4077 52.234 43.8933 52.2622 43.3534C52.3987 41.1733 52.5938 39.4125 52.698 39.4188C52.8026 39.4252 52.7762 41.197 52.6398 43.3771C52.6006 43.916 52.5638 44.43 52.5288 44.9121C52.4869 45.3842 52.4487 45.7961 52.5274 46.1125C52.5852 46.433 52.819 46.5901 52.9714 46.5655C53.1265 46.5395 53.1829 46.4112 53.2098 46.4312Z" fill="#282544"/>
<path fill-rule="evenodd" clip-rule="evenodd" d="M50.6108 52.7968C50.6462 52.749 51.0225 53.0103 51.6839 53.3044C52.3408 53.6003 53.307 53.9026 54.402 53.9253C55.497 53.949 56.4755 53.6877 57.1438 53.4196C57.817 53.1537 58.2046 52.9083 58.2378 52.9575C58.2647 52.993 57.9271 53.3217 57.2534 53.664C56.5865 54.0068 55.5584 54.3291 54.3943 54.3041C53.2297 54.28 52.2161 53.9144 51.5647 53.5438C50.906 53.1737 50.5821 52.831 50.6108 52.7968Z" fill="#282544"/>
<path fill-rule="evenodd" clip-rule="evenodd" d="M52.1762 48.0471C52.2199 48.0089 52.3964 48.1796 52.733 48.3289C53.0619 48.4796 53.5814 48.5911 54.095 48.4277C54.6082 48.2606 54.9657 47.8673 55.1449 47.5527C55.3315 47.2354 55.3756 46.9937 55.4343 46.9996C55.4784 46.9987 55.5344 47.2659 55.387 47.667C55.2482 48.0585 54.8565 48.577 54.211 48.7882C53.5637 48.9926 52.9436 48.8 52.6029 48.5629C52.2494 48.3225 52.1389 48.0726 52.1762 48.0471Z" fill="#282544"/>
<path fill-rule="evenodd" clip-rule="evenodd" d="M62.3221 46.9204C62.3175 46.8635 62.5163 46.8344 62.7388 46.6983C62.8484 46.6277 62.9453 46.5271 62.9799 46.3869C63.0158 46.2435 62.9754 46.1106 62.8639 46.075C62.772 46.0395 62.6847 46.0691 62.6642 46.1033L62.343 45.9357C62.6446 45.3121 62.9144 44.8824 62.9926 44.9174C63.0713 44.952 62.934 45.4405 62.6747 46.0828L62.3535 45.9157C62.4881 45.6858 62.7847 45.6339 62.9986 45.7209C63.1546 45.7728 63.2929 45.9294 63.3297 46.0778C63.3748 46.2289 63.3557 46.3755 63.3111 46.4957C63.2228 46.7429 63.014 46.8872 62.8534 46.9404C62.5173 47.0465 62.3207 46.9632 62.3221 46.9204Z" fill="#282544"/>
<path fill-rule="evenodd" clip-rule="evenodd" d="M56.1543 39.1599C56.1138 39.0661 56.5314 38.8458 57.0596 38.986C57.5887 39.1235 57.8443 39.5204 57.7634 39.5828C57.6856 39.6575 57.3785 39.4558 56.9636 39.3525C56.5515 39.2387 56.1853 39.2632 56.1543 39.1599Z" fill="#282544"/>
<path fill-rule="evenodd" clip-rule="evenodd" d="M49.2283 38.0613C49.1806 37.9716 49.5964 37.698 50.1777 37.7508C50.7591 37.8 51.1212 38.1419 51.0585 38.2216C51.0007 38.3126 50.6217 38.1647 50.145 38.1282C49.6687 38.0813 49.2697 38.161 49.2283 38.0613Z" fill="#282544"/>
<path fill-rule="evenodd" clip-rule="evenodd" d="M62.0701 43.0338C59.8346 40.8523 59.1773 37.2178 58.5704 34.1527C56.4997 35.6618 53.6515 36.0328 51.2641 35.1051C50.5144 35.986 49.6341 36.7557 48.6611 37.3803C48.3845 37.5579 48.056 37.7304 47.7417 37.6352C47.3659 37.5223 47.199 37.0917 47.1098 36.7098C46.8241 35.4875 46.8137 34.1787 47.2399 32.9978C47.6657 31.8174 48.5587 30.7804 49.7292 30.327C50.9798 29.8426 52.3868 30.053 53.6851 30.3898C55.6408 30.8974 57.5259 31.6768 59.2687 32.6987C60.9801 33.7021 62.6237 35.0286 63.3493 36.8755C64.0753 38.7219 64.0721 42.3104 62.3221 43.2441" fill="#282544"/>
<path fill-rule="evenodd" clip-rule="evenodd" d="M56.7581 42.366C56.6539 42.3587 56.5889 42.082 56.6125 41.7483C56.6362 41.4141 56.7404 41.1497 56.8445 41.1574C56.9487 41.1647 57.0138 41.4415 56.9901 41.7751C56.9664 42.1088 56.8623 42.3738 56.7581 42.366Z" fill="#282544"/>
<path fill-rule="evenodd" clip-rule="evenodd" d="M50.3255 41.5447C50.2218 41.5369 50.1563 41.2606 50.1804 40.9265C50.204 40.5928 50.3077 40.3283 50.4124 40.3356C50.5161 40.3429 50.5816 40.6197 50.5575 40.9538C50.5338 41.2875 50.4301 41.552 50.3255 41.5447Z" fill="#282544"/>
<path fill-rule="evenodd" clip-rule="evenodd" d="M18.6318 55.0274C18.6318 55.0274 19.5994 49.0821 20.7554 49.1463C21.9113 49.2105 24.2227 49.1459 24.2227 49.1459C24.2227 49.1459 24.4156 43.491 25.0579 44.391C25.6998 45.2905 25.9022 52.8983 23.4248 56.5488L18.6318 55.0274Z" fill="#F5C8BA"/>
<path fill-rule="evenodd" clip-rule="evenodd" d="M44.2439 91.2585C44.2439 91.2585 33.8796 93.0735 34.082 94.4192C34.2845 95.7644 35.0128 97.1219 35.0128 97.1219L44.2439 96.9043V91.2585Z" fill="#F5C8BA"/>
<path fill-rule="evenodd" clip-rule="evenodd" d="M55.4929 97.4478L55.4146 96.012L34.0674 94.7055L26.9085 75.5417L3.47778 76.831L11.4715 97.5543L55.4929 97.4478Z" fill="#18A4E0"/>
<path fill-rule="evenodd" clip-rule="evenodd" d="M18.1287 88.2944C16.8463 88.2944 15.7732 87.291 15.7022 85.9941C15.6285 84.6521 16.6557 83.504 17.9972 83.4298C18.0427 83.4275 18.0878 83.4261 18.1328 83.4261C19.4148 83.4261 20.4879 84.4299 20.5593 85.7264C20.633 87.0693 19.6054 88.217 18.2643 88.2907C18.2188 88.2935 18.1733 88.2944 18.1287 88.2944ZM18.1328 84.1223C18.1005 84.1223 18.0677 84.1232 18.0354 84.125C17.0774 84.1778 16.3436 84.9977 16.3959 85.956C16.4469 86.8819 17.2134 87.5989 18.1287 87.5989C18.161 87.5989 18.1933 87.598 18.226 87.5962C19.1836 87.5433 19.9174 86.7239 19.8646 85.7648C19.8141 84.8393 19.0481 84.1223 18.1328 84.1223Z" fill="#7081AF"/>
<path fill-rule="evenodd" clip-rule="evenodd" d="M18.1287 87.5988C17.2134 87.5988 16.4469 86.8818 16.3959 85.9559C16.3436 84.9976 17.0774 84.1777 18.0354 84.1249C18.0677 84.1231 18.1005 84.1222 18.1328 84.1222C19.0481 84.1222 19.8142 84.8392 19.8646 85.7647C19.9174 86.7238 19.1836 87.5432 18.2261 87.596C18.1933 87.5979 18.161 87.5988 18.1287 87.5988Z" fill="#88DBFF"/>
<path fill-rule="evenodd" clip-rule="evenodd" d="M0 97.8726L91.6329 96.7277L97 99.5478C97 99.5478 26.6551 118.869 0 97.8726Z" fill="#BDC2D8"/>
<path fill-rule="evenodd" clip-rule="evenodd" d="M54.2761 8.35359C54.2761 8.35359 49.5555 8.58985 49.3981 13.6283C49.3981 13.6283 49.4768 16.3838 50.9716 17.4076C52.4665 18.431 52.3878 19.5331 52.3878 19.5331H56.3214C56.3214 19.5331 56.164 18.116 56.7936 17.3289C57.4232 16.5413 58.9967 14.8879 58.7602 12.4475C58.5245 10.007 56.7149 8.11733 54.2761 8.35359Z" fill="#F9C839"/>
<path fill-rule="evenodd" clip-rule="evenodd" d="M52.3117 20.7692C53.7246 20.7037 55.1531 20.8594 56.5555 20.777C56.7584 20.7656 56.8271 20.4497 56.6065 20.4041C55.2427 20.1224 53.6837 20.2785 52.3117 20.4328C52.102 20.4565 52.091 20.7797 52.3117 20.7692Z" fill="#324287"/>
<path fill-rule="evenodd" clip-rule="evenodd" d="M52.8613 22.0043C53.425 21.9715 53.99 21.9483 54.5541 21.9542C55.115 21.9601 55.69 22.053 56.2477 22.012C56.4524 21.997 56.5157 21.6961 56.2978 21.6392C55.2196 21.3569 53.9067 21.5199 52.8168 21.6738C52.6298 21.7002 52.673 22.0152 52.8613 22.0043Z" fill="#324287"/>
<path fill-rule="evenodd" clip-rule="evenodd" d="M53.3248 22.9185C53.8179 22.9527 54.3274 23.0924 54.8187 23.0815C55.0625 23.0765 55.1071 22.7328 54.8756 22.66C54.3979 22.5097 53.8197 22.5621 53.3248 22.5817C53.1069 22.5908 53.1096 22.9035 53.3248 22.9185Z" fill="#324287"/>
<path fill-rule="evenodd" clip-rule="evenodd" d="M53.5487 19.479C53.6578 18.0783 53.1856 16.5282 52.9473 15.1539C52.8099 15.2121 52.673 15.2695 52.5365 15.3273C52.7339 15.6528 53.0628 16.591 53.5678 16.5573C54.0896 16.5227 54.2824 15.5913 54.3566 15.2117C54.206 15.2117 54.0559 15.2117 53.9062 15.2117C54.0068 15.6442 54.02 16.6875 54.6982 16.5888C55.2732 16.5054 55.6608 15.6514 55.8369 15.1835C55.6808 15.1402 55.5248 15.097 55.3688 15.0542C55.0212 16.424 54.8547 18.1588 55.2027 19.5395C55.2655 19.7876 55.659 19.7385 55.6513 19.479C55.609 18.0273 55.4056 16.6065 55.8369 15.1835C55.9297 14.878 55.4802 14.7697 55.3688 15.0542C55.3051 15.2158 54.9334 16.1353 54.5822 16.0165C54.4935 15.9869 54.3757 15.1675 54.3566 15.0874C54.3043 14.873 53.9476 14.8566 53.9062 15.0874C53.8553 15.3692 53.7384 16.1358 53.4067 15.9068C53.2148 15.7743 53.0455 15.3027 52.9245 15.1006C52.7853 14.8684 52.4755 15.0323 52.5137 15.2741C52.7303 16.6488 52.7899 18.2494 53.3417 19.535C53.3894 19.6461 53.5414 19.576 53.5487 19.479Z" fill="#0253B3"/>
<path fill-rule="evenodd" clip-rule="evenodd" d="M39.6515 17.7289C41.75 17.0602 43.9154 16.4843 45.9638 15.6758C46.1276 15.6112 46.0685 15.3617 45.8897 15.4063C43.7534 15.938 41.6572 16.7283 39.5619 17.4034C39.3562 17.4694 39.4436 17.7949 39.6515 17.7289Z" fill="#F9C839"/>
<path fill-rule="evenodd" clip-rule="evenodd" d="M42.2308 11.4796C43.5523 11.4527 44.9266 11.5287 46.2377 11.3603C46.4579 11.3321 46.4683 11.0271 46.2377 11.0093C44.9198 10.9101 43.5519 11.0589 42.2308 11.1013C41.9884 11.109 41.987 11.4846 42.2308 11.4796Z" fill="#F9C839"/>
<path fill-rule="evenodd" clip-rule="evenodd" d="M48.5728 9.18261C47.0857 7.88612 45.6664 6.26823 43.9723 5.24215C43.7066 5.081 43.4596 5.43835 43.6525 5.65732C44.9517 7.13089 46.7746 8.22617 48.3031 9.45301C48.4909 9.60324 48.7607 9.34649 48.5728 9.18261Z" fill="#F9C839"/>
<path fill-rule="evenodd" clip-rule="evenodd" d="M51.9218 7.19003C51.9359 6.77304 51.612 6.37244 51.4096 6.02556C51.1703 5.6154 50.9629 5.14014 50.6326 4.79689C50.4661 4.62391 50.1286 4.80054 50.2141 5.0409C50.3742 5.48975 50.7036 5.88853 50.9638 6.2864C51.1849 6.62464 51.3982 7.09808 51.7785 7.27243C51.844 7.30247 51.9191 7.26697 51.9218 7.19003Z" fill="#F9C839"/>
<path fill-rule="evenodd" clip-rule="evenodd" d="M55.0594 6.3442C55.1213 4.33937 55.1973 2.21891 54.9639 0.225012C54.9293 -0.0699758 54.5208 -0.0799908 54.4976 0.225012C54.3447 2.22711 54.5081 4.34256 54.6509 6.3442C54.6696 6.60504 55.0517 6.61005 55.0594 6.3442Z" fill="#F9C839"/>
<path fill-rule="evenodd" clip-rule="evenodd" d="M57.4045 7.30745C57.9085 6.56634 58.4339 5.8234 58.8174 5.01082C58.953 4.72403 58.5768 4.50415 58.3939 4.76318C57.8753 5.49655 57.4863 6.3196 57.0892 7.12308C56.985 7.33431 57.2721 7.50138 57.4045 7.30745Z" fill="#F9C839"/>
<path fill-rule="evenodd" clip-rule="evenodd" d="M59.2177 8.98191C60.2135 8.56218 61.1511 8.01682 62.0982 7.49923C63.0335 6.98846 64.0807 6.54416 64.895 5.85175C65.061 5.71063 64.8836 5.42202 64.6825 5.48757C63.7295 5.79849 62.8665 6.41077 61.999 6.90834C61.0169 7.47146 60.006 8.0059 59.0853 8.66689C58.9411 8.77068 59.0239 9.06339 59.2177 8.98191Z" fill="#F9C839"/>
<path fill-rule="evenodd" clip-rule="evenodd" d="M60.527 11.5903C61.2635 11.8494 62.5304 11.6577 63.1022 11.1083C63.302 10.9171 63.0895 10.6366 62.852 10.6781C62.4595 10.7473 62.0964 10.9548 61.7048 11.0463C61.3149 11.1378 60.9159 11.136 60.527 11.2157C60.3255 11.2571 60.3605 11.5321 60.527 11.5903Z" fill="#F9C839"/>
<path fill-rule="evenodd" clip-rule="evenodd" d="M60.8314 15.2279C63.6536 15.934 66.5664 16.7411 69.4538 17.1112C69.8022 17.1558 69.85 16.6096 69.5343 16.5153C66.7689 15.6927 63.7983 15.2657 60.956 14.7741C60.6635 14.724 60.5325 15.1533 60.8314 15.2279Z" fill="#F9C839"/>
<path fill-rule="evenodd" clip-rule="evenodd" d="M20.8368 64.5612C20.931 63.9375 20.9128 63.3439 21.2617 62.7944C21.9568 61.6996 22.944 61.975 23.8993 62.4566C24.8732 62.9469 25.7903 63.2415 26.8485 62.7826C28.5021 62.067 29.2777 59.5714 27.7001 58.3978C27.1892 58.0177 26.6861 58.645 26.7543 59.1257C26.8503 59.7967 27.1828 60.5356 26.6078 61.1124C25.8395 61.8835 24.9387 61.2357 24.1718 60.8902C23.3438 60.516 22.4636 60.4341 21.6092 60.7796C20.1381 61.3746 19.0713 63.3707 20.239 64.7191C20.4042 64.9094 20.7977 64.8234 20.8368 64.5612Z" fill="#0253B3"/>
<path fill-rule="evenodd" clip-rule="evenodd" d="M4.81702 26.8899L5.97932 40.7689H31.5194L32.9338 45.6521L34.4241 40.2968L39.2912 40.0141L37.0475 27.5832L4.81702 26.8899Z" fill="#FCC497"/>
<path fill-rule="evenodd" clip-rule="evenodd" d="M8.16973 32.025C16.9659 31.6558 25.7403 31.6453 34.5132 32.4766C34.8262 32.5066 34.8285 32.0095 34.5132 31.9858C25.7539 31.3217 16.9441 31.0317 8.16973 31.5989C7.8986 31.6167 7.89451 32.0368 8.16973 32.025Z" fill="#FFFFFE"/>
<path fill-rule="evenodd" clip-rule="evenodd" d="M8.68289 34.7652C17.4791 34.3956 26.253 34.3851 35.0264 35.2163C35.3389 35.2459 35.3412 34.7493 35.0264 34.7256C26.2671 34.0614 17.4568 33.7714 8.68289 34.3391C8.4113 34.3564 8.40721 34.7766 8.68289 34.7652Z" fill="#FFFFFE"/>
<path fill-rule="evenodd" clip-rule="evenodd" d="M8.73113 37.0567C14.6395 37.2916 20.4783 36.8081 26.3831 37.3544C26.6956 37.3831 26.6988 36.885 26.3831 36.8632C20.4865 36.4603 14.6341 36.7007 8.73113 36.6306C8.4559 36.6269 8.45772 37.0457 8.73113 37.0567Z" fill="#FFFFFE"/>
</svg>
