<svg width="135" height="83" viewBox="0 0 135 83" fill="none" xmlns="http://www.w3.org/2000/svg">
<path d="M56.3705 21.2857H69.3356C72.5067 21.2855 75.6468 21.8662 78.5765 22.9946C81.5063 24.1229 84.1683 25.7769 86.4107 27.862C88.653 29.9471 90.4318 32.4225 91.6453 35.1469C92.8589 37.8713 93.4835 40.7913 93.4835 43.7402V74.1648H32.224V43.7402C32.224 37.7849 34.768 32.0735 39.2963 27.8625C43.8247 23.6514 49.9664 21.2857 56.3705 21.2857V21.2857Z" fill="#2F2E41"/>
<path opacity="0.2" d="M57.7886 22.5095H67.9177C71.0887 22.5093 74.2288 23.09 77.1585 24.2183C80.0883 25.3467 82.7503 27.0007 84.9927 29.0858C87.2351 31.1709 89.0138 33.6463 90.2274 36.3707C91.4409 39.0951 92.0655 42.0151 92.0655 44.964V72.9398H33.6421V44.964C33.6421 39.0087 36.1861 33.2973 40.7144 29.0862C45.2428 24.8752 51.3845 22.5095 57.7886 22.5095V22.5095Z" fill="black"/>
<path d="M134.819 78.4625V80.7649C131.566 82.2527 127.986 83.02 124.36 83.0066H17.5714C16.7205 83.0066 15.8773 82.975 15.0416 82.9117C12.0717 82.6942 9.15337 82.0657 6.383 81.0471C5.84225 80.8484 5.31191 80.6348 4.79196 80.4062C4.54427 80.2981 4.29895 80.1869 4.05599 80.0726C3.90426 80.0014 3.75253 79.9275 3.60222 79.8537C2.69024 79.4035 1.80677 78.9051 0.956146 78.3609V72.1077C0.956146 71.097 1.38791 70.1277 2.15647 69.413C2.92502 68.6983 3.9674 68.2968 5.05429 68.2968H122.926C123.918 68.2984 124.875 68.6344 125.621 69.2422L133.42 75.5983C133.859 75.9554 134.211 76.3957 134.453 76.8896C134.694 77.3836 134.819 77.9199 134.819 78.4625V78.4625Z" fill="#2F2E41"/>
<path d="M55.2204 28.7771C52.1282 28.967 49.0477 29.2747 45.979 29.7002C45.1069 29.8215 44.2221 29.956 43.4266 30.3147C42.8084 30.6158 42.2385 30.9957 41.7334 31.4435C39.4555 33.3413 37.6214 35.6542 36.3449 38.2387C35.555 39.8409 34.9878 41.5354 34.2433 43.1508C31.593 48.92 26.7858 53.6382 23.988 59.3468C23.3825 60.5824 22.872 61.8721 22.6692 63.2158C22.4594 64.6057 22.6976 66.2277 23.9256 67.04C24.4928 67.4132 25.182 67.5675 25.857 67.6993C34.3541 69.4492 42.9501 70.7545 51.6044 71.6092C50.6671 70.7679 50.3537 69.4637 50.4771 68.2585C50.6004 67.0532 51.1095 65.9138 51.6115 64.7969C46.7136 63.7921 41.828 62.7371 36.9546 61.6321C36.2272 61.4672 35.3536 61.1574 35.2643 60.4664C35.2189 60.1143 35.4061 59.7754 35.5905 59.4655C37.6689 55.9656 40.1612 52.6926 43.021 49.7072C43.021 53.4075 42.8239 57.5864 42.8239 61.2879H88.7827C88.23 59.176 87.9051 57.018 87.8127 54.8461C87.5986 47.7569 90.1653 40.7217 89.4988 33.647C89.4364 32.9943 89.34 32.3218 88.9727 31.7626C88.3388 30.7974 87.0739 30.3978 85.9111 30.0681C81.4528 28.8075 76.9009 27.5323 72.2412 27.6312C70.8558 27.6615 69.476 27.8119 68.0991 27.9635C63.9031 28.4237 59.4363 28.5174 55.2204 28.7771Z" fill="#EEE8F6"/>
<path d="M33.6959 71.306L37.0425 81.266C37.0639 81.3291 37.1064 81.3842 37.1638 81.4233C37.2211 81.4624 37.2904 81.4835 37.3616 81.4835H51.7221L48.3188 69.8792L33.9881 70.9038C33.9381 70.9076 33.8898 70.9218 33.8466 70.9453C33.8033 70.9689 33.7663 71.0011 33.7383 71.0397C33.7103 71.0783 33.6919 71.1223 33.6846 71.1684C33.6772 71.2144 33.6811 71.2615 33.6959 71.306V71.306Z" fill="#656478"/>
<path d="M58.2451 33.0602C57.6212 33.3938 56.8937 33.5138 56.1847 33.6285L51.6087 34.367C50.7181 34.5107 49.7808 34.6743 49.0945 35.2215C47.6906 36.3384 47.9941 38.3943 48.4195 40.0663L49.2703 43.4211C49.9113 45.9424 50.5664 48.494 51.8809 50.778C54.1767 54.7644 58.3883 57.6351 63.0197 59.0184C64.6745 59.513 66.423 59.8347 68.1501 59.658C71.5336 59.3125 74.4278 57.0694 76.2117 54.3727C77.9956 51.676 78.845 48.5481 79.6235 45.465C80.3708 42.5138 81.0813 39.5204 81.0331 36.4874C81.0189 35.5433 80.9168 34.5569 80.3751 33.7565C79.1882 31.9986 76.4982 31.8668 74.2931 32.1912C73.9499 32.2426 73.594 32.298 73.2636 32.2017C72.271 31.9143 72.2483 30.647 71.8229 29.7674C71.0188 28.1085 68.6337 27.8145 66.6839 27.9648C64.7341 28.1151 61.698 28.309 59.9992 29.3362C58.3656 30.3186 60.1609 32.0329 58.2451 33.0602Z" fill="#FBBEBE"/>
<path opacity="0.1" d="M58.2451 33.0602C57.6212 33.3938 56.8937 33.5138 56.1847 33.6285L51.6087 34.367C50.7181 34.5107 49.7808 34.6743 49.0945 35.2215C47.6906 36.3384 47.9941 38.3943 48.4195 40.0663L49.2703 43.4211C49.9113 45.9424 50.5664 48.494 51.8809 50.778C54.1767 54.7644 58.3883 57.6351 63.0197 59.0184C64.6745 59.513 66.423 59.8347 68.1501 59.658C71.5336 59.3125 74.4278 57.0694 76.2117 54.3727C77.9956 51.676 78.845 48.5481 79.6235 45.465C80.3708 42.5138 81.0813 39.5204 81.0331 36.4874C81.0189 35.5433 80.9168 34.5569 80.3751 33.7565C79.1882 31.9986 76.4982 31.8668 74.2931 32.1912C73.9499 32.2426 73.594 32.298 73.2636 32.2017C72.271 31.9143 72.2483 30.647 71.8229 29.7674C71.0188 28.1085 68.6337 27.8145 66.6839 27.9648C64.7341 28.1151 61.698 28.309 59.9992 29.3362C58.3656 30.3186 60.1609 32.0329 58.2451 33.0602Z" fill="black"/>
<path d="M54.4575 36.8396C55.1495 38.1899 55.6685 39.622 56.5052 40.8998C57.1703 41.9152 58.0225 42.8106 58.8705 43.7007C61.067 46.011 63.292 48.3398 66.0103 50.0989C67.1361 44.7209 69.8556 39.7425 73.8621 35.7253C75.0334 34.5556 76.4996 33.4031 78.2183 33.4466C79.2847 33.4743 80.2688 33.9662 81.1565 34.5134C82.1491 35.124 83.0879 35.8321 83.8011 36.7117C84.9285 38.1121 85.4149 39.8857 85.5028 41.633C85.5907 43.3802 85.2986 45.1235 85.0093 46.851L83.5204 55.7798C83.4339 56.2967 83.3133 56.8677 82.8596 57.1776C82.6018 57.3294 82.3114 57.4267 82.0087 57.4625C76.5961 58.4422 71.0175 57.8066 65.5027 57.7565C59.4051 57.7024 53.1388 58.3486 47.3631 56.5446C47.061 56.4497 46.7476 56.3402 46.5434 56.1148C46.4093 55.9447 46.3129 55.7515 46.2598 55.5464C44.9141 51.4954 45.9932 47.1424 46.7916 42.9688C47.4237 39.6613 47.8738 36.326 48.1401 32.9758C48.1643 32.6739 51.7321 33.3411 52.1305 33.5547C53.2153 34.1521 53.9357 35.8216 54.4575 36.8396Z" fill="#EEE8F6"/>
<path d="M63.7755 34.5385C70.3541 34.5385 75.6871 29.5792 75.6871 23.4616C75.6871 17.344 70.3541 12.3846 63.7755 12.3846C57.1969 12.3846 51.8639 17.344 51.8639 23.4616C51.8639 29.5792 57.1969 34.5385 63.7755 34.5385Z" fill="#FBBEBE"/>
<path d="M58.9371 1.72567C55.7593 2.10018 52.3291 2.59468 50.0829 4.71776C48.8265 5.90457 48.0905 7.48699 47.485 9.05358C46.5463 11.4931 45.8472 14.0646 46.067 16.6531C46.2627 18.9687 47.1844 21.3371 46.4385 23.5551C46.0953 24.5758 45.4218 25.4672 44.8985 26.418C43.9286 28.1837 43.4719 30.163 43.3046 32.1397C43.1883 33.4993 43.211 34.8984 43.6917 36.1868C44.2037 37.5582 45.202 38.7252 45.8344 40.0518C46.7703 42.0114 46.8639 44.2162 46.9362 46.3591C47.0085 48.5019 47.0695 50.6303 47.1234 52.7652C47.1574 54.1076 47.1603 55.545 46.3619 56.6646C49.31 55.5661 52.2993 54.4452 54.822 52.6518C57.3447 50.8584 59.3867 48.2725 59.7128 45.3345C59.9766 42.9529 59.1116 40.6057 58.3657 38.3138C56.5222 32.6435 55.331 26.5986 56.6725 20.8083C57.1561 18.7235 58.3316 16.396 60.5877 16.0123C61.9647 15.7789 63.3387 16.363 64.5795 16.967C67.512 18.3938 70.5353 20.24 71.6272 23.145C72.6198 25.7718 71.7846 28.698 70.4928 31.2061C69.2009 33.7142 67.4426 36.0206 66.4386 38.6422C64.8972 42.6641 65.3311 47.3731 67.8921 50.9164C70.4531 54.4597 75.1851 56.6395 79.7356 56.0672C79.3797 54.6378 78.2637 53.4826 77.6652 52.1243C76.5776 49.6571 77.3107 46.8193 78.4806 44.385C79.6505 41.9507 81.2472 39.6813 81.9789 37.0967C82.4951 35.2769 82.5575 33.3753 82.5547 31.4936C82.5547 28.5318 82.3973 25.5687 82.091 22.6202C81.7847 19.6716 81.3167 16.6861 80.3071 13.8496C79.4959 11.5749 78.3147 9.37534 76.5478 7.63073C74.6675 5.7727 72.2199 4.51336 69.8164 3.27908C68.3785 2.54325 66.9094 1.7982 65.2956 1.5226C64.0194 1.30501 62.6779 0.995123 61.3762 0.975342C60.4913 0.963474 59.5611 1.1415 58.9371 1.72567Z" fill="#272323"/>
<path d="M81.3565 16.0227L73.6931 14.64C73.4701 14.5998 73.2543 14.7353 73.211 14.9426L69.5394 32.5406C69.4962 32.7479 69.6418 32.9486 69.8648 32.9889L77.5282 34.3715C77.7512 34.4117 77.967 34.2763 78.0103 34.0689L81.6819 16.471C81.7251 16.2636 81.5795 16.0629 81.3565 16.0227Z" fill="#656478"/>
<path d="M81.9357 16.1272L74.2723 14.7446C74.0493 14.7044 73.8335 14.8398 73.7903 15.0472L70.1187 32.6452C70.0754 32.8525 70.2211 33.0532 70.444 33.0934L78.1074 34.4761C78.3304 34.5163 78.5462 34.3808 78.5895 34.1735L82.2611 16.5755C82.3043 16.3682 82.1587 16.1675 81.9357 16.1272Z" fill="#3F3D56"/>
<path d="M77.8434 19.5126C77.9933 18.7941 77.8562 18.1649 77.5371 18.1074C77.218 18.0498 76.8379 18.5856 76.688 19.3042C76.5381 20.0227 76.6752 20.6518 76.9942 20.7094C77.3133 20.767 77.6935 20.2311 77.8434 19.5126Z" fill="#EEE8F6"/>
<path d="M79.6576 25.5055C79.2832 24.8897 78.8834 24.2528 78.2523 23.8585C77.8896 23.6516 77.4997 23.4889 77.0924 23.3745C75.7183 22.9275 74.3215 22.4765 72.868 22.4053C72.6312 22.3947 72.3603 22.4053 72.2058 22.5741C71.8881 22.9209 72.3915 23.393 72.8269 23.6027L76.2897 25.2708L73.0977 24.9569C72.634 24.9108 71.9732 25.0281 72.0072 25.4607C72.0299 25.7442 72.3646 25.8985 72.6539 25.9881C74.703 26.6475 77.0711 27.1644 78.1928 28.8893C76.6981 28.7574 75.1709 28.6255 73.7061 28.9314C73.3048 29.0158 72.8893 29.1464 72.6269 29.4405C72.3646 29.7345 72.3348 30.2317 72.6652 30.4651C72.8694 30.6062 73.1445 30.6101 73.3998 30.5969C74.4392 30.5508 75.5056 30.3583 76.5039 30.6339C77.5022 30.9095 78.3885 31.8827 78.0439 32.7952C78.9287 32.869 79.9753 32.7952 80.7935 32.4405C81.6953 32.0449 81.6741 31.3011 81.6188 30.4044C81.5011 28.6479 80.5637 27.0088 79.6576 25.5055Z" fill="#FBBEBE"/>
<path opacity="0.1" d="M78.7629 54.2514C77.9693 49.0621 76.8806 43.9156 75.5013 38.8334C74.7923 36.1961 73.9869 33.5139 74.1897 30.8C77.1193 31.1468 79.7441 31.404 82.4441 30.291C82.4881 31.7165 83.5998 32.9284 84.0039 34.3064C84.2748 35.2295 84.1727 36.2066 84.2791 37.1574C84.3854 38.1082 84.7045 39.0299 84.9781 39.9543C86.3361 44.535 86.6562 49.3281 85.9183 54.0299C83.4126 54.3068 81.2629 54.6114 78.7629 54.2514Z" fill="black"/>
<path d="M78.3374 54.2514C77.5438 49.0621 76.4551 43.9156 75.0759 38.8334C74.3669 36.1961 73.5614 33.5139 73.7642 30.8C76.6939 31.1468 79.3187 31.404 82.0186 30.291C82.0626 31.7165 83.1743 32.9284 83.5785 34.3064C83.8493 35.2295 83.7472 36.2066 83.8536 37.1574C83.9599 38.1082 84.279 39.0299 84.5527 39.9543C85.9106 44.535 86.2308 49.3281 85.4928 54.0299C82.9872 54.3068 80.8374 54.6114 78.3374 54.2514Z" fill="#EEE8F6"/>
<path d="M37.3474 79.9367L38.7357 47.9099C38.7578 47.4008 38.9922 46.9198 39.3893 46.5687C39.7864 46.2177 40.3149 46.0242 40.8628 46.0295L95.673 46.5174C95.9634 46.5202 96.2501 46.5787 96.515 46.6894C96.78 46.8001 97.0174 46.9606 97.2125 47.1607C97.4076 47.3608 97.556 47.5963 97.6486 47.8523C97.7412 48.1083 97.7759 48.3793 97.7504 48.6484L94.8548 79.3301C94.8093 79.8126 94.5733 80.2623 94.1923 80.5925C93.8113 80.9227 93.3123 81.11 92.7915 81.1183L39.4901 81.9754C39.2031 81.9799 38.9182 81.9299 38.6528 81.8285C38.3873 81.727 38.147 81.5762 37.9464 81.3854C37.7458 81.1945 37.5892 80.9676 37.4862 80.7185C37.3832 80.4694 37.336 80.2034 37.3474 79.9367Z" fill="#3F3D56"/>
<path d="M67.9588 63.2198C69.2901 63.2198 70.3694 62.039 70.3694 60.5824C70.3694 59.1259 69.2901 57.9451 67.9588 57.9451C66.6274 57.9451 65.5481 59.1259 65.5481 60.5824C65.5481 62.039 66.6274 63.2198 67.9588 63.2198Z" fill="#EEE8F6"/>
<path d="M119.505 58.7705L119.391 59.6751L117.548 74.294C112.742 77.4101 109.004 74.4153 108.971 74.294L106.649 59.6065L106.517 58.7705H119.505Z" fill="#3F3D56"/>
<path opacity="0.1" d="M119.505 58.7705L119.391 59.6751C113.977 62.6026 108.201 60.3239 106.649 59.6065L106.517 58.7705H119.505Z" fill="black"/>
<path d="M106.246 57.9767V59.2954C106.246 59.2954 113.407 63.167 119.859 59.2954V57.9767H106.246Z" fill="#EEE8F6"/>
<path d="M107.078 56.2347C107.078 56.2347 106.87 57.1248 106.246 57.2026V58.3248H119.859V57.3186C119.859 57.3186 119.027 57.1248 119.15 56.2347H107.078Z" fill="#EEE8F6"/>
<path d="M113.011 57.9767C116.403 57.9767 119.152 57.2399 119.152 56.331C119.152 55.4221 116.403 54.6852 113.011 54.6852C109.62 54.6852 106.871 55.4221 106.871 56.331C106.871 57.2399 109.62 57.9767 113.011 57.9767Z" fill="#EEE8F6"/>
<path opacity="0.1" d="M113.011 57.9767C116.403 57.9767 119.152 57.2399 119.152 56.331C119.152 55.4221 116.403 54.6852 113.011 54.6852C109.62 54.6852 106.871 55.4221 106.871 56.331C106.871 57.2399 109.62 57.9767 113.011 57.9767Z" fill="black"/>
<path opacity="0.1" d="M118.401 56.2347C118.401 56.8941 116.073 57.4347 113.199 57.4347H113.045C111.115 57.4215 109.448 57.171 108.597 56.7965C108.213 56.6277 107.994 56.4365 107.994 56.2347C107.994 55.8998 108.59 55.5965 109.554 55.3789C110.752 55.1353 111.976 55.0198 113.203 55.0347C116.073 55.0347 118.401 55.5714 118.401 56.2347Z" fill="black"/>
<path opacity="0.1" d="M113.045 57.4347C111.115 57.4215 109.448 57.171 108.597 56.7965L109.55 55.3736L113.045 57.4347Z" fill="black"/>
<path opacity="0.1" d="M107.607 56.3271C107.534 56.3126 107.436 56.3363 107.421 56.4049C107.42 56.4398 107.43 56.4744 107.45 56.5038C107.612 56.7428 107.849 56.9308 108.128 57.0431C108.175 57.0681 108.228 57.0838 108.282 57.0893C108.311 57.0924 108.339 57.0876 108.365 57.0753C108.39 57.0631 108.411 57.0441 108.424 57.0207C108.432 57.0008 108.435 56.9795 108.433 56.9584C108.432 56.9372 108.425 56.9167 108.414 56.8981C108.371 56.8268 108.311 56.7655 108.238 56.7187C108.048 56.5803 107.854 56.3653 107.607 56.3271Z" fill="black"/>
<path d="M113.218 70.4224C115.241 70.4224 116.881 68.8974 116.881 67.0163C116.881 65.1351 115.241 63.6101 113.218 63.6101C111.196 63.6101 109.556 65.1351 109.556 67.0163C109.556 68.8974 111.196 70.4224 113.218 70.4224Z" fill="#EEE8F6"/>
<path d="M13.4817 67.0242H15.199C16.1392 67.0242 17.0409 67.3715 17.7057 67.9898C18.3706 68.608 18.7441 69.4465 18.7441 70.3209V75.2198H9.93661V70.3209C9.93661 69.4465 10.3101 68.608 10.9749 67.9898C11.6398 67.3715 12.5415 67.0242 13.4817 67.0242V67.0242Z" fill="#3F3D56"/>
<path opacity="0.1" d="M13.4817 67.0242H15.199C16.1392 67.0242 17.0409 67.3715 17.7057 67.9898C18.3706 68.608 18.7441 69.4465 18.7441 70.3209V75.2198H9.93661V70.3209C9.93661 69.4465 10.3101 68.608 10.9749 67.9898C11.6398 67.3715 12.5415 67.0242 13.4817 67.0242V67.0242Z" fill="black"/>
<path d="M13.988 68.8268C14.3772 68.8268 14.6928 68.5334 14.6928 68.1714C14.6928 67.8095 14.3772 67.5161 13.988 67.5161C13.5988 67.5161 13.2832 67.8095 13.2832 68.1714C13.2832 68.5334 13.5988 68.8268 13.988 68.8268Z" fill="#3F3D56"/>
<path d="M13.988 68.0079C14.3772 68.0079 14.6928 67.7145 14.6928 67.3525C14.6928 66.9906 14.3772 66.6971 13.988 66.6971C13.5988 66.6971 13.2832 66.9906 13.2832 67.3525C13.2832 67.7145 13.5988 68.0079 13.988 68.0079Z" fill="#3F3D56"/>
<path d="M13.988 67.1876C14.3772 67.1876 14.6928 66.8942 14.6928 66.5323C14.6928 66.1703 14.3772 65.8769 13.988 65.8769C13.5988 65.8769 13.2832 66.1703 13.2832 66.5323C13.2832 66.8942 13.5988 67.1876 13.988 67.1876Z" fill="#3F3D56"/>
<path d="M13.988 66.3688C14.3772 66.3688 14.6928 66.0754 14.6928 65.7134C14.6928 65.3515 14.3772 65.058 13.988 65.058C13.5988 65.058 13.2832 65.3515 13.2832 65.7134C13.2832 66.0754 13.5988 66.3688 13.988 66.3688Z" fill="#3F3D56"/>
<path d="M13.988 65.5499C14.3772 65.5499 14.6928 65.2565 14.6928 64.8945C14.6928 64.5326 14.3772 64.2391 13.988 64.2391C13.5988 64.2391 13.2832 64.5326 13.2832 64.8945C13.2832 65.2565 13.5988 65.5499 13.988 65.5499Z" fill="#3F3D56"/>
<path d="M13.988 64.731C14.3772 64.731 14.6928 64.4376 14.6928 64.0756C14.6928 63.7137 14.3772 63.4202 13.988 63.4202C13.5988 63.4202 13.2832 63.7137 13.2832 64.0756C13.2832 64.4376 13.5988 64.731 13.988 64.731Z" fill="#3F3D56"/>
<path d="M13.988 63.9121C14.3772 63.9121 14.6928 63.6187 14.6928 63.2567C14.6928 62.8947 14.3772 62.6013 13.988 62.6013C13.5988 62.6013 13.2832 62.8947 13.2832 63.2567C13.2832 63.6187 13.5988 63.9121 13.988 63.9121Z" fill="#3F3D56"/>
<path d="M15.0458 64.2391C15.4351 64.2391 15.7506 63.9457 15.7506 63.5837C15.7506 63.2218 15.4351 62.9283 15.0458 62.9283C14.6566 62.9283 14.3411 63.2218 14.3411 63.5837C14.3411 63.9457 14.6566 64.2391 15.0458 64.2391Z" fill="#3F3D56"/>
<path d="M15.7506 63.9121C16.1399 63.9121 16.4554 63.6187 16.4554 63.2567C16.4554 62.8947 16.1399 62.6013 15.7506 62.6013C15.3614 62.6013 15.0459 62.8947 15.0459 63.2567C15.0459 63.6187 15.3614 63.9121 15.7506 63.9121Z" fill="#3F3D56"/>
<path d="M16.4554 63.5837C16.8446 63.5837 17.1601 63.2903 17.1601 62.9283C17.1601 62.5664 16.8446 62.2729 16.4554 62.2729C16.0661 62.2729 15.7506 62.5664 15.7506 62.9283C15.7506 63.2903 16.0661 63.5837 16.4554 63.5837Z" fill="#3F3D56"/>
<path d="M13.988 63.0932C14.3772 63.0932 14.6928 62.7998 14.6928 62.4379C14.6928 62.0759 14.3772 61.7825 13.988 61.7825C13.5988 61.7825 13.2832 62.0759 13.2832 62.4379C13.2832 62.7998 13.5988 63.0932 13.988 63.0932Z" fill="#3F3D56"/>
<path d="M13.988 62.2743C14.3772 62.2743 14.6928 61.9808 14.6928 61.6189C14.6928 61.2569 14.3772 60.9635 13.988 60.9635C13.5988 60.9635 13.2832 61.2569 13.2832 61.6189C13.2832 61.9808 13.5988 62.2743 13.988 62.2743Z" fill="#3F3D56"/>
<path d="M13.988 61.4541C14.3772 61.4541 14.6928 61.1607 14.6928 60.7987C14.6928 60.4367 14.3772 60.1433 13.988 60.1433C13.5988 60.1433 13.2832 60.4367 13.2832 60.7987C13.2832 61.1607 13.5988 61.4541 13.988 61.4541Z" fill="#3F3D56"/>
<path d="M13.988 60.6352C14.3772 60.6352 14.6928 60.3417 14.6928 59.9798C14.6928 59.6178 14.3772 59.3244 13.988 59.3244C13.5988 59.3244 13.2832 59.6178 13.2832 59.9798C13.2832 60.3417 13.5988 60.6352 13.988 60.6352Z" fill="#3F3D56"/>
<path d="M16.9091 57.8673C16.7347 57.891 16.5589 57.9081 16.383 57.9187C16.5471 57.7853 16.6993 57.6397 16.8382 57.4835C16.7401 57.2083 16.5966 56.9489 16.4128 56.7147C16.2381 56.806 16.045 56.8626 15.8456 56.8809C15.6712 56.9046 15.4953 56.9218 15.3195 56.9336C15.5506 56.7582 15.7662 56.4945 15.9931 56.2743C15.4687 55.8322 14.7927 55.5773 14.0853 55.5551C13.3779 55.5328 12.685 55.7446 12.1297 56.1528C11.5744 56.5609 11.1928 57.139 11.0527 57.7842C10.9126 58.4294 11.0232 59.0999 11.3647 59.6764C11.7062 60.2529 12.2565 60.6981 12.9178 60.9328C13.5791 61.1676 14.3084 61.1765 14.9762 60.9582C15.6439 60.7399 16.2067 60.3084 16.5646 59.7405C16.9224 59.1726 17.052 58.5051 16.9304 57.8567L16.9091 57.8673Z" fill="#EEE8F6"/>
<path d="M19.2645 61.1231C19.0847 61.2257 18.8819 61.2884 18.6718 61.3064C18.4974 61.3301 18.3215 61.3486 18.1457 61.3591C18.3326 61.2032 18.507 61.0349 18.6675 60.8554C18.2426 60.7524 17.7917 60.8004 17.4028 60.9901C17.014 61.1799 16.7152 61.4977 16.5649 61.8814C16.4147 62.2651 16.4237 62.6871 16.5902 63.0649C16.7568 63.4428 17.0689 63.7493 17.4655 63.9245C17.8622 64.0997 18.3148 64.1311 18.735 64.0124C19.1552 63.8938 19.5127 63.6337 19.7376 63.283C19.9625 62.9322 20.0386 62.5161 19.9512 62.1159C19.8637 61.7158 19.6188 61.3603 19.2645 61.1191V61.1231Z" fill="#EEE8F6"/>
<path d="M12.9315 64.2391C13.3208 64.2391 13.6363 63.9457 13.6363 63.5837C13.6363 63.2218 13.3208 62.9283 12.9315 62.9283C12.5423 62.9283 12.2268 63.2218 12.2268 63.5837C12.2268 63.9457 12.5423 64.2391 12.9315 64.2391Z" fill="#3F3D56"/>
<path d="M12.2268 63.9121C12.616 63.9121 12.9315 63.6187 12.9315 63.2567C12.9315 62.8947 12.616 62.6013 12.2268 62.6013C11.8375 62.6013 11.522 62.8947 11.522 63.2567C11.522 63.6187 11.8375 63.9121 12.2268 63.9121Z" fill="#3F3D56"/>
<path d="M11.522 63.5837C11.9112 63.5837 12.2268 63.2903 12.2268 62.9283C12.2268 62.5664 11.9112 62.2729 11.522 62.2729C11.1328 62.2729 10.8172 62.5664 10.8172 62.9283C10.8172 63.2903 11.1328 63.5837 11.522 63.5837Z" fill="#3F3D56"/>
<path d="M8.71285 61.1231C8.89257 61.2259 9.09545 61.2886 9.3056 61.3064C9.48001 61.3301 9.65585 61.3486 9.83169 61.3591C9.64445 61.2036 9.47001 61.0352 9.30985 60.8554C9.73477 60.7524 10.1857 60.8004 10.5746 60.9901C10.9634 61.1799 11.2622 61.4977 11.4124 61.8814C11.5627 62.2651 11.5537 62.6871 11.3871 63.0649C11.2206 63.4428 10.9085 63.7493 10.5119 63.9245C10.1152 64.0997 9.66256 64.1311 9.24238 64.0124C8.8222 63.8938 8.46471 63.6337 8.2398 63.283C8.01489 62.9322 7.93874 62.5161 8.02622 62.1159C8.1137 61.7158 8.35853 61.3603 8.71285 61.1191V61.1231Z" fill="#EEE8F6"/>
<path d="M13.4817 67.5161H15.199C16.1392 67.5161 17.0409 67.8634 17.7057 68.4816C18.3706 69.0999 18.7441 69.9384 18.7441 70.8128V75.1473C18.7441 75.2955 18.6807 75.4378 18.568 75.5426C18.4552 75.6475 18.3023 75.7064 18.1428 75.7064H10.5379C10.3784 75.7064 10.2255 75.6475 10.1127 75.5426C9.99996 75.4378 9.93661 75.2955 9.93661 75.1473V70.8128C9.93661 69.9384 10.3101 69.0999 10.9749 68.4816C11.6398 67.8634 12.5415 67.5161 13.4817 67.5161V67.5161Z" fill="#3F3D56"/>
<g opacity="0.1">
<path opacity="0.1" d="M16.9623 58.0466C16.8912 58.1175 16.8157 58.1844 16.7361 58.2471C16.8167 58.2471 16.8959 58.2352 16.9764 58.2273C16.9793 58.1666 16.9694 58.106 16.9623 58.0466Z" fill="black"/>
<path opacity="0.1" d="M15.6783 57.2633C15.8555 57.2528 16.03 57.2356 16.2058 57.2119C16.3635 57.1933 16.5177 57.1543 16.6638 57.0959C16.5924 56.9639 16.5099 56.8373 16.4171 56.7174C16.3289 56.7673 16.2333 56.8051 16.1335 56.8295C15.9944 56.9852 15.8422 57.1302 15.6783 57.2633Z" fill="black"/>
<path opacity="0.1" d="M11.3462 58.6704C11.3451 58.1704 11.4891 57.6794 11.7629 57.2492C12.0367 56.8189 12.4302 56.4653 12.902 56.2256C13.3737 55.9858 13.9063 55.8688 14.4436 55.8869C14.9808 55.905 15.5029 56.0575 15.9548 56.3284L16.0002 56.2835C15.7053 56.0395 15.3613 55.8522 14.9882 55.7323C14.6151 55.6125 14.2201 55.5625 13.8261 55.5852C13.4321 55.6079 13.0469 55.7029 12.6925 55.8647C12.3382 56.0265 12.0217 56.2519 11.7615 56.5279C11.5012 56.8039 11.3023 57.1251 11.1761 57.473C11.05 57.8208 10.9991 58.1885 11.0264 58.5547C11.0537 58.9209 11.1586 59.2785 11.3352 59.6068C11.5118 59.9351 11.7565 60.2277 12.0552 60.4677C11.5966 59.966 11.3452 59.3288 11.3462 58.6704V58.6704Z" fill="black"/>
</g>
<g opacity="0.1">
<path opacity="0.1" d="M18.1457 61.6862C18.3215 61.6756 18.4974 61.6585 18.6718 61.6347C18.882 61.6163 19.0848 61.5532 19.2645 61.4501C19.4636 61.5865 19.6297 61.7603 19.7518 61.9602C19.874 62.1601 19.9495 62.3817 19.9736 62.6106C19.9804 62.5532 19.9837 62.4955 19.9835 62.4378C19.9848 62.1817 19.9213 61.9289 19.7982 61.6998C19.675 61.4707 19.4956 61.2718 19.2745 61.1191C19.0947 61.2218 18.8918 61.2845 18.6817 61.3024L18.5399 61.3196C18.4189 61.4511 18.2871 61.5736 18.1457 61.6862V61.6862Z" fill="black"/>
<path opacity="0.1" d="M18.2166 61.1271C18.2754 61.1277 18.3341 61.1317 18.3924 61.1389C18.4846 61.048 18.5754 60.9504 18.6675 60.8554C18.4068 60.7907 18.1336 60.7826 17.869 60.8318C17.6044 60.881 17.3555 60.9861 17.1417 61.1391C16.9278 61.2921 16.7546 61.4889 16.6356 61.7141C16.5166 61.9393 16.4549 62.1869 16.4554 62.4379C16.4554 62.4932 16.4554 62.5473 16.4639 62.6014C16.5075 62.1973 16.711 61.8227 17.0348 61.5503C17.3587 61.2778 17.7799 61.127 18.2166 61.1271V61.1271Z" fill="black"/>
</g>
<g opacity="0.1">
<path opacity="0.1" d="M9.83169 61.6862C9.65585 61.6756 9.48001 61.6585 9.3056 61.6347C9.09534 61.6166 8.89247 61.5534 8.71285 61.4501C8.51375 61.5865 8.34774 61.7603 8.22558 61.9602C8.10343 62.1601 8.02788 62.3817 8.00383 62.6106C7.99696 62.5532 7.99364 62.4955 7.99391 62.4378C7.99257 62.1817 8.05605 61.9289 8.17922 61.6998C8.30239 61.4707 8.4818 61.2718 8.70293 61.1191C8.88265 61.222 9.08552 61.2847 9.29567 61.3024L9.43747 61.3196C9.55772 61.4517 9.68958 61.5744 9.83169 61.6862Z" fill="black"/>
<path opacity="0.1" d="M9.76079 61.1271C9.7015 61.1277 9.6423 61.1317 9.58353 61.1389C9.49278 61.048 9.40202 60.9504 9.30985 60.8554C9.57055 60.7907 9.84377 60.7826 10.1084 60.8318C10.373 60.881 10.6218 60.9861 10.8357 61.1391C11.0496 61.2921 11.2227 61.4889 11.3418 61.7141C11.4608 61.9393 11.5224 62.1869 11.522 62.4379C11.522 62.4932 11.522 62.5473 11.5135 62.6014C11.4699 62.1973 11.2664 61.8227 10.9425 61.5503C10.6187 61.2778 10.1975 61.127 9.76079 61.1271V61.1271Z" fill="black"/>
</g>
</svg>
