<svg width="163" height="84" viewBox="0 0 163 84" fill="none" xmlns="http://www.w3.org/2000/svg">
<g clip-path="url(#clip0_198_2275)">
<path d="M70.3704 22.2858H83.3356C86.5067 22.2856 89.6468 22.8663 92.5765 23.9946C95.5063 25.123 98.1683 26.777 100.411 28.8621C102.653 30.9472 104.432 33.4226 105.645 36.147C106.859 38.8714 107.483 41.7914 107.483 44.7403V75.1649H46.224V44.7403C46.224 38.785 48.768 33.0736 53.2963 28.8625C57.8247 24.6515 63.9664 22.2858 70.3704 22.2858Z" fill="#2F2E41"/>
<path opacity="0.2" d="M71.7886 23.5094H81.9176C85.0887 23.5092 88.2288 24.0899 91.1585 25.2183C94.0883 26.3466 96.7503 28.0006 98.9927 30.0857C101.235 32.1708 103.014 34.6462 104.227 37.3706C105.441 40.095 106.066 43.015 106.066 45.9639V73.9397H47.6421V45.9639C47.6421 40.0086 50.1861 34.2972 54.7144 30.0862C59.2428 25.8751 65.3845 23.5094 71.7886 23.5094Z" fill="black"/>
<path d="M148.819 79.4625V81.7649C145.566 83.2527 141.986 84.02 138.36 84.0066H31.5713C30.7205 84.0066 29.8772 83.975 29.0415 83.9117C26.0717 83.6942 23.1533 83.0657 20.383 82.0471C19.8422 81.8484 19.3119 81.6348 18.7919 81.4062C18.5442 81.2981 18.2989 81.1869 18.056 81.0726C17.9042 81.0014 17.7525 80.9275 17.6022 80.8537C16.6902 80.4035 15.8067 79.9051 14.9561 79.3609V73.1077C14.9561 72.097 15.3879 71.1277 16.1564 70.413C16.925 69.6983 17.9674 69.2968 19.0543 69.2968H136.926C137.918 69.2984 138.875 69.6344 139.621 70.2422L147.42 76.5983C147.859 76.9554 148.211 77.3957 148.453 77.8896C148.694 78.3836 148.819 78.9199 148.819 79.4625Z" fill="#2F2E41"/>
<path d="M69.2204 29.7772C66.1281 29.9671 63.0477 30.2748 59.979 30.7003C59.1069 30.8216 58.2221 30.9561 57.4265 31.3148C56.8083 31.6158 56.2384 31.9958 55.7334 32.4436C53.4555 34.3413 51.6213 36.6543 50.3448 39.2387C49.555 40.8409 48.9878 42.5354 48.2433 44.1508C45.593 49.9201 40.7858 54.6383 37.988 60.3469C37.3825 61.5825 36.872 62.8721 36.6692 64.2159C36.4593 65.6058 36.6976 67.2277 37.9256 68.0401C38.4928 68.4132 39.182 68.5675 39.857 68.6994C48.3541 70.4493 56.9501 71.7546 65.6044 72.6093C64.6671 71.768 64.3537 70.4638 64.4771 69.2585C64.6004 68.0532 65.1095 66.9139 65.6115 65.797C60.7136 64.7921 55.8279 63.7372 50.9546 62.6321C50.2271 62.4673 49.3536 62.1574 49.2643 61.4664C49.2189 61.1143 49.4061 60.7754 49.5904 60.4656C51.6689 56.9657 54.1612 53.6926 57.021 50.7073C57.021 54.4075 56.8239 58.5864 56.8239 62.288H102.783C102.23 60.176 101.905 58.0181 101.813 55.8462C101.599 48.757 104.165 41.7218 103.499 34.6471C103.436 33.9943 103.34 33.3218 102.973 32.7627C102.339 31.7974 101.074 31.3979 99.9111 31.0682C95.4528 29.8075 90.9009 28.5324 86.2412 28.6313C84.8558 28.6616 83.476 28.8119 82.0991 28.9636C77.9031 29.4238 73.4363 29.5174 69.2204 29.7772Z" fill="#EEE8F6"/>
<path d="M47.6959 72.306L51.0425 82.266C51.0639 82.3291 51.1064 82.3842 51.1638 82.4233C51.2211 82.4624 51.2904 82.4835 51.3616 82.4835H65.7221L62.3188 70.8792L47.9881 71.9038C47.9381 71.9076 47.8898 71.9218 47.8466 71.9453C47.8033 71.9689 47.7663 72.0011 47.7383 72.0397C47.7103 72.0783 47.6919 72.1223 47.6846 72.1684C47.6772 72.2144 47.6811 72.2615 47.6959 72.306Z" fill="#656478"/>
<path d="M72.2451 34.0602C71.6212 34.3939 70.8937 34.5139 70.1847 34.6286L65.6087 35.3671C64.7181 35.5108 63.7808 35.6743 63.0945 36.2216C61.6906 37.3385 61.9941 39.3943 62.4195 41.0664L63.2703 44.4211C63.9113 46.9425 64.5664 49.4941 65.8809 51.7781C68.1767 55.7644 72.3883 58.6352 77.0196 60.0185C78.6745 60.513 80.4229 60.8348 82.1501 60.6581C85.5336 60.3126 88.4278 58.0695 90.2117 55.3728C91.9956 52.6761 92.845 49.5482 93.6235 46.4651C94.3708 43.5139 95.0813 40.5205 95.033 37.4875C95.0189 36.5433 94.9168 35.557 94.3751 34.7565C93.1882 32.9987 90.4981 32.8668 88.2931 33.1912C87.9499 33.2427 87.594 33.2981 87.2636 33.2018C86.271 32.9143 86.2483 31.6471 85.8229 30.7675C85.0188 29.1086 82.6337 28.8145 80.6839 28.9649C78.7341 29.1152 75.698 29.309 73.9992 30.3363C72.3656 31.3187 74.1609 33.033 72.2451 34.0602Z" fill="#FBBEBE"/>
<path opacity="0.1" d="M72.2451 34.0602C71.6212 34.3939 70.8937 34.5139 70.1847 34.6286L65.6087 35.3671C64.7181 35.5108 63.7808 35.6743 63.0945 36.2216C61.6906 37.3385 61.9941 39.3943 62.4195 41.0664L63.2703 44.4211C63.9113 46.9425 64.5664 49.4941 65.8809 51.7781C68.1767 55.7644 72.3883 58.6352 77.0196 60.0185C78.6745 60.513 80.4229 60.8348 82.1501 60.6581C85.5336 60.3126 88.4278 58.0695 90.2117 55.3728C91.9956 52.6761 92.845 49.5482 93.6235 46.4651C94.3708 43.5139 95.0813 40.5205 95.033 37.4875C95.0189 36.5433 94.9168 35.557 94.3751 34.7565C93.1882 32.9987 90.4981 32.8668 88.2931 33.1912C87.9499 33.2427 87.594 33.2981 87.2636 33.2018C86.271 32.9143 86.2483 31.6471 85.8229 30.7675C85.0188 29.1086 82.6337 28.8145 80.6839 28.9649C78.7341 29.1152 75.698 29.309 73.9992 30.3363C72.3656 31.3187 74.1609 33.033 72.2451 34.0602Z" fill="black"/>
<path d="M68.4575 37.8396C69.1495 39.1899 69.6685 40.622 70.5052 41.8998C71.1702 42.9152 72.0225 43.8106 72.8705 44.7007C75.067 47.011 77.2919 49.3398 80.0103 51.0989C81.136 45.7209 83.8556 40.7425 87.862 36.7253C89.0333 35.5556 90.4996 34.4031 92.2183 34.4466C93.2846 34.4743 94.2688 34.9662 95.1565 35.5134C96.1491 36.124 97.0878 36.8321 97.8011 37.7117C98.9284 39.1121 99.4148 40.8857 99.5028 42.633C99.5907 44.3802 99.2986 46.1235 99.0093 47.851L97.5203 56.7798C97.4338 57.2967 97.3133 57.8677 96.8595 58.1776C96.6018 58.3294 96.3113 58.4267 96.0087 58.4625C90.596 59.4422 85.0174 58.8066 79.5027 58.7565C73.4051 58.7024 67.1387 59.3486 61.363 57.5446C61.061 57.4497 60.7476 57.3403 60.5434 57.1148C60.4093 56.9447 60.3129 56.7515 60.2598 56.5464C58.9141 52.4954 59.9932 48.1424 60.7916 43.9688C61.4237 40.6613 61.8738 37.326 62.1401 33.9758C62.1642 33.6739 65.732 34.3411 66.1305 34.5547C67.2153 35.1521 67.9357 36.8216 68.4575 37.8396Z" fill="#EEE8F6"/>
<path d="M77.7755 35.5385C84.3541 35.5385 89.6871 30.5792 89.6871 24.4616C89.6871 18.344 84.3541 13.3846 77.7755 13.3846C71.1969 13.3846 65.8639 18.344 65.8639 24.4616C65.8639 30.5792 71.1969 35.5385 77.7755 35.5385Z" fill="#FBBEBE"/>
<path d="M72.9371 2.72573C69.7593 3.10024 66.329 3.59474 64.0829 5.71782C62.8265 6.90463 62.0905 8.48705 61.485 10.0536C60.5463 12.4932 59.8472 15.0646 60.067 17.6532C60.2626 19.9688 61.1844 22.3372 60.4385 24.5552C60.0953 25.5758 59.4217 26.4673 58.8985 27.418C57.9285 29.1838 57.4719 31.1631 57.3046 33.1398C57.1883 34.4994 57.211 35.8985 57.6917 37.1868C58.2036 38.5583 59.2019 39.7253 59.8344 41.0519C60.7703 43.0114 60.8639 45.2163 60.9362 47.3591C61.0085 49.502 61.0695 51.6303 61.1234 53.7653C61.1574 55.1077 61.1603 56.5451 60.3619 57.6646C63.31 56.5662 66.2993 55.4453 68.822 53.6519C71.3447 51.8585 73.3866 49.2725 73.7128 46.3345C73.9765 43.953 73.1115 41.6057 72.3656 39.3139C70.5222 33.6435 69.331 27.5987 70.6725 21.8084C71.1561 19.7235 72.3316 17.3961 74.5877 17.0123C75.9646 16.7789 77.3387 17.3631 78.5795 17.9671C81.512 19.3939 84.5353 21.24 85.6272 24.1451C86.6198 26.7719 85.7846 29.698 84.4928 32.2062C83.2009 34.7143 81.4426 37.0207 80.4386 39.6422C78.8972 43.6642 79.3311 48.3732 81.8921 51.9165C84.4531 55.4598 89.1851 57.6396 93.7356 57.0673C93.3796 55.6378 92.2636 54.4827 91.6652 53.1244C90.5776 50.6572 91.3107 47.8194 92.4806 45.3851C93.6505 42.9508 95.2472 40.6813 95.9789 38.0967C96.4951 36.2769 96.5575 34.3754 96.5546 32.4936C96.5546 29.5319 96.3972 26.5688 96.0909 23.6202C95.7846 20.6717 95.3167 17.6862 94.307 14.8497C93.4959 12.575 92.3147 10.3754 90.5478 8.63079C88.6675 6.77277 86.2199 5.51343 83.8163 4.27914C82.3785 3.54332 80.9094 2.79826 79.2956 2.52266C78.0194 2.30507 76.6779 1.99518 75.3762 1.9754C74.4913 1.96354 73.5611 2.14156 72.9371 2.72573Z" fill="#272323"/>
<path d="M95.3565 17.0228L87.693 15.6401C87.4701 15.5999 87.2543 15.7353 87.211 15.9427L83.5394 33.5407C83.4962 33.748 83.6418 33.9487 83.8648 33.9889L91.5282 35.3716C91.7512 35.4118 91.967 35.2763 92.0103 35.069L95.6819 17.471C95.7251 17.2637 95.5794 17.063 95.3565 17.0228Z" fill="#656478"/>
<path d="M95.9357 17.1272L88.2723 15.7446C88.0493 15.7044 87.8335 15.8398 87.7902 16.0472L84.1186 33.6452C84.0754 33.8525 84.2211 34.0532 84.444 34.0934L92.1074 35.4761C92.3304 35.5163 92.5462 35.3808 92.5895 35.1735L96.2611 17.5755C96.3043 17.3682 96.1586 17.1675 95.9357 17.1272Z" fill="#3F3D56"/>
<path d="M91.8434 20.5127C91.9933 19.7941 91.8561 19.165 91.5371 19.1074C91.218 19.0499 90.8379 19.5857 90.6879 20.3042C90.538 21.0227 90.6752 21.6519 90.9942 21.7095C91.3133 21.767 91.6934 21.2312 91.8434 20.5127Z" fill="#EEE8F6"/>
<path d="M93.6576 26.5055C93.2832 25.8896 92.8833 25.2527 92.2523 24.8584C91.8896 24.6515 91.4997 24.4889 91.0923 24.3745C89.7183 23.9274 88.3215 23.4764 86.868 23.4052C86.6312 23.3947 86.3603 23.4052 86.2058 23.574C85.8881 23.9208 86.3915 24.3929 86.8269 24.6026L90.2897 26.2707L87.0977 25.9569C86.634 25.9107 85.9732 26.0281 86.0072 26.4606C86.0299 26.7441 86.3646 26.8984 86.6539 26.9881C88.7029 27.6474 91.0711 28.1644 92.1928 29.8892C90.6981 29.7573 89.1709 29.6255 87.7061 29.9314C87.3047 30.0158 86.8893 30.1463 86.6269 30.4404C86.3646 30.7345 86.3348 31.2316 86.6652 31.465C86.8694 31.6061 87.1445 31.6101 87.3998 31.5969C88.4392 31.5507 89.5056 31.3582 90.5039 31.6338C91.5022 31.9094 92.3884 32.8826 92.0439 33.7951C92.9287 33.869 93.9752 33.7951 94.7935 33.4404C95.6953 33.0448 95.6741 32.3011 95.6188 31.4044C95.5011 29.6479 94.5637 28.0087 93.6576 26.5055Z" fill="#FBBEBE"/>
<path opacity="0.1" d="M92.7628 55.2514C91.9693 50.0621 90.8806 44.9156 89.5013 39.8334C88.7923 37.1961 87.9869 34.5139 88.1896 31.8C91.1193 32.1468 93.7441 32.404 96.4441 31.291C96.488 32.7165 97.5998 33.9284 98.0039 35.3064C98.2748 36.2295 98.1727 37.2066 98.279 38.1574C98.3854 39.1082 98.7044 40.0299 98.9781 40.9543C100.336 45.535 100.656 50.3281 99.9183 55.0299C97.4126 55.3068 95.2628 55.6114 92.7628 55.2514Z" fill="black"/>
<path d="M92.3374 55.2514C91.5438 50.0621 90.4551 44.9156 89.0759 39.8334C88.3669 37.1961 87.5614 34.5139 87.7642 31.8C90.6939 32.1468 93.3187 32.404 96.0186 31.291C96.0626 32.7165 97.1743 33.9284 97.5785 35.3064C97.8493 36.2295 97.7472 37.2066 97.8536 38.1574C97.9599 39.1082 98.279 40.0299 98.5527 40.9543C99.9106 45.535 100.231 50.3281 99.4928 55.0299C96.9871 55.3068 94.8374 55.6114 92.3374 55.2514Z" fill="#EEE8F6"/>
<path d="M51.3474 80.9367L52.7357 48.9098C52.7578 48.4008 52.9922 47.9197 53.3893 47.5686C53.7864 47.2176 54.3149 47.0242 54.8627 47.0294L109.673 47.5173C109.963 47.5201 110.25 47.5787 110.515 47.6894C110.78 47.8001 111.017 47.9605 111.212 48.1606C111.408 48.3607 111.556 48.5962 111.649 48.8522C111.741 49.1082 111.776 49.3792 111.75 49.6483L108.855 80.3301C108.809 80.8125 108.573 81.2623 108.192 81.5925C107.811 81.9227 107.312 82.1099 106.792 82.1182L53.4901 82.9753C53.2031 82.9799 52.9182 82.9299 52.6528 82.8284C52.3873 82.727 52.147 82.5762 51.9464 82.3853C51.7458 82.1945 51.5892 81.9675 51.4862 81.7184C51.3832 81.4693 51.336 81.2033 51.3474 80.9367Z" fill="#3F3D56"/>
<path d="M81.9588 64.2198C83.2901 64.2198 84.3694 63.039 84.3694 61.5824C84.3694 60.1259 83.2901 58.9451 81.9588 58.9451C80.6274 58.9451 79.5481 60.1259 79.5481 61.5824C79.5481 63.039 80.6274 64.2198 81.9588 64.2198Z" fill="#EEE8F6"/>
<path d="M133.505 59.7705L133.391 60.6751L131.548 75.294C126.742 78.4101 123.004 75.4153 122.971 75.294L120.649 60.6065L120.517 59.7705H133.505Z" fill="#3F3D56"/>
<path opacity="0.1" d="M133.505 59.7705L133.391 60.6751C127.977 63.6026 122.201 61.3239 120.649 60.6065L120.517 59.7705H133.505Z" fill="black"/>
<path d="M120.246 58.9767V60.2954C120.246 60.2954 127.407 64.167 133.859 60.2954V58.9767H120.246Z" fill="#EEE8F6"/>
<path d="M121.078 57.2347C121.078 57.2347 120.87 58.1248 120.246 58.2027V59.3249H133.859V58.3187C133.859 58.3187 133.027 58.1249 133.15 57.2347H121.078Z" fill="#EEE8F6"/>
<path d="M127.011 58.9767C130.403 58.9767 133.152 58.2399 133.152 57.331C133.152 56.4221 130.403 55.6853 127.011 55.6853C123.62 55.6853 120.871 56.4221 120.871 57.331C120.871 58.2399 123.62 58.9767 127.011 58.9767Z" fill="#EEE8F6"/>
<path opacity="0.1" d="M127.011 58.9767C130.403 58.9767 133.152 58.2399 133.152 57.331C133.152 56.4221 130.403 55.6853 127.011 55.6853C123.62 55.6853 120.871 56.4221 120.871 57.331C120.871 58.2399 123.62 58.9767 127.011 58.9767Z" fill="black"/>
<path opacity="0.1" d="M132.401 57.2347C132.401 57.8941 130.073 58.4347 127.199 58.4347H127.045C125.115 58.4215 123.448 58.171 122.597 57.7965C122.213 57.6277 121.994 57.4365 121.994 57.2347C121.994 56.8998 122.59 56.5965 123.554 56.3789C124.752 56.1353 125.976 56.0198 127.203 56.0347C130.073 56.0347 132.401 56.5714 132.401 57.2347Z" fill="black"/>
<path opacity="0.1" d="M127.045 58.4348C125.115 58.4216 123.448 58.171 122.597 57.7965L123.55 56.3737L127.045 58.4348Z" fill="black"/>
<path opacity="0.1" d="M121.607 57.3271C121.533 57.3126 121.436 57.3363 121.421 57.4049C121.42 57.4398 121.43 57.4744 121.45 57.5038C121.612 57.7428 121.849 57.9308 122.128 58.0431C122.175 58.0681 122.228 58.0838 122.282 58.0893C122.311 58.0924 122.339 58.0876 122.365 58.0753C122.39 58.0631 122.411 58.0441 122.424 58.0207C122.432 58.0008 122.435 57.9795 122.433 57.9584C122.432 57.9372 122.425 57.9167 122.414 57.8981C122.371 57.8268 122.311 57.7655 122.238 57.7187C122.048 57.5803 121.854 57.3653 121.607 57.3271Z" fill="black"/>
<path d="M127.218 71.4224C129.241 71.4224 130.881 69.8974 130.881 68.0163C130.881 66.1351 129.241 64.6101 127.218 64.6101C125.196 64.6101 123.556 66.1351 123.556 68.0163C123.556 69.8974 125.196 71.4224 127.218 71.4224Z" fill="#EEE8F6"/>
<path d="M27.4817 68.0242H29.1989C30.1392 68.0242 31.0409 68.3715 31.7057 68.9898C32.3706 69.608 32.7441 70.4465 32.7441 71.3209V76.2198H23.9366V71.3209C23.9366 70.4465 24.3101 69.608 24.9749 68.9898C25.6398 68.3715 26.5415 68.0242 27.4817 68.0242Z" fill="#3F3D56"/>
<path opacity="0.1" d="M27.4817 68.0242H29.1989C30.1392 68.0242 31.0409 68.3715 31.7057 68.9898C32.3706 69.608 32.7441 70.4465 32.7441 71.3209V76.2198H23.9366V71.3209C23.9366 70.4465 24.3101 69.608 24.9749 68.9898C25.6398 68.3715 26.5415 68.0242 27.4817 68.0242Z" fill="black"/>
<path d="M27.988 69.8269C28.3772 69.8269 28.6927 69.5335 28.6927 69.1715C28.6927 68.8095 28.3772 68.5161 27.988 68.5161C27.5987 68.5161 27.2832 68.8095 27.2832 69.1715C27.2832 69.5335 27.5987 69.8269 27.988 69.8269Z" fill="#3F3D56"/>
<path d="M27.988 69.0079C28.3772 69.0079 28.6927 68.7145 28.6927 68.3525C28.6927 67.9906 28.3772 67.6971 27.988 67.6971C27.5987 67.6971 27.2832 67.9906 27.2832 68.3525C27.2832 68.7145 27.5987 69.0079 27.988 69.0079Z" fill="#3F3D56"/>
<path d="M27.988 68.1877C28.3772 68.1877 28.6927 67.8943 28.6927 67.5323C28.6927 67.1704 28.3772 66.877 27.988 66.877C27.5987 66.877 27.2832 67.1704 27.2832 67.5323C27.2832 67.8943 27.5987 68.1877 27.988 68.1877Z" fill="#3F3D56"/>
<path d="M27.988 67.3688C28.3772 67.3688 28.6927 67.0753 28.6927 66.7134C28.6927 66.3514 28.3772 66.058 27.988 66.058C27.5987 66.058 27.2832 66.3514 27.2832 66.7134C27.2832 67.0753 27.5987 67.3688 27.988 67.3688Z" fill="#3F3D56"/>
<path d="M27.988 66.5499C28.3772 66.5499 28.6927 66.2565 28.6927 65.8945C28.6927 65.5326 28.3772 65.2391 27.988 65.2391C27.5987 65.2391 27.2832 65.5326 27.2832 65.8945C27.2832 66.2565 27.5987 66.5499 27.988 66.5499Z" fill="#3F3D56"/>
<path d="M27.988 65.7309C28.3772 65.7309 28.6927 65.4375 28.6927 65.0755C28.6927 64.7136 28.3772 64.4202 27.988 64.4202C27.5987 64.4202 27.2832 64.7136 27.2832 65.0755C27.2832 65.4375 27.5987 65.7309 27.988 65.7309Z" fill="#3F3D56"/>
<path d="M27.988 64.9121C28.3772 64.9121 28.6927 64.6187 28.6927 64.2567C28.6927 63.8947 28.3772 63.6013 27.988 63.6013C27.5987 63.6013 27.2832 63.8947 27.2832 64.2567C27.2832 64.6187 27.5987 64.9121 27.988 64.9121Z" fill="#3F3D56"/>
<path d="M29.0458 65.2391C29.4351 65.2391 29.7506 64.9457 29.7506 64.5837C29.7506 64.2218 29.4351 63.9283 29.0458 63.9283C28.6566 63.9283 28.3411 64.2218 28.3411 64.5837C28.3411 64.9457 28.6566 65.2391 29.0458 65.2391Z" fill="#3F3D56"/>
<path d="M29.7506 64.9121C30.1398 64.9121 30.4554 64.6187 30.4554 64.2567C30.4554 63.8947 30.1398 63.6013 29.7506 63.6013C29.3614 63.6013 29.0458 63.8947 29.0458 64.2567C29.0458 64.6187 29.3614 64.9121 29.7506 64.9121Z" fill="#3F3D56"/>
<path d="M30.4553 64.5837C30.8446 64.5837 31.1601 64.2903 31.1601 63.9283C31.1601 63.5664 30.8446 63.2729 30.4553 63.2729C30.0661 63.2729 29.7506 63.5664 29.7506 63.9283C29.7506 64.2903 30.0661 64.5837 30.4553 64.5837Z" fill="#3F3D56"/>
<path d="M27.988 64.0932C28.3772 64.0932 28.6927 63.7998 28.6927 63.4379C28.6927 63.0759 28.3772 62.7825 27.988 62.7825C27.5987 62.7825 27.2832 63.0759 27.2832 63.4379C27.2832 63.7998 27.5987 64.0932 27.988 64.0932Z" fill="#3F3D56"/>
<path d="M27.988 63.2743C28.3772 63.2743 28.6927 62.9808 28.6927 62.6189C28.6927 62.2569 28.3772 61.9635 27.988 61.9635C27.5987 61.9635 27.2832 62.2569 27.2832 62.6189C27.2832 62.9808 27.5987 63.2743 27.988 63.2743Z" fill="#3F3D56"/>
<path d="M27.988 62.4541C28.3772 62.4541 28.6927 62.1607 28.6927 61.7987C28.6927 61.4367 28.3772 61.1433 27.988 61.1433C27.5987 61.1433 27.2832 61.4367 27.2832 61.7987C27.2832 62.1607 27.5987 62.4541 27.988 62.4541Z" fill="#3F3D56"/>
<path d="M27.988 61.6352C28.3772 61.6352 28.6927 61.3418 28.6927 60.9798C28.6927 60.6179 28.3772 60.3245 27.988 60.3245C27.5987 60.3245 27.2832 60.6179 27.2832 60.9798C27.2832 61.3418 27.5987 61.6352 27.988 61.6352Z" fill="#3F3D56"/>
<path d="M30.9091 58.8672C30.7347 58.891 30.5589 58.9081 30.383 58.9187C30.5471 58.7853 30.6993 58.6397 30.8382 58.4835C30.7401 58.2083 30.5966 57.9489 30.4128 57.7147C30.2381 57.806 30.045 57.8626 29.8456 57.8809C29.6712 57.9046 29.4953 57.9218 29.3195 57.9336C29.5506 57.7582 29.7662 57.4945 29.9931 57.2743C29.4687 56.8322 28.7927 56.5773 28.0853 56.5551C27.3779 56.5328 26.685 56.7446 26.1297 57.1528C25.5744 57.5609 25.1928 58.139 25.0527 58.7842C24.9126 59.4294 25.0232 60.0999 25.3647 60.6764C25.7062 61.2529 26.2565 61.6981 26.9178 61.9328C27.5791 62.1676 28.3084 62.1765 28.9762 61.9582C29.6439 61.7399 30.2067 61.3084 30.5646 60.7405C30.9224 60.1726 31.052 59.5051 30.9304 58.8567L30.9091 58.8672Z" fill="#EEE8F6"/>
<path d="M33.2645 62.1231C33.0847 62.2258 32.8819 62.2885 32.6718 62.3064C32.4973 62.3302 32.3215 62.3486 32.1457 62.3592C32.3326 62.2033 32.507 62.0349 32.6675 61.8554C32.2426 61.7524 31.7916 61.8005 31.4028 61.9902C31.0139 62.18 30.7152 62.4977 30.5649 62.8814C30.4146 63.2651 30.4237 63.6871 30.5902 64.065C30.7568 64.4428 31.0689 64.7493 31.4655 64.9246C31.8621 65.0998 32.3148 65.1311 32.735 65.0125C33.1552 64.8938 33.5126 64.6337 33.7376 64.283C33.9625 63.9323 34.0386 63.5162 33.9511 63.116C33.8637 62.7158 33.6188 62.3604 33.2645 62.1192V62.1231Z" fill="#EEE8F6"/>
<path d="M26.9315 65.2391C27.3207 65.2391 27.6363 64.9457 27.6363 64.5837C27.6363 64.2218 27.3207 63.9283 26.9315 63.9283C26.5423 63.9283 26.2267 64.2218 26.2267 64.5837C26.2267 64.9457 26.5423 65.2391 26.9315 65.2391Z" fill="#3F3D56"/>
<path d="M26.2267 64.9121C26.616 64.9121 26.9315 64.6187 26.9315 64.2567C26.9315 63.8947 26.616 63.6013 26.2267 63.6013C25.8375 63.6013 25.522 63.8947 25.522 64.2567C25.522 64.6187 25.8375 64.9121 26.2267 64.9121Z" fill="#3F3D56"/>
<path d="M25.522 64.5837C25.9112 64.5837 26.2267 64.2903 26.2267 63.9283C26.2267 63.5664 25.9112 63.2729 25.522 63.2729C25.1327 63.2729 24.8172 63.5664 24.8172 63.9283C24.8172 64.2903 25.1327 64.5837 25.522 64.5837Z" fill="#3F3D56"/>
<path d="M22.7128 62.1231C22.8926 62.2259 23.0954 62.2887 23.3056 62.3064C23.48 62.3302 23.6558 62.3486 23.8317 62.3592C23.6444 62.2036 23.47 62.0352 23.3098 61.8554C23.7348 61.7524 24.1857 61.8005 24.5746 61.9902C24.9634 62.18 25.2622 62.4977 25.4124 62.8814C25.5627 63.2651 25.5537 63.6871 25.3871 64.065C25.2206 64.4428 24.9085 64.7493 24.5118 64.9246C24.1152 65.0998 23.6626 65.1311 23.2424 65.0125C22.8222 64.8938 22.4647 64.6337 22.2398 64.283C22.0149 63.9323 21.9387 63.5162 22.0262 63.116C22.1137 62.7158 22.3585 62.3604 22.7128 62.1192V62.1231Z" fill="#EEE8F6"/>
<path d="M27.4817 68.5161H29.1989C30.1392 68.5161 31.0409 68.8634 31.7057 69.4817C32.3706 70.0999 32.7441 70.9385 32.7441 71.8128V76.1473C32.7441 76.2956 32.6807 76.4378 32.568 76.5427C32.4552 76.6475 32.3023 76.7064 32.1428 76.7064H24.5378C24.3784 76.7064 24.2254 76.6475 24.1127 76.5427C23.9999 76.4378 23.9366 76.2956 23.9366 76.1473V71.8128C23.9366 70.9385 24.3101 70.0999 24.9749 69.4817C25.6398 68.8634 26.5415 68.5161 27.4817 68.5161Z" fill="#3F3D56"/>
<g opacity="0.1">
<path opacity="0.1" d="M30.9623 59.0466C30.8912 59.1175 30.8156 59.1844 30.7361 59.2471C30.8167 59.2471 30.8958 59.2352 30.9764 59.2273C30.9792 59.1666 30.9693 59.106 30.9623 59.0466Z" fill="black"/>
<path opacity="0.1" d="M29.6783 58.2633C29.8555 58.2528 30.0299 58.2356 30.2058 58.2119C30.3635 58.1933 30.5177 58.1543 30.6638 58.0959C30.5924 57.9639 30.5099 57.8373 30.417 57.7174C30.3288 57.7673 30.2333 57.8051 30.1334 57.8295C29.9944 57.9852 29.8422 58.1302 29.6783 58.2633Z" fill="black"/>
<path opacity="0.1" d="M25.3462 59.6704C25.3451 59.1704 25.4891 58.6794 25.7629 58.2492C26.0367 57.8189 26.4302 57.4653 26.9019 57.2256C27.3737 56.9858 27.9063 56.8688 28.4436 56.8869C28.9808 56.905 29.5029 57.0575 29.9548 57.3284L30.0002 57.2835C29.7053 57.0395 29.3613 56.8522 28.9882 56.7323C28.6151 56.6125 28.2201 56.5625 27.8261 56.5852C27.4321 56.6079 27.0468 56.7029 26.6925 56.8647C26.3381 57.0265 26.0217 57.2519 25.7615 57.5279C25.5012 57.8039 25.3023 58.1251 25.1761 58.473C25.05 58.8208 24.9991 59.1885 25.0264 59.5547C25.0537 59.9209 25.1586 60.2785 25.3352 60.6068C25.5118 60.9351 25.7565 61.2277 26.0552 61.4677C25.5966 60.966 25.3452 60.3288 25.3462 59.6704Z" fill="black"/>
</g>
<g opacity="0.1">
<path opacity="0.1" d="M32.1457 62.6862C32.3215 62.6756 32.4973 62.6585 32.6718 62.6347C32.882 62.6163 33.0848 62.5532 33.2645 62.4501C33.4636 62.5865 33.6296 62.7603 33.7518 62.9602C33.8739 63.1601 33.9495 63.3817 33.9735 63.6106C33.9804 63.5532 33.9837 63.4955 33.9834 63.4378C33.9848 63.1817 33.9213 62.9289 33.7981 62.6998C33.675 62.4707 33.4956 62.2718 33.2744 62.1191C33.0946 62.2218 32.8918 62.2845 32.6817 62.3024L32.5399 62.3196C32.4189 62.4511 32.2871 62.5736 32.1457 62.6862Z" fill="black"/>
<path opacity="0.1" d="M32.2166 62.1271C32.2754 62.1277 32.3341 62.1317 32.3924 62.1389C32.4846 62.048 32.5753 61.9504 32.6675 61.8554C32.4068 61.7907 32.1336 61.7826 31.869 61.8318C31.6044 61.881 31.3555 61.9861 31.1416 62.1391C30.9277 62.2921 30.7546 62.4889 30.6356 62.7141C30.5166 62.9393 30.4549 63.1869 30.4554 63.4379C30.4554 63.4932 30.4554 63.5473 30.4639 63.6014C30.5075 63.1973 30.7109 62.8227 31.0348 62.5503C31.3587 62.2778 31.7799 62.127 32.2166 62.1271Z" fill="black"/>
</g>
<g opacity="0.1">
<path opacity="0.1" d="M23.8317 62.6862C23.6558 62.6756 23.48 62.6585 23.3056 62.6347C23.0953 62.6166 22.8924 62.5534 22.7128 62.4501C22.5137 62.5865 22.3477 62.7603 22.2256 62.9602C22.1034 63.1601 22.0279 63.3817 22.0038 63.6106C21.9969 63.5532 21.9936 63.4955 21.9939 63.4378C21.9926 63.1817 22.056 62.9289 22.1792 62.6998C22.3024 62.4707 22.4818 62.2718 22.7029 62.1191C22.8826 62.222 23.0855 62.2847 23.2956 62.3024L23.4374 62.3196C23.5577 62.4517 23.6896 62.5744 23.8317 62.6862Z" fill="black"/>
<path opacity="0.1" d="M23.7608 62.1271C23.7015 62.1277 23.6423 62.1317 23.5835 62.1389C23.4927 62.048 23.402 61.9504 23.3098 61.8554C23.5705 61.7907 23.8437 61.7826 24.1083 61.8318C24.3729 61.881 24.6218 61.9861 24.8357 62.1391C25.0496 62.2921 25.2227 62.4889 25.3417 62.7141C25.4607 62.9393 25.5224 63.1869 25.522 63.4379C25.522 63.4932 25.522 63.5473 25.5135 63.6014C25.4699 63.1973 25.2664 62.8227 24.9425 62.5503C24.6186 62.2778 24.1975 62.127 23.7608 62.1271Z" fill="black"/>
</g>
</g>
<defs>
<clipPath id="clip0_198_2275">
<rect width="162.224" height="84" fill="white" transform="translate(0.775696)"/>
</clipPath>
</defs>
</svg>
