<svg width="40" height="41" viewBox="0 0 40 41" fill="none" xmlns="http://www.w3.org/2000/svg">
<rect width="40" height="41" rx="10" fill="#F38E55"/>
<path d="M27.1875 13.9709L23.9844 11.3516L24.6505 14.5156L27.1875 13.9709Z" fill="white"/>
<path d="M24.4633 15.3448C24.4124 15.3556 24.36 15.3563 24.3088 15.3468C24.2577 15.3373 24.209 15.3178 24.1654 15.2894C24.1218 15.2611 24.0842 15.2244 24.0548 15.1815C24.0254 15.1386 24.0047 15.0903 23.9939 15.0394L23.1775 11.1953H13.6482C13.3333 11.1953 13.0313 11.3205 12.8087 11.5434C12.586 11.7662 12.4609 12.0684 12.4609 12.3836V29.8117C12.4609 30.1269 12.586 30.4291 12.8087 30.652C13.0313 30.8748 13.3333 31 13.6482 31H26.3127C26.6276 31 26.9296 30.8748 27.1522 30.652C27.3749 30.4291 27.5 30.1269 27.5 29.8117V14.6988L24.4633 15.3448ZM14.4398 14.3641H22.3551C22.46 14.3641 22.5607 14.4058 22.6349 14.4801C22.7091 14.5544 22.7508 14.6551 22.7508 14.7602C22.7508 14.8652 22.7091 14.966 22.6349 15.0402C22.5607 15.1145 22.46 15.1562 22.3551 15.1562H14.4398C14.3348 15.1562 14.2341 15.1145 14.1599 15.0402C14.0857 14.966 14.044 14.8652 14.044 14.7602C14.044 14.6551 14.0857 14.5544 14.1599 14.4801C14.2341 14.4058 14.3348 14.3641 14.4398 14.3641ZM14.4398 17.5328H23.5424C23.6473 17.5328 23.748 17.5745 23.8222 17.6488C23.8964 17.7231 23.9381 17.8239 23.9381 17.9289C23.9381 18.034 23.8964 18.1347 23.8222 18.209C23.748 18.2833 23.6473 18.325 23.5424 18.325H14.4398C14.3348 18.325 14.2341 18.2833 14.1599 18.209C14.0857 18.1347 14.044 18.034 14.044 17.9289C14.044 17.8239 14.0857 17.7231 14.1599 17.6488C14.2341 17.5745 14.3348 17.5328 14.4398 17.5328ZM17.6059 27.8313H14.4398C14.3348 27.8313 14.2341 27.7895 14.1599 27.7152C14.0857 27.641 14.044 27.5402 14.044 27.4352C14.044 27.3301 14.0857 27.2294 14.1599 27.1551C14.2341 27.0808 14.3348 27.0391 14.4398 27.0391H17.6059C17.7108 27.0391 17.8115 27.0808 17.8857 27.1551C17.9599 27.2294 18.0016 27.3301 18.0016 27.4352C18.0016 27.5402 17.9599 27.641 17.8857 27.7152C17.8115 27.7895 17.7108 27.8313 17.6059 27.8313ZM14.044 24.2664C14.044 24.1614 14.0857 24.0606 14.1599 23.9863C14.2341 23.912 14.3348 23.8703 14.4398 23.8703H23.5424C23.6473 23.8703 23.748 23.912 23.8222 23.9863C23.8964 24.0606 23.9381 24.1614 23.9381 24.2664C23.9381 24.3715 23.8964 24.4722 23.8222 24.5465C23.748 24.6208 23.6473 24.6625 23.5424 24.6625H14.4398C14.3348 24.6625 14.2341 24.6208 14.1599 24.5465C14.0857 24.4722 14.044 24.3715 14.044 24.2664ZM25.4052 25.7347L22.2391 28.9035C22.1649 28.9777 22.0642 29.0194 21.9593 29.0194C21.8544 29.0194 21.7537 28.9777 21.6795 28.9035L20.0964 27.3191C20.0243 27.2444 19.9844 27.1443 19.9853 27.0405C19.9862 26.9366 20.0279 26.8373 20.1012 26.7638C20.1746 26.6904 20.2739 26.6488 20.3777 26.6479C20.4814 26.6469 20.5814 26.6869 20.656 26.759L21.9593 28.0634L24.8456 25.1746C24.9202 25.1025 25.0202 25.0626 25.124 25.0635C25.2278 25.0644 25.327 25.106 25.4004 25.1795C25.4738 25.2529 25.5154 25.3523 25.5163 25.4561C25.5172 25.56 25.4773 25.66 25.4052 25.7347ZM25.5212 21.4938H14.4398C14.3348 21.4938 14.2341 21.452 14.1599 21.3777C14.0857 21.3035 14.044 21.2027 14.044 21.0977C14.044 20.9926 14.0857 20.8919 14.1599 20.8176C14.2341 20.7433 14.3348 20.7016 14.4398 20.7016H25.5212C25.6261 20.7016 25.7268 20.7433 25.801 20.8176C25.8752 20.8919 25.9169 20.9926 25.9169 21.0977C25.9169 21.2027 25.8752 21.3035 25.801 21.3777C25.7268 21.452 25.6261 21.4938 25.5212 21.4938Z" fill="white"/>
</svg>
