<svg width="250" height="250" viewBox="0 0 250 250" fill="none" xmlns="http://www.w3.org/2000/svg">
<rect width="250" height="250" rx="15" fill="white"/>
<path d="M104.467 101.996V67.4355H129.975C160.63 67.4355 181.215 90.2077 181.215 124.5C181.215 131.466 180.32 137.895 178.978 143.789L213.66 163.079C215.227 158.524 216.569 153.97 217.464 148.88L191.508 135.484L192.627 132.269L220.149 147.004L229.099 151.827L230.442 148.612L218.583 142.182C219.254 136.556 219.702 130.662 219.702 124.5C219.702 69.5788 182.334 31 128.856 31H67.9944V70.1146L42.0386 66.8997L104.467 101.996ZM67.9945 115.391L104.467 136.288V123.696L67.9945 103.067V115.391ZM138.702 175.135L130.423 170.58L129.08 173.795L142.058 180.761C139.149 181.297 136.017 181.564 132.884 181.564H104.467V155.042L67.9945 133.341V218H134.674C154.588 218 171.818 212.374 185.243 202.461L138.702 175.135ZM44.9475 115.927L104.467 151.023V140.039L67.9945 119.41L5.34254 83.778L4 86.9929L46.7376 111.373L44.9475 115.927ZM247 204.605L212.318 183.976L205.829 180.493L205.381 180.761C205.605 180.493 205.605 180.493 205.605 180.225L171.818 161.471C166.671 169.241 159.735 175.135 151.008 178.35L188.152 200.318C192.403 196.835 196.207 193.085 199.787 188.798L247 204.605Z" fill="url(#paint0_linear_314_155)"/>
<defs>
<linearGradient id="paint0_linear_314_155" x1="36.5" y1="207" x2="223.5" y2="21" gradientUnits="userSpaceOnUse">
<stop offset="0.140088" stop-color="#001A77"/>
<stop offset="0.928155" stop-color="#6C690E"/>
</linearGradient>
</defs>
</svg>
