<svg width="63" height="42" viewBox="0 0 63 42" fill="none" xmlns="http://www.w3.org/2000/svg">
<path d="M25.8743 15.8437V8.13111H32.4438C40.3386 8.13111 45.6402 13.2131 45.6402 20.8659C45.6402 22.4204 45.4097 23.8553 45.064 25.1706L53.9961 29.4753C54.3995 28.4589 54.7452 27.4425 54.9757 26.3066L48.2911 23.3172L48.5792 22.5997L55.6673 25.8881L57.9723 26.9642L58.3181 26.2468L55.2639 24.8119C55.4367 23.5563 55.552 22.241 55.552 20.8659C55.552 8.60942 45.9284 0 32.1556 0H16.4812V8.72899L9.7965 8.01154L25.8743 15.8437ZM16.4812 18.8331L25.8743 23.4965V20.6865L16.4812 16.0829V18.8331ZM34.6912 32.1658L32.559 31.1494L32.2132 31.8668L35.5556 33.4213C34.8064 33.5409 33.9997 33.6007 33.1929 33.6007H25.8743V27.6817L16.4812 22.8389V41.7318H33.6539C38.7827 41.7318 43.2199 40.4762 46.6775 38.2641L34.6912 32.1658ZM10.5457 18.9527L25.8743 26.7849V24.3336L16.4812 19.7299L0.34576 11.7782L0 12.4956L11.0067 17.9363L10.5457 18.9527ZM62.5824 38.7424L53.6503 34.1387L51.9792 33.3615L51.8639 33.4213C51.9215 33.3615 51.9215 33.3615 51.9215 33.3017L43.2199 29.1166C41.8945 30.8504 40.1081 32.1658 37.8606 32.8832L47.4267 37.7858C48.5216 37.0086 49.5012 36.1715 50.4232 35.2149L62.5824 38.7424Z" fill="url(#paint0_linear_198_3746)"/>
<defs>
<linearGradient id="paint0_linear_198_3746" x1="-6.90909e-06" y1="20.8659" x2="290.182" y2="20.8659" gradientUnits="userSpaceOnUse">
<stop/>
<stop offset="1" stop-color="#FFDD94"/>
</linearGradient>
</defs>
</svg>
