<svg width="196" height="229" viewBox="0 0 196 229" fill="none" xmlns="http://www.w3.org/2000/svg">
<path fill-rule="evenodd" clip-rule="evenodd" d="M97.8296 229C43.8002 229 0 226.403 0 223.199C0 219.997 43.8002 217.399 97.8296 217.399C151.859 217.399 195.66 219.997 195.66 223.199C195.66 226.403 151.859 229 97.8296 229Z" fill="#CBB7A4"/>
<path fill-rule="evenodd" clip-rule="evenodd" d="M95.0413 0L120.835 38.7467L168.471 47.0993L142.214 7.425L95.0413 0Z" fill="#2080F1"/>
<path fill-rule="evenodd" clip-rule="evenodd" d="M95.0413 0L94.3436 0.695996L167.774 47.7952L168.471 47.0993L95.0413 0Z" fill="#293439"/>
<path fill-rule="evenodd" clip-rule="evenodd" d="M94.3436 0.696045L120.138 39.4427L167.774 47.7953L141.516 8.12042L94.3436 0.696045Z" fill="#0253B3"/>
<path fill-rule="evenodd" clip-rule="evenodd" d="M148.488 35.9602L136.406 55.6866L100.852 32.4802C101.139 31.8187 105.858 25.1998 109.629 19.9511C112.202 16.3872 114.329 13.4574 114.329 13.4574C130.126 13.6658 141.538 21.1202 148.488 35.9602Z" fill="#18A4E0"/>
<path fill-rule="evenodd" clip-rule="evenodd" d="M121.849 14.169C119.463 13.7322 116.958 13.4918 114.329 13.4574C114.329 13.4574 112.202 16.3872 109.629 19.9511C105.858 25.1998 101.139 31.8187 100.852 32.4802L106.71 36.3032C111.532 28.8682 116.424 21.1822 121.849 14.169Z" fill="#23ADE8"/>
<path fill-rule="evenodd" clip-rule="evenodd" d="M143.322 44.3966C143.301 44.3333 143.28 44.2639 143.259 44.2013C138.575 28.6096 125.025 23.1793 116.639 21.2941C118.329 18.8675 120.059 16.4823 121.849 14.1689C119.539 13.7465 117.119 13.5074 114.581 13.4611C130.248 13.7452 141.575 21.199 148.488 35.9601L143.322 44.3966Z" fill="#18A4E0"/>
<path fill-rule="evenodd" clip-rule="evenodd" d="M116.639 21.2942C112.543 20.3735 109.679 20.2991 109.679 20.2991L109.629 19.9511C112.202 16.3872 114.329 13.4574 114.329 13.4574C114.346 13.4574 114.364 13.4574 114.382 13.458C114.391 13.458 114.398 13.458 114.406 13.4586C114.417 13.4586 114.426 13.4586 114.435 13.4586C114.444 13.4586 114.453 13.4593 114.462 13.4593C114.474 13.4593 114.486 13.4593 114.497 13.4599C114.507 13.4599 114.514 13.4599 114.524 13.4599C114.539 13.4605 114.555 13.4605 114.57 13.4612C114.573 13.4612 114.579 13.4612 114.581 13.4612C117.119 13.5075 119.539 13.7466 121.849 14.169C120.06 16.4823 118.329 18.8676 116.639 21.2942Z" fill="#23ADE8"/>
<path fill-rule="evenodd" clip-rule="evenodd" d="M96.7353 171.112H85.9125C81.9219 171.112 78.6873 167.882 78.6873 163.899V153.896C78.6873 149.913 81.9219 146.683 85.9125 146.683H96.7353C100.725 146.683 103.959 149.913 103.959 153.896V163.899C103.959 167.882 100.725 171.112 96.7353 171.112Z" fill="#72848F"/>
<path fill-rule="evenodd" clip-rule="evenodd" d="M103.474 166.828H79.1731C76.0927 166.828 73.5953 164.335 73.5953 161.259V138.123C73.5953 135.048 76.0927 132.555 79.1731 132.555H103.474C106.554 132.555 109.051 135.048 109.051 138.123V161.259C109.051 164.335 106.554 166.828 103.474 166.828Z" fill="#9FB0B8"/>
<path fill-rule="evenodd" clip-rule="evenodd" d="M141.758 77.3871C141.758 48.7849 117.875 25.752 88.9351 27.0851C63.2343 28.2687 42.319 49.0015 40.9606 74.6544C39.8247 96.1045 52.147 114.808 70.2458 123.135V136.463C70.2458 139.783 72.9419 142.476 76.2681 142.476H106.379C109.704 142.476 112.4 139.783 112.4 136.463V123.135C129.726 115.163 141.758 97.6836 141.758 77.3871Z" fill="#F9C839"/>
<path fill-rule="evenodd" clip-rule="evenodd" d="M104.22 139.616C99.689 139.616 93.0662 139.616 93.0662 139.616C93.0662 139.616 105.788 136.484 109.274 125.173V136.484C109.274 136.484 108.752 139.616 104.22 139.616Z" fill="#F8D331"/>
<path fill-rule="evenodd" clip-rule="evenodd" d="M51.3352 57.9212C58.9554 41.5647 75.183 31.9503 92.1334 31.9503C98.481 31.9503 104.934 33.3004 111.068 36.1501C110.374 36.1351 109.684 36.1275 108.993 36.1275C88.5552 36.1275 69.2253 42.7458 51.3352 57.9212Z" fill="#F8D331"/>
<path fill-rule="evenodd" clip-rule="evenodd" d="M75.057 145.239H106.486V144.665H75.057V145.239Z" fill="#72848F"/>
<path fill-rule="evenodd" clip-rule="evenodd" d="M75.057 147.329H106.486V146.753H75.057V147.329Z" fill="#72848F"/>
<path fill-rule="evenodd" clip-rule="evenodd" d="M75.057 149.416H106.486V148.841H75.057V149.416Z" fill="#72848F"/>
<path fill-rule="evenodd" clip-rule="evenodd" d="M75.057 151.504H106.486V150.929H75.057V151.504Z" fill="#72848F"/>
<path fill-rule="evenodd" clip-rule="evenodd" d="M75.057 153.592H106.486V153.017H75.057V153.592Z" fill="#72848F"/>
<path fill-rule="evenodd" clip-rule="evenodd" d="M75.057 155.681H106.486V155.106H75.057V155.681Z" fill="#72848F"/>
<path fill-rule="evenodd" clip-rule="evenodd" d="M75.057 157.769H106.486V157.194H75.057V157.769Z" fill="#72848F"/>
<path fill-rule="evenodd" clip-rule="evenodd" d="M75.057 159.857H106.486V159.282H75.057V159.857Z" fill="#72848F"/>
<path fill-rule="evenodd" clip-rule="evenodd" d="M75.057 161.946H106.486V161.37H75.057V161.946Z" fill="#72848F"/>
<path fill-rule="evenodd" clip-rule="evenodd" d="M75.057 164.033H106.486V163.458H75.057V164.033Z" fill="#72848F"/>
<path fill-rule="evenodd" clip-rule="evenodd" d="M101.78 164.152H95.4489C95.3837 164.152 95.3317 164.1 95.3317 164.035V164.033H103.057C102.675 164.109 102.251 164.152 101.78 164.152ZM104.562 163.458H95.3317V161.946H105.971C105.687 162.479 105.246 163.037 104.562 163.458ZM106.228 161.371H95.3318V159.857H106.486V159.282H95.3318V157.769H106.486V157.194H95.3318V155.681H106.486V155.106H95.3318V153.593H106.486V153.017H95.3318V151.505H106.486V150.929H95.3318V149.416H106.486V148.841H95.3318V147.329H106.486V146.753H95.3318V145.296C95.3318 145.276 95.3368 145.256 95.3462 145.239H106.486V145.128V160.222C106.485 160.242 106.459 160.738 106.228 161.371Z" fill="#738692"/>
<path fill-rule="evenodd" clip-rule="evenodd" d="M106.486 145.239H95.3459C95.3659 145.204 95.4036 145.18 95.4462 145.179L106.367 145.012C106.368 145.012 106.368 145.012 106.369 145.012C106.433 145.012 106.486 145.063 106.486 145.128V145.239Z" fill="#546470"/>
<path fill-rule="evenodd" clip-rule="evenodd" d="M95.3315 147.328H106.486V146.753H95.3315V147.328Z" fill="#546470"/>
<path fill-rule="evenodd" clip-rule="evenodd" d="M95.3315 149.416H106.486V148.841H95.3315V149.416Z" fill="#546470"/>
<path fill-rule="evenodd" clip-rule="evenodd" d="M95.3315 151.504H106.486V150.929H95.3315V151.504Z" fill="#546470"/>
<path fill-rule="evenodd" clip-rule="evenodd" d="M95.3315 153.592H106.486V153.017H95.3315V153.592Z" fill="#546470"/>
<path fill-rule="evenodd" clip-rule="evenodd" d="M95.3315 155.681H106.486V155.106H95.3315V155.681Z" fill="#546470"/>
<path fill-rule="evenodd" clip-rule="evenodd" d="M95.3315 157.769H106.486V157.193H95.3315V157.769Z" fill="#546470"/>
<path fill-rule="evenodd" clip-rule="evenodd" d="M95.3315 159.857H106.486V159.282H95.3315V159.857Z" fill="#546470"/>
<path fill-rule="evenodd" clip-rule="evenodd" d="M105.971 161.945H95.3315V161.37H106.228C106.161 161.553 106.077 161.748 105.971 161.945Z" fill="#546470"/>
<path fill-rule="evenodd" clip-rule="evenodd" d="M103.057 164.032H95.3315V163.458H104.562C104.153 163.709 103.657 163.913 103.057 164.032Z" fill="#546470"/>
<path fill-rule="evenodd" clip-rule="evenodd" d="M137.16 185.766H75.1259C74.4533 185.766 73.9079 185.221 73.9079 184.55V171.747C73.9079 171.076 74.4533 170.531 75.1259 170.531H137.16C137.832 170.531 138.378 171.076 138.378 171.747V184.55C138.378 185.221 137.832 185.766 137.16 185.766Z" fill="#E0D5CA"/>
<path fill-rule="evenodd" clip-rule="evenodd" d="M138.554 172.964H76.52C75.848 172.964 75.302 172.419 75.302 171.747C75.302 171.076 75.848 170.531 76.52 170.531H138.554C139.227 170.531 139.772 171.076 139.772 171.747C139.772 172.419 139.227 172.964 138.554 172.964Z" fill="#FCC497"/>
<path fill-rule="evenodd" clip-rule="evenodd" d="M138.554 183.404H76.52C75.848 183.404 75.302 182.86 75.302 182.187C75.302 181.517 75.848 180.973 76.52 180.973H138.554C139.227 180.973 139.772 181.517 139.772 182.187C139.772 182.86 139.227 183.404 138.554 183.404Z" fill="#FCC497"/>
<path fill-rule="evenodd" clip-rule="evenodd" d="M149.284 223.315H62.6613C61.9887 223.315 61.4439 222.771 61.4439 222.099V209.297C61.4439 208.626 61.9887 208.081 62.6613 208.081H149.284C149.956 208.081 150.502 208.626 150.502 209.297V222.099C150.502 222.771 149.956 223.315 149.284 223.315Z" fill="#D0CEC6"/>
<path fill-rule="evenodd" clip-rule="evenodd" d="M151.356 209.743H61.7906C61.5994 209.743 61.4439 209.587 61.4439 209.397V208.427C61.4439 208.236 61.5994 208.081 61.7906 208.081H151.356C151.546 208.081 151.701 208.236 151.701 208.427V209.397C151.701 209.587 151.546 209.743 151.356 209.743Z" fill="#0253B3"/>
<path fill-rule="evenodd" clip-rule="evenodd" d="M151.356 223.199H61.7906C61.5994 223.199 61.4439 223.044 61.4439 222.853V221.884C61.4439 221.693 61.5994 221.537 61.7906 221.537H151.356C151.546 221.537 151.701 221.693 151.701 221.884V222.853C151.701 223.044 151.546 223.199 151.356 223.199Z" fill="#0253B3"/>
<path fill-rule="evenodd" clip-rule="evenodd" d="M143.393 194.564H68.6792C68.0059 194.564 67.4612 194.019 67.4612 193.347V186.982C67.4612 186.311 68.0059 185.766 68.6792 185.766H143.393C144.065 185.766 144.61 186.311 144.61 186.982V193.347C144.61 194.019 144.065 194.564 143.393 194.564Z" fill="#E0D5CA"/>
<path fill-rule="evenodd" clip-rule="evenodd" d="M144.882 187.121H68.5839C68.3488 187.121 68.1583 186.93 68.1583 186.696V186.191C68.1583 185.957 68.3488 185.766 68.5839 185.766H144.882C145.117 185.766 145.307 185.957 145.307 186.191V186.696C145.307 186.93 145.117 187.121 144.882 187.121Z" fill="#D64A2C"/>
<path fill-rule="evenodd" clip-rule="evenodd" d="M144.882 194.546H68.5839C68.3488 194.546 68.1583 194.356 68.1583 194.121V193.617C68.1583 193.381 68.3488 193.19 68.5839 193.19H144.882C145.117 193.19 145.307 193.381 145.307 193.617V194.121C145.307 194.356 145.117 194.546 144.882 194.546Z" fill="#D64A2C"/>
<path fill-rule="evenodd" clip-rule="evenodd" d="M143.298 183.334H69.4163C69.2464 183.334 69.1085 183.473 69.1085 183.642V185.459C69.1085 185.628 69.2464 185.766 69.4163 185.766H143.298C143.47 185.766 143.607 185.628 143.607 185.459V183.642C143.607 183.473 143.47 183.334 143.298 183.334Z" fill="#D0CEC6"/>
<path fill-rule="evenodd" clip-rule="evenodd" d="M144.753 208.081H70.613C69.9404 208.081 69.395 207.537 69.395 206.865V197.269C69.395 196.598 69.9404 196.054 70.613 196.054H144.753C145.425 196.054 145.971 196.598 145.971 197.269V206.865C145.971 207.537 145.425 208.081 144.753 208.081Z" fill="#E0D5CA"/>
<path fill-rule="evenodd" clip-rule="evenodd" d="M145.756 208.081H70.613C69.9404 208.081 69.395 207.537 69.395 206.865C69.395 206.194 69.9404 205.649 70.613 205.649H145.756C146.428 205.649 146.974 206.194 146.974 206.865C146.974 207.537 146.428 208.081 145.756 208.081Z" fill="#18A4E0"/>
<path fill-rule="evenodd" clip-rule="evenodd" d="M145.756 196.996H70.613C69.9404 196.996 69.395 196.45 69.395 195.779C69.395 195.107 69.9404 194.564 70.613 194.564H145.756C146.428 194.564 146.974 195.107 146.974 195.779C146.974 196.45 146.428 196.996 145.756 196.996Z" fill="#18A4E0"/>
<path fill-rule="evenodd" clip-rule="evenodd" d="M106.661 185.766H44.6271C43.9544 185.766 43.4084 185.221 43.4084 184.55V171.747C43.4084 171.076 43.9544 170.531 44.6271 170.531H106.661C107.333 170.531 107.878 171.076 107.878 171.747V184.55C107.878 185.221 107.333 185.766 106.661 185.766Z" fill="#FCC497"/>
<path fill-rule="evenodd" clip-rule="evenodd" d="M119.985 223.315H32.1624C31.4898 223.315 30.9451 222.771 30.9451 222.099V209.297C30.9451 208.626 31.4898 208.081 32.1624 208.081H119.985C120.657 208.081 121.202 208.626 121.202 209.297V222.099C121.202 222.771 120.657 223.315 119.985 223.315Z" fill="#0253B3"/>
<path fill-rule="evenodd" clip-rule="evenodd" d="M112.893 194.564H38.1791C37.5071 194.564 36.9611 194.019 36.9611 193.347V186.982C36.9611 186.311 37.5071 185.766 38.1791 185.766H112.893C113.566 185.766 114.111 186.311 114.111 186.982V193.347C114.111 194.019 113.566 194.564 112.893 194.564Z" fill="#EF5936"/>
<path fill-rule="evenodd" clip-rule="evenodd" d="M112.481 183.334H39.2366C38.8906 183.334 38.6091 183.615 38.6091 183.96V185.139C38.6091 185.486 38.8906 185.766 39.2366 185.766H112.481C112.827 185.766 113.108 185.486 113.108 185.139V183.96C113.108 183.615 112.827 183.334 112.481 183.334Z" fill="#18A4E0"/>
<path fill-rule="evenodd" clip-rule="evenodd" d="M115.257 208.081H40.1136C39.441 208.081 38.8956 207.537 38.8956 206.865V195.779C38.8956 195.107 39.441 194.564 40.1136 194.564H115.257C115.93 194.564 116.475 195.107 116.475 195.779V206.865C116.475 207.537 115.93 208.081 115.257 208.081Z" fill="#18A4E0"/>
<path fill-rule="evenodd" clip-rule="evenodd" d="M41.8375 194.429H45.41V185.815H41.8375V194.429Z" fill="#F47B61"/>
<path fill-rule="evenodd" clip-rule="evenodd" d="M44.8865 208.002H52.5556V194.429H44.8865V208.002Z" fill="#FFFFFE"/>
<path fill-rule="evenodd" clip-rule="evenodd" d="M56.5663 205.914H57.1424V196.865H56.5663V205.914Z" fill="#FFFFFE"/>
<path fill-rule="evenodd" clip-rule="evenodd" d="M38.4969 217.566H103.91V215.84H38.4969V217.566Z" fill="#FFFFFE"/>
<path fill-rule="evenodd" clip-rule="evenodd" d="M48.4333 191.529H49.0094V188.049H48.4333V191.529Z" fill="#FFFFFE"/>
<path fill-rule="evenodd" clip-rule="evenodd" d="M45.1849 185.729H46.9126V183.293H45.1849V185.729Z" fill="#EACF3B"/>
<path fill-rule="evenodd" clip-rule="evenodd" d="M49.2514 183.061H50.9797V170.648H49.2514V183.061Z" fill="#D59968"/>
<path fill-rule="evenodd" clip-rule="evenodd" d="M56.3895 178.122H97.8691V176.397H56.3895V178.122Z" fill="#FFFFFE"/>
<path fill-rule="evenodd" clip-rule="evenodd" d="M158.549 194.76L154.462 199.664L160.582 201.552C160.582 201.552 164.871 202.528 164.943 200.448C164.971 199.65 164.479 196.744 162.853 193.716L158.549 194.76Z" fill="#0253B3"/>
<path fill-rule="evenodd" clip-rule="evenodd" d="M160.718 189.395C159.723 190.094 158.751 190.623 157.671 191.079C156.606 191.526 155.446 191.853 154.212 191.867C153.906 191.868 153.59 191.836 153.283 191.791C152.976 191.72 152.65 191.652 152.406 191.558C151.882 191.384 151.363 191.188 150.852 190.979C149.827 190.551 148.843 190.083 147.893 189.443C147.733 189.337 147.691 189.12 147.798 188.962C147.897 188.814 148.09 188.767 148.244 188.846L148.27 188.858C149.175 189.317 150.2 189.666 151.208 189.945C151.717 190.084 152.228 190.207 152.745 190.311C153.017 190.378 153.227 190.38 153.45 190.409C153.677 190.41 153.904 190.408 154.134 190.378C155.055 190.25 155.981 189.879 156.846 189.38C157.703 188.891 158.566 188.265 159.262 187.631L159.283 187.61C159.752 187.184 160.479 187.217 160.906 187.685C161.335 188.153 161.3 188.877 160.831 189.304L160.718 189.395Z" fill="#E0AE86"/>
<path fill-rule="evenodd" clip-rule="evenodd" d="M163.584 190.313C163.457 189.394 163.463 188.444 163.502 187.504C163.402 187.516 163.298 187.514 163.189 187.484C162.695 187.347 162.414 186.731 162.699 186.281L162.7 186.285L162.712 186.256L161.689 186.329C161.689 186.329 158.523 188.473 158.24 190.059C158.028 191.247 158.307 193.296 158.458 194.248C159.361 194.069 160.331 193.986 161.225 194.006L161.238 194.008C161.261 193.811 161.316 193.617 161.423 193.425C161.61 193.09 161.936 192.684 162.329 192.608C162.536 192.568 162.757 192.635 162.909 192.769C163.069 192.69 163.241 192.669 163.398 192.707L163.812 190.702C163.694 190.619 163.609 190.492 163.584 190.313Z" fill="#FCC497"/>
<path fill-rule="evenodd" clip-rule="evenodd" d="M161.308 188.028H163.132V181.063H161.308V188.028Z" fill="#F8CA85"/>
<path fill-rule="evenodd" clip-rule="evenodd" d="M159.406 180.614C158.939 182.397 159.334 184.046 161.121 184.512C162.908 184.978 164.734 183.911 165.203 182.127C165.67 180.342 164.6 178.517 162.813 178.052C161.026 177.585 159.873 178.83 159.406 180.614Z" fill="#F8CA85"/>
<path fill-rule="evenodd" clip-rule="evenodd" d="M161.109 184.234C161.109 184.234 163.722 180.5 163.541 180.452C162.684 180.228 159.257 179.335 159.257 179.335C159.257 179.335 160.93 175.923 165.25 178.323C167.949 179.824 168.36 183.908 166.888 185.31C166.005 186.153 161.109 184.234 161.109 184.234Z" fill="#3E3E47"/>
<path fill-rule="evenodd" clip-rule="evenodd" d="M147.587 197.867L148.905 198.202L149.387 207.384C149.398 207.561 149.262 207.714 149.085 207.724C148.921 207.735 148.777 207.619 148.749 207.461L146.83 197.04C146.738 196.538 147.07 196.057 147.573 195.964C147.681 195.945 147.789 195.945 147.892 195.961L147.994 195.979L158.899 197.838C159.683 197.972 160.211 198.716 160.077 199.499C159.943 200.282 159.198 200.809 158.413 200.675L158.293 200.65L147.587 197.867Z" fill="#0253B3"/>
<path fill-rule="evenodd" clip-rule="evenodd" d="M163.166 199.213L163.173 200.782C163.171 201.318 163.19 201.798 163.2 202.302L163.262 205.307L163.402 211.6L163.301 211.195L167.681 222.299C167.751 222.477 167.663 222.679 167.485 222.748C167.321 222.813 167.137 222.743 167.055 222.592L161.326 212.119C161.271 212.017 161.24 211.912 161.232 211.804L161.225 211.712L160.733 205.422L160.5 202.134L160.3 198.927C160.25 198.139 160.851 197.46 161.641 197.41C162.431 197.361 163.112 197.96 163.161 198.749L163.164 198.827L163.166 199.213Z" fill="#0253B3"/>
<path fill-rule="evenodd" clip-rule="evenodd" d="M164.647 186.937C165.509 188.299 166.304 189.652 167.038 191.095C167.399 191.82 167.747 192.551 168.016 193.395C168.081 193.611 168.143 193.83 168.182 194.091C168.214 194.347 168.276 194.632 168.125 195.105C168.053 195.329 167.84 195.627 167.559 195.772C167.346 195.875 167.23 195.883 167.058 195.931C166.759 195.987 166.566 195.972 166.323 195.987C164.625 195.926 163.114 195.613 161.556 195.324C160.012 195.017 158.485 194.676 156.959 194.307C156.772 194.261 156.657 194.074 156.703 193.887C156.745 193.71 156.92 193.599 157.096 193.624C158.633 193.848 160.181 194.045 161.724 194.205C163.253 194.348 164.842 194.505 166.269 194.419C166.412 194.395 166.616 194.38 166.695 194.348L166.75 194.333C166.636 194.38 166.555 194.518 166.536 194.555C166.505 194.655 166.523 194.537 166.479 194.414C166.448 194.293 166.39 194.138 166.328 193.987C166.064 193.366 165.683 192.711 165.287 192.075C164.484 190.805 163.576 189.543 162.652 188.349L162.642 188.336C162.23 187.802 162.329 187.034 162.864 186.621C163.4 186.209 164.168 186.307 164.581 186.843L164.647 186.937Z" fill="#FCC497"/>
<path fill-rule="evenodd" clip-rule="evenodd" d="M162.27 186.251C163.464 186.251 164.71 186.903 164.71 188.905C164.71 190.906 162.853 193.716 162.853 193.716H159.351L160.352 187.774L162.27 186.251Z" fill="#FCC497"/>
<path fill-rule="evenodd" clip-rule="evenodd" d="M163.512 186.36L163.119 185.533L161.617 186.164C161.617 186.164 160.941 187.622 161.006 187.6C161.072 187.578 163.512 186.36 163.512 186.36Z" fill="#E0AE86"/>
<path fill-rule="evenodd" clip-rule="evenodd" d="M161.267 186.099L160.81 186.164L159.873 187.512L160.309 187.382L161.289 186.599L161.267 186.099Z" fill="#E0AE86"/>
<path fill-rule="evenodd" clip-rule="evenodd" d="M162.853 193.716L158.549 194.76L158.305 192.994L163.293 192.885L162.853 193.716Z" fill="#FCC497"/>
<path fill-rule="evenodd" clip-rule="evenodd" d="M149.824 207.945C149.824 207.771 149.65 205.276 149.65 205.276L147.326 205.218L148.313 207.306C148.313 207.306 147.5 207.48 147.442 207.945C147.384 208.408 149.824 207.945 149.824 207.945Z" fill="#45908E"/>
<path fill-rule="evenodd" clip-rule="evenodd" d="M168.006 221.923C168.006 221.923 167.601 220.183 167.426 220.241C167.252 220.299 165.101 221.053 165.101 221.053L167.019 223.257C167.019 223.257 166.032 223.49 165.974 223.895C165.915 224.301 168.239 223.895 168.239 223.895L168.006 221.923Z" fill="#45908E"/>
<path fill-rule="evenodd" clip-rule="evenodd" d="M157.303 193.647L157.216 194.429L155.429 194.604C155.429 194.604 155.168 192.907 155.953 193.081C156.737 193.255 157.303 193.647 157.303 193.647Z" fill="#F8CA85"/>
<path fill-rule="evenodd" clip-rule="evenodd" d="M147.893 189.443C147.587 189.47 146.193 188.513 146.193 188.513C146.193 188.513 146.628 186.86 147.456 187.338C148.284 187.817 148.27 188.858 148.27 188.858L147.893 189.443Z" fill="#F8CA85"/>
<path fill-rule="evenodd" clip-rule="evenodd" d="M159.406 180.614C159.22 180.769 158.218 181.335 158.218 181.335L159.569 182.205L160.004 180.682L159.406 180.614Z" fill="#F8CA85"/>
<path fill-rule="evenodd" clip-rule="evenodd" d="M63.0844 151.504C63.8366 152.204 64.5725 152.732 65.3893 153.188C66.1942 153.635 67.0718 153.961 68.0046 153.976C68.2365 153.977 68.4748 153.945 68.7073 153.9C68.9399 153.83 69.1856 153.762 69.3705 153.667C69.7673 153.493 70.1591 153.299 70.5459 153.088C71.3213 152.66 72.0648 152.192 72.7832 151.553C72.9042 151.445 72.9368 151.229 72.8553 151.07C72.7801 150.923 72.6346 150.876 72.5174 150.954L72.4986 150.967C71.8141 151.426 71.0386 151.775 70.2764 152.054C69.8915 152.193 69.5047 152.317 69.1142 152.42C68.9092 152.486 68.7493 152.49 68.5807 152.517C68.4102 152.52 68.2378 152.517 68.0648 152.487C67.3671 152.359 66.6681 151.989 66.0131 151.489C65.3649 151 64.7129 150.374 64.187 149.74L64.1695 149.719C63.8147 149.292 63.2655 149.325 62.9421 149.793C62.6199 150.261 62.6449 150.987 62.9991 151.413L63.0844 151.504Z" fill="#0B4D9A"/>
<path fill-rule="evenodd" clip-rule="evenodd" d="M61.0352 152.9C61.1612 151.982 61.1562 151.032 61.1173 150.092C61.2157 150.105 61.3198 150.102 61.4295 150.072C61.9253 149.935 62.2049 149.319 61.9197 148.869L61.9191 148.872L61.9065 148.844L62.9302 148.916C62.9302 148.916 64.7011 149.668 64.9844 151.255C65.1969 152.443 66.3128 155.884 66.1598 156.836C65.2578 156.656 64.288 156.573 63.3947 156.593L63.3809 156.596C63.3577 156.397 63.3026 156.204 63.196 156.013C63.0086 155.678 62.6839 155.271 62.2896 155.196C62.0827 155.156 61.8614 155.223 61.7103 155.356C61.5492 155.276 61.3793 155.256 61.2214 155.295L60.8064 153.289C60.9242 153.207 61.0108 153.079 61.0352 152.9Z" fill="#0B4D9A"/>
<path fill-rule="evenodd" clip-rule="evenodd" d="M61.4871 150.616H63.3113V143.651H61.4871V150.616Z" fill="#F8CA85"/>
<path fill-rule="evenodd" clip-rule="evenodd" d="M65.2133 143.2C65.6803 144.985 65.2847 146.633 63.4982 147.1C61.711 147.566 59.8837 146.498 59.4167 144.713C58.9497 142.93 60.0197 141.106 61.8063 140.639C63.5935 140.172 64.7456 141.418 65.2133 143.2Z" fill="#F8CA85"/>
<path fill-rule="evenodd" clip-rule="evenodd" d="M64.0047 165.326C64.0918 165.196 67.5333 162.585 67.5333 162.585L66.7064 162.15L63.8743 160.324L62.4795 162.673L64.0918 165.152" fill="#1C2331"/>
<path fill-rule="evenodd" clip-rule="evenodd" d="M63.4549 160.426L74.3598 158.567L74.4576 158.55C74.9616 158.464 75.4399 158.802 75.5258 159.305C75.5446 159.414 75.5421 159.525 75.5239 159.628L73.6038 170.049C73.5718 170.223 73.4038 170.34 73.229 170.307C73.0672 170.278 72.9556 170.132 72.9657 169.972L73.6032 159.394L74.7667 160.455L64.0605 163.237C63.29 163.437 62.5027 162.976 62.3021 162.207C62.1021 161.438 62.5641 160.653 63.3339 160.452L63.4549 160.426Z" fill="#1C2331"/>
<path fill-rule="evenodd" clip-rule="evenodd" d="M64.3168 161.49C64.3168 161.657 64.3105 162.301 64.2886 162.472L64.2359 163.243L64.1225 164.772L63.8855 167.824L63.3947 173.919L63.3878 174.009C63.3784 174.126 63.3414 174.238 63.2881 174.334L57.5623 184.471C57.4683 184.638 57.2571 184.697 57.0903 184.603C56.9367 184.516 56.8747 184.33 56.9392 184.171L61.3229 173.388L61.2163 173.803L61.358 167.697L61.4201 164.646L61.4451 163.124L61.4545 162.37C61.447 162.03 61.4715 162.166 61.4564 161.825L61.4445 161.553C61.4088 160.762 62.0231 160.092 62.8161 160.056C63.6091 160.021 64.2798 160.634 64.3155 161.425L64.3168 161.49Z" fill="#1C2331"/>
<path fill-rule="evenodd" clip-rule="evenodd" d="M60.8434 149.437C59.9814 150.8 59.1853 152.153 58.4525 153.597C58.0908 154.321 57.7429 155.051 57.474 155.896C57.4094 156.112 57.3467 156.33 57.3072 156.593C57.2765 156.848 57.2151 157.134 57.3655 157.606C57.4364 157.83 57.6489 158.128 57.931 158.274C58.1447 158.375 58.2613 158.384 58.4324 158.431C58.7321 158.488 58.9239 158.473 59.1671 158.488C60.8653 158.426 62.3767 158.114 63.9338 157.825C65.4778 157.517 67.0048 157.177 68.5312 156.808C68.7186 156.762 68.8334 156.574 68.7882 156.387C68.7456 156.21 68.5707 156.099 68.3952 156.124C66.8575 156.348 65.3098 156.546 63.7664 156.705C62.2363 156.848 60.6478 157.005 59.221 156.92C59.0775 156.895 58.8738 156.881 58.7948 156.848L58.7402 156.834C58.8543 156.881 58.9358 157.018 58.9534 157.056C58.986 157.155 58.9672 157.038 59.0123 156.915C59.0418 156.794 59.1001 156.639 59.1621 156.488C59.426 155.867 59.8072 155.211 60.204 154.576C61.0063 153.305 61.9153 152.044 62.838 150.85L62.8481 150.836C63.2605 150.303 63.1615 149.534 62.6262 149.122C62.0908 148.71 61.3223 148.809 60.9092 149.344L60.8434 149.437Z" fill="#0253B3"/>
<path fill-rule="evenodd" clip-rule="evenodd" d="M62.3491 148.839C61.1555 148.839 59.9087 149.491 59.9087 151.492C59.9087 153.493 61.7673 156.304 61.7673 156.304H65.2677L64.266 150.361L62.3491 148.839Z" fill="#0253B3"/>
<path fill-rule="evenodd" clip-rule="evenodd" d="M74.04 169.894L74.0826 169.805C73.578 169.803 73.0747 169.822 72.5713 169.828C72.5468 170.192 72.5299 170.477 72.5299 170.531C72.5299 170.531 74.9697 170.995 74.9114 170.531C74.8537 170.068 74.04 169.894 74.04 169.894Z" fill="#EFF2F4"/>
<path fill-rule="evenodd" clip-rule="evenodd" d="M57.5993 185.108L57.7723 184.917C57.358 184.829 56.9549 184.722 56.5581 184.588L56.5192 184.583L56.3795 185.729C56.3795 185.729 58.7039 186.121 58.6456 185.729C58.5873 185.334 57.5993 185.108 57.5993 185.108Z" fill="#EFF2F4"/>
<path fill-rule="evenodd" clip-rule="evenodd" d="M68.1871 156.147L68.2748 156.93L70.0608 157.104C70.0608 157.104 70.3228 155.407 69.538 155.582C68.7538 155.755 68.1871 156.147 68.1871 156.147Z" fill="#F8CA85"/>
<path fill-rule="evenodd" clip-rule="evenodd" d="M72.7833 151.553C73.0152 151.58 74.0696 150.622 74.0696 150.622C74.0696 150.622 73.7399 148.969 73.1136 149.448C72.488 149.926 72.4987 150.967 72.4987 150.967L72.7833 151.553Z" fill="#F8CA85"/>
<path fill-rule="evenodd" clip-rule="evenodd" d="M65.2132 143.244C65.3987 143.4 66.4004 143.965 66.4004 143.965L65.0502 144.837L64.6145 143.314L65.2132 143.244Z" fill="#F8CA85"/>
<path fill-rule="evenodd" clip-rule="evenodd" d="M59.1973 141.646C59.1973 141.646 61.1142 139.732 63.5546 140.195C65.9943 140.66 64.3093 142.516 63.4386 143.27C62.5667 144.023 60.4171 146.403 60.4171 146.403C60.4171 146.403 56.9318 143.908 59.1973 141.646Z" fill="#1C2331"/>
<path fill-rule="evenodd" clip-rule="evenodd" d="M61.3906 147.011C61.5128 147.056 61.6952 142.531 61.6952 142.531L58.8198 144.531C58.8198 144.531 59.3859 146.271 61.3906 147.011Z" fill="#1C2331"/>
<path fill-rule="evenodd" clip-rule="evenodd" d="M60.2572 152.71C60.3011 152.815 60.4754 160.95 60.4754 160.95C60.4754 160.95 62.7408 161.16 64.7455 160.846C66.749 160.53 67.5777 159.723 67.5777 159.723L65.6608 154.043L60.2572 152.71Z" fill="#0253B3"/>
<path fill-rule="evenodd" clip-rule="evenodd" d="M61.3474 148.969L61.4339 148.012L63.5251 148.36L63.4818 150.143L61.5642 149.447L61.3474 148.969Z" fill="#0253B3"/>
</svg>
