<svg width="291" height="42" viewBox="0 0 291 42" fill="none" xmlns="http://www.w3.org/2000/svg">
<g clip-path="url(#clip0_198_3745)">
<path d="M38.8743 15.8437V8.13111H45.4438C53.3386 8.13111 58.6402 13.2131 58.6402 20.8659C58.6402 22.4204 58.4097 23.8553 58.064 25.1706L66.9961 29.4753C67.3995 28.4589 67.7452 27.4425 67.9757 26.3066L61.2911 23.3172L61.5792 22.5997L68.6673 25.8881L70.9723 26.9642L71.3181 26.2468L68.2639 24.8119C68.4367 23.5563 68.552 22.241 68.552 20.8659C68.552 8.60942 58.9284 0 45.1556 0H29.4812V8.72899L22.7965 8.01154L38.8743 15.8437ZM29.4812 18.8331L38.8743 23.4965V20.6865L29.4812 16.0829V18.8331ZM47.6912 32.1658L45.559 31.1494L45.2132 31.8668L48.5556 33.4213C47.8064 33.5409 46.9997 33.6007 46.1929 33.6007H38.8743V27.6817L29.4812 22.8389V41.7318H46.6539C51.7827 41.7318 56.2199 40.4762 59.6775 38.2641L47.6912 32.1658ZM23.5457 18.9527L38.8743 26.7849V24.3336L29.4812 19.7299L13.3458 11.7782L13 12.4956L24.0067 17.9363L23.5457 18.9527ZM75.5824 38.7424L66.6503 34.1387L64.9792 33.3615L64.8639 33.4213C64.9215 33.3615 64.9215 33.3615 64.9215 33.3017L56.2199 29.1166C54.8945 30.8504 53.1081 32.1658 50.8606 32.8832L60.4267 37.7858C61.5216 37.0086 62.5012 36.1715 63.4232 35.2149L75.5824 38.7424Z" fill="url(#paint0_linear_198_3745)"/>
<path d="M88.6698 22.9665C88.9363 22.9916 89.2452 23.0104 89.5965 23.023C89.9479 23.0356 90.3658 23.0418 90.8504 23.0418C93.6853 23.0418 95.7872 22.301 97.1562 20.8194C98.5252 19.3378 99.2097 17.2911 99.2097 14.6794C99.2097 11.9422 98.5555 9.87038 97.2471 8.46409C95.9387 7.05779 93.867 6.35465 91.0322 6.35465C90.6445 6.35465 90.2447 6.36092 89.8328 6.37348C89.4209 6.38604 89.0332 6.41742 88.6698 6.46765V22.9665ZM105.061 14.6794C105.061 16.9395 104.722 18.9109 104.044 20.5934C103.365 22.2759 102.402 23.6697 101.154 24.7746C99.9063 25.8796 98.3859 26.7083 96.5929 27.2607C94.7999 27.8132 92.7888 28.0894 90.5597 28.0894C89.542 28.0894 88.3548 28.0455 86.9979 27.9576C85.641 27.8697 84.3084 27.6876 83 27.4114V1.9851C84.3084 1.73397 85.6713 1.56446 87.0888 1.47656C88.5062 1.38867 89.7237 1.34473 90.7414 1.34473C92.8978 1.34473 94.8544 1.59584 96.611 2.0981C98.3677 2.60034 99.876 3.39139 101.136 4.47122C102.396 5.55105 103.365 6.93224 104.044 8.61477C104.722 10.2973 105.061 12.3188 105.061 14.6794Z" fill="url(#paint1_linear_198_3745)"/>
<path d="M117.164 1.34474C120.944 1.34474 123.839 2.0416 125.85 3.43534C127.861 4.82908 128.867 6.99504 128.867 9.93319C128.867 11.7664 128.461 13.2543 127.649 14.3969C126.838 15.5395 125.669 16.4373 124.142 17.0902C124.651 17.7431 125.184 18.4902 125.741 19.3315C126.299 20.1728 126.85 21.0517 127.395 21.9683C127.94 22.8849 128.467 23.8392 128.976 24.8311C129.485 25.8231 129.957 26.7962 130.393 27.7504H124.033C123.573 26.8966 123.106 26.0302 122.634 25.1513C122.161 24.2724 121.677 23.4186 121.18 22.5898C120.683 21.7611 120.193 20.9764 119.708 20.2356C119.223 19.4947 118.739 18.823 118.254 18.2203H115.456V27.7504H109.786V2.02278C111.022 1.77165 112.3 1.59586 113.62 1.49541C114.941 1.39496 116.122 1.34474 117.164 1.34474ZM117.491 6.35466C117.079 6.35466 116.71 6.36722 116.382 6.39233C116.055 6.41744 115.746 6.44256 115.456 6.46767V13.5494H117.055C119.187 13.5494 120.714 13.2731 121.634 12.7207C122.555 12.1682 123.015 11.2265 123.015 9.89551C123.015 8.61478 122.549 7.70445 121.616 7.16453C120.683 6.62462 119.308 6.35466 117.491 6.35466Z" fill="url(#paint2_linear_198_3745)"/>
<path d="M134.028 1.646H139.698V27.7504H134.028V1.646Z" fill="url(#paint3_linear_198_3745)"/>
<path d="M153 27.7504C152.006 25.5656 151.025 23.2929 150.056 20.9323C149.087 18.5718 148.166 16.2363 147.294 13.926C146.421 11.6156 145.616 9.40574 144.877 7.2963C144.138 5.18685 143.502 3.30342 142.969 1.646H149.22C149.704 3.15274 150.231 4.77878 150.801 6.52409C151.37 8.26941 151.952 10.0084 152.545 11.7412C153.139 13.474 153.714 15.1314 154.272 16.7135C154.829 18.2955 155.35 19.6642 155.835 20.8193C156.295 19.6642 156.81 18.2955 157.379 16.7135C157.949 15.1314 158.53 13.474 159.124 11.7412C159.717 10.0084 160.299 8.26941 160.868 6.52409C161.438 4.77878 161.965 3.15275 162.449 1.646H168.482C167.925 3.30342 167.283 5.18685 166.556 7.2963C165.829 9.40574 165.03 11.6156 164.157 13.926C163.285 16.2363 162.364 18.5718 161.395 20.9323C160.426 23.2929 159.445 25.5656 158.451 27.7504H153Z" fill="url(#paint4_linear_198_3745)"/>
<path d="M171.753 27.7503V1.646H188.763V6.58059H177.423V11.7035H187.491V16.5251H177.423V22.8158H189.599V27.7504L171.753 27.7503Z" fill="url(#paint5_linear_198_3745)"/>
<path d="M203.682 27.7503V1.646H218.22V3.86845H206.154V12.9466H216.912V15.1314H206.154V25.5279H219.165V27.7503H203.682Z" fill="url(#paint6_linear_198_3745)"/>
<path d="M243.298 27.7504C242.837 26.4696 242.401 25.2391 241.989 24.0588C241.577 22.8785 241.178 21.7234 240.79 20.5933H228.542C228.13 21.7234 227.718 22.8785 227.306 24.0588C226.894 25.2391 226.47 26.4696 226.034 27.7504H223.454C224.423 25.0382 225.331 22.5081 226.179 20.1601C227.027 17.8121 227.857 15.5897 228.669 13.4928C229.481 11.3959 230.286 9.38063 231.086 7.44697C231.886 5.51331 232.734 3.57965 233.63 1.646H235.811C236.707 3.57965 237.555 5.51331 238.355 7.44697C239.154 9.38062 239.96 11.3959 240.772 13.4928C241.583 15.5897 242.413 17.8121 243.261 20.1601C244.109 22.5081 245.03 25.0382 246.024 27.7504H243.298ZM234.648 4.58415C233.727 6.74381 232.837 8.94115 231.976 11.1762C231.116 13.4112 230.226 15.822 229.305 18.4085H240.027C239.106 15.822 238.209 13.4112 237.337 11.1762C236.465 8.94115 235.568 6.74381 234.648 4.58415Z" fill="url(#paint7_linear_198_3745)"/>
<path d="M257.708 26.0553C259.671 26.0553 261.197 25.6849 262.288 24.9441C263.378 24.2033 263.923 23.0041 263.923 21.3467C263.923 20.3925 263.748 19.5951 263.396 18.9548C263.045 18.3144 262.579 17.7745 261.997 17.335C261.415 16.8956 260.749 16.5189 259.998 16.205C259.247 15.8911 258.459 15.5583 257.636 15.2067C256.594 14.7798 255.661 14.3404 254.837 13.8883C254.013 13.4363 253.311 12.9278 252.729 12.3628C252.148 11.7977 251.705 11.1511 251.403 10.4228C251.1 9.69456 250.948 8.84074 250.948 7.86136C250.948 5.62636 251.663 3.93126 253.093 2.77609C254.522 1.62091 256.509 1.04333 259.053 1.04333C259.732 1.04333 260.398 1.09356 261.052 1.19402C261.706 1.29446 262.318 1.4263 262.887 1.58954C263.457 1.75277 263.978 1.93483 264.45 2.13573C264.923 2.33663 265.317 2.55008 265.631 2.7761L264.759 4.92321C264.057 4.42097 263.202 4.01917 262.197 3.71781C261.191 3.41647 260.107 3.2658 258.944 3.2658C258.145 3.2658 257.412 3.34741 256.745 3.51064C256.079 3.67386 255.503 3.93755 255.019 4.30168C254.534 4.66581 254.153 5.12411 253.874 5.67658C253.595 6.22906 253.456 6.89453 253.456 7.67302C253.456 8.47662 253.601 9.15465 253.892 9.70713C254.183 10.2596 254.589 10.7367 255.11 11.1385C255.631 11.5403 256.242 11.9045 256.945 12.2309C257.648 12.5574 258.411 12.8964 259.235 13.248C260.228 13.6749 261.167 14.1018 262.052 14.5287C262.936 14.9556 263.705 15.4579 264.359 16.0354C265.014 16.613 265.535 17.3162 265.922 18.1449C266.31 18.9736 266.504 19.9907 266.504 21.1961C266.504 23.5566 265.71 25.327 264.123 26.5073C262.536 27.6876 260.386 28.2778 257.672 28.2778C256.703 28.2778 255.818 28.215 255.019 28.0894C254.219 27.9639 253.505 27.8069 252.875 27.6186C252.245 27.4302 251.712 27.2356 251.275 27.0347C250.839 26.8338 250.5 26.658 250.258 26.5073L251.057 24.2849C251.3 24.4356 251.627 24.6113 252.039 24.8122C252.451 25.0131 252.935 25.2078 253.492 25.3961C254.05 25.5844 254.68 25.7414 255.382 25.867C256.085 25.9925 256.86 26.0553 257.708 26.0553Z" fill="url(#paint8_linear_198_3745)"/>
<path d="M279.806 27.7504V17.0148C278.086 14.2776 276.505 11.6345 275.063 9.08556C273.621 6.53664 272.283 4.05679 271.047 1.646H273.918C274.936 3.85589 276.056 6.09718 277.28 8.36985C278.504 10.6425 279.782 12.8085 281.114 14.8677C282.398 12.8085 283.658 10.6425 284.894 8.36985C286.13 6.09718 287.269 3.85589 288.31 1.646H291C289.716 4.03167 288.359 6.51153 286.929 9.08556C285.5 11.6596 283.949 14.2776 282.277 16.9395V27.7504H279.806Z" fill="url(#paint9_linear_198_3745)"/>
<path d="M86.9777 35.1719L85.3887 38.2099V40.0509H84.7517V38.2099L83.1557 35.1719H83.8627L85.0667 37.6429L86.2707 35.1719H86.9777ZM90.7716 40.0999C90.319 40.0999 89.906 39.9949 89.5326 39.7849C89.1593 39.5702 88.863 39.2739 88.6436 38.8959C88.429 38.5132 88.3216 38.0839 88.3216 37.6079C88.3216 37.1319 88.429 36.7049 88.6436 36.3269C88.863 35.9442 89.1593 35.6479 89.5326 35.4379C89.906 35.2232 90.319 35.1159 90.7716 35.1159C91.229 35.1159 91.6443 35.2232 92.0176 35.4379C92.391 35.6479 92.685 35.9419 92.8996 36.3199C93.1143 36.6979 93.2216 37.1272 93.2216 37.6079C93.2216 38.0886 93.1143 38.5179 92.8996 38.8959C92.685 39.2739 92.391 39.5702 92.0176 39.7849C91.6443 39.9949 91.229 40.0999 90.7716 40.0999ZM90.7716 39.5469C91.1123 39.5469 91.418 39.4676 91.6886 39.3089C91.964 39.1502 92.1786 38.9239 92.3326 38.6299C92.4913 38.3359 92.5706 37.9952 92.5706 37.6079C92.5706 37.2159 92.4913 36.8752 92.3326 36.5859C92.1786 36.2919 91.9663 36.0656 91.6956 35.9069C91.425 35.7482 91.117 35.6689 90.7716 35.6689C90.4263 35.6689 90.1183 35.7482 89.8476 35.9069C89.577 36.0656 89.3623 36.2919 89.2036 36.5859C89.0496 36.8752 88.9726 37.2159 88.9726 37.6079C88.9726 37.9952 89.0496 38.3359 89.2036 38.6299C89.3623 38.9239 89.577 39.1502 89.8476 39.3089C90.123 39.4676 90.431 39.5469 90.7716 39.5469ZM95.5956 35.1719V38.2589C95.5956 38.6929 95.7006 39.0149 95.9106 39.2249C96.1252 39.4349 96.4216 39.5399 96.7996 39.5399C97.1729 39.5399 97.4646 39.4349 97.6746 39.2249C97.8892 39.0149 97.9966 38.6929 97.9966 38.2589V35.1719H98.6336V38.2519C98.6336 38.6579 98.5519 39.0009 98.3886 39.2809C98.2252 39.5562 98.0036 39.7616 97.7236 39.8969C97.4482 40.0322 97.1379 40.0999 96.7926 40.0999C96.4472 40.0999 96.1346 40.0322 95.8546 39.8969C95.5792 39.7616 95.3599 39.5562 95.1966 39.2809C95.0379 39.0009 94.9586 38.6579 94.9586 38.2519V35.1719H95.5956ZM103.175 40.0509L102.013 38.0559H101.243V40.0509H100.606V35.1719H102.181C102.55 35.1719 102.86 35.2349 103.112 35.3609C103.369 35.4869 103.56 35.6572 103.686 35.8719C103.812 36.0866 103.875 36.3316 103.875 36.6069C103.875 36.9429 103.777 37.2392 103.581 37.4959C103.39 37.7526 103.101 37.9229 102.713 38.0069L103.938 40.0509H103.175ZM101.243 37.5449H102.181C102.527 37.5449 102.786 37.4609 102.958 37.2929C103.131 37.1202 103.217 36.8916 103.217 36.6069C103.217 36.3176 103.131 36.0936 102.958 35.9349C102.79 35.7762 102.531 35.6969 102.181 35.6969H101.243V37.5449ZM111.12 40.0509L109.958 38.0559H109.188V40.0509H108.551V35.1719H110.126C110.495 35.1719 110.805 35.2349 111.057 35.3609C111.314 35.4869 111.505 35.6572 111.631 35.8719C111.757 36.0866 111.82 36.3316 111.82 36.6069C111.82 36.9429 111.722 37.2392 111.526 37.4959C111.335 37.7526 111.046 37.9229 110.658 38.0069L111.883 40.0509H111.12ZM109.188 37.5449H110.126C110.472 37.5449 110.731 37.4609 110.903 37.2929C111.076 37.1202 111.162 36.8916 111.162 36.6069C111.162 36.3176 111.076 36.0936 110.903 35.9349C110.735 35.7762 110.476 35.6969 110.126 35.6969H109.188V37.5449ZM115.932 40.0999C115.479 40.0999 115.066 39.9949 114.693 39.7849C114.32 39.5702 114.023 39.2739 113.804 38.8959C113.589 38.5132 113.482 38.0839 113.482 37.6079C113.482 37.1319 113.589 36.7049 113.804 36.3269C114.023 35.9442 114.32 35.6479 114.693 35.4379C115.066 35.2232 115.479 35.1159 115.932 35.1159C116.389 35.1159 116.805 35.2232 117.178 35.4379C117.551 35.6479 117.845 35.9419 118.06 36.3199C118.275 36.6979 118.382 37.1272 118.382 37.6079C118.382 38.0886 118.275 38.5179 118.06 38.8959C117.845 39.2739 117.551 39.5702 117.178 39.7849C116.805 39.9949 116.389 40.0999 115.932 40.0999ZM115.932 39.5469C116.273 39.5469 116.578 39.4676 116.849 39.3089C117.124 39.1502 117.339 38.9239 117.493 38.6299C117.652 38.3359 117.731 37.9952 117.731 37.6079C117.731 37.2159 117.652 36.8752 117.493 36.5859C117.339 36.2919 117.127 36.0656 116.856 35.9069C116.585 35.7482 116.277 35.6689 115.932 35.6689C115.587 35.6689 115.279 35.7482 115.008 35.9069C114.737 36.0656 114.523 36.2919 114.364 36.5859C114.21 36.8752 114.133 37.2159 114.133 37.6079C114.133 37.9952 114.21 38.3359 114.364 38.6299C114.523 38.9239 114.737 39.1502 115.008 39.3089C115.283 39.4676 115.591 39.5469 115.932 39.5469ZM123.017 38.9659H120.889L120.497 40.0509H119.825L121.589 35.1999H122.324L124.081 40.0509H123.409L123.017 38.9659ZM122.835 38.4479L121.953 35.9839L121.071 38.4479H122.835ZM127.279 35.1719C127.811 35.1719 128.27 35.2722 128.658 35.4729C129.05 35.6689 129.348 35.9512 129.554 36.3199C129.764 36.6886 129.869 37.1226 129.869 37.6219C129.869 38.1212 129.764 38.5552 129.554 38.9239C129.348 39.2879 129.05 39.5679 128.658 39.7639C128.27 39.9552 127.811 40.0509 127.279 40.0509H125.76V35.1719H127.279ZM127.279 39.5259C127.909 39.5259 128.389 39.3602 128.721 39.0289C129.052 38.6929 129.218 38.2239 129.218 37.6219C129.218 37.0152 129.05 36.5416 128.714 36.2009C128.382 35.8602 127.904 35.6899 127.279 35.6899H126.397V39.5259H127.279ZM137.398 35.1719V35.6899H136.068V40.0509H135.431V35.6899H134.094V35.1719H137.398ZM141.304 40.0999C140.852 40.0999 140.439 39.9949 140.065 39.7849C139.692 39.5702 139.396 39.2739 139.176 38.8959C138.962 38.5132 138.854 38.0839 138.854 37.6079C138.854 37.1319 138.962 36.7049 139.176 36.3269C139.396 35.9442 139.692 35.6479 140.065 35.4379C140.439 35.2232 140.852 35.1159 141.304 35.1159C141.762 35.1159 142.177 35.2232 142.55 35.4379C142.924 35.6479 143.218 35.9419 143.432 36.3199C143.647 36.6979 143.754 37.1272 143.754 37.6079C143.754 38.0886 143.647 38.5179 143.432 38.8959C143.218 39.2739 142.924 39.5702 142.55 39.7849C142.177 39.9949 141.762 40.0999 141.304 40.0999ZM141.304 39.5469C141.645 39.5469 141.951 39.4676 142.221 39.3089C142.497 39.1502 142.711 38.9239 142.865 38.6299C143.024 38.3359 143.103 37.9952 143.103 37.6079C143.103 37.2159 143.024 36.8752 142.865 36.5859C142.711 36.2919 142.499 36.0656 142.228 35.9069C141.958 35.7482 141.65 35.6689 141.304 35.6689C140.959 35.6689 140.651 35.7482 140.38 35.9069C140.11 36.0656 139.895 36.2919 139.736 36.5859C139.582 36.8752 139.505 37.2159 139.505 37.6079C139.505 37.9952 139.582 38.3359 139.736 38.6299C139.895 38.9239 140.11 39.1502 140.38 39.3089C140.656 39.4676 140.964 39.5469 141.304 39.5469ZM149.828 40.0999C149.506 40.0999 149.217 40.0439 148.96 39.9319C148.708 39.8152 148.51 39.6566 148.365 39.4559C148.221 39.2506 148.146 39.0149 148.141 38.7489H148.82C148.844 38.9776 148.937 39.1712 149.1 39.3299C149.268 39.4839 149.511 39.5609 149.828 39.5609C150.132 39.5609 150.37 39.4862 150.542 39.3369C150.72 39.1829 150.808 38.9869 150.808 38.7489C150.808 38.5622 150.757 38.4106 150.654 38.2939C150.552 38.1772 150.423 38.0886 150.269 38.0279C150.115 37.9672 149.908 37.9019 149.646 37.8319C149.324 37.7479 149.065 37.6639 148.869 37.5799C148.678 37.4959 148.512 37.3652 148.372 37.1879C148.237 37.0059 148.169 36.7632 148.169 36.4599C148.169 36.1939 148.237 35.9582 148.372 35.7529C148.508 35.5476 148.697 35.3889 148.939 35.2769C149.187 35.1649 149.469 35.1089 149.786 35.1089C150.244 35.1089 150.617 35.2232 150.906 35.4519C151.2 35.6806 151.366 35.9839 151.403 36.3619H150.703C150.68 36.1752 150.582 36.0119 150.409 35.8719C150.237 35.7272 150.008 35.6549 149.723 35.6549C149.457 35.6549 149.24 35.7249 149.072 35.8649C148.904 36.0002 148.82 36.1916 148.82 36.4389C148.82 36.6162 148.869 36.7609 148.967 36.8729C149.07 36.9849 149.194 37.0712 149.338 37.1319C149.488 37.1879 149.695 37.2532 149.961 37.3279C150.283 37.4166 150.542 37.5052 150.738 37.5939C150.934 37.6779 151.102 37.8109 151.242 37.9929C151.382 38.1702 151.452 38.4129 151.452 38.7209C151.452 38.9589 151.389 39.1829 151.263 39.3929C151.137 39.6029 150.951 39.7732 150.703 39.9039C150.456 40.0346 150.164 40.0999 149.828 40.0999ZM153.923 35.1719V38.2589C153.923 38.6929 154.028 39.0149 154.238 39.2249C154.452 39.4349 154.749 39.5399 155.127 39.5399C155.5 39.5399 155.792 39.4349 156.002 39.2249C156.216 39.0149 156.324 38.6929 156.324 38.2589V35.1719H156.961V38.2519C156.961 38.6579 156.879 39.0009 156.716 39.2809C156.552 39.5562 156.331 39.7616 156.051 39.8969C155.775 40.0322 155.465 40.0999 155.12 40.0999C154.774 40.0999 154.462 40.0322 154.182 39.8969C153.906 39.7616 153.687 39.5562 153.524 39.2809C153.365 39.0009 153.286 38.6579 153.286 38.2519V35.1719H153.923ZM158.695 37.6079C158.695 37.1319 158.803 36.7049 159.017 36.3269C159.232 35.9442 159.524 35.6456 159.892 35.4309C160.266 35.2162 160.679 35.1089 161.131 35.1089C161.663 35.1089 162.128 35.2372 162.524 35.4939C162.921 35.7506 163.21 36.1146 163.392 36.5859H162.629C162.494 36.2919 162.298 36.0656 162.041 35.9069C161.789 35.7482 161.486 35.6689 161.131 35.6689C160.791 35.6689 160.485 35.7482 160.214 35.9069C159.944 36.0656 159.731 36.2919 159.577 36.5859C159.423 36.8752 159.346 37.2159 159.346 37.6079C159.346 37.9952 159.423 38.3359 159.577 38.6299C159.731 38.9192 159.944 39.1432 160.214 39.3019C160.485 39.4606 160.791 39.5399 161.131 39.5399C161.486 39.5399 161.789 39.4629 162.041 39.3089C162.298 39.1502 162.494 38.9239 162.629 38.6299H163.392C163.21 39.0966 162.921 39.4582 162.524 39.7149C162.128 39.9669 161.663 40.0929 161.131 40.0929C160.679 40.0929 160.266 39.9879 159.892 39.7779C159.524 39.5632 159.232 39.2669 159.017 38.8889C158.803 38.5109 158.695 38.0839 158.695 37.6079ZM165.013 37.6079C165.013 37.1319 165.12 36.7049 165.335 36.3269C165.549 35.9442 165.841 35.6456 166.21 35.4309C166.583 35.2162 166.996 35.1089 167.449 35.1089C167.981 35.1089 168.445 35.2372 168.842 35.4939C169.238 35.7506 169.528 36.1146 169.71 36.5859H168.947C168.811 36.2919 168.615 36.0656 168.359 35.9069C168.107 35.7482 167.803 35.6689 167.449 35.6689C167.108 35.6689 166.802 35.7482 166.532 35.9069C166.261 36.0656 166.049 36.2919 165.895 36.5859C165.741 36.8752 165.664 37.2159 165.664 37.6079C165.664 37.9952 165.741 38.3359 165.895 38.6299C166.049 38.9192 166.261 39.1432 166.532 39.3019C166.802 39.4606 167.108 39.5399 167.449 39.5399C167.803 39.5399 168.107 39.4629 168.359 39.3089C168.615 39.1502 168.811 38.9239 168.947 38.6299H169.71C169.528 39.0966 169.238 39.4582 168.842 39.7149C168.445 39.9669 167.981 40.0929 167.449 40.0929C166.996 40.0929 166.583 39.9879 166.21 39.7779C165.841 39.5632 165.549 39.2669 165.335 38.8889C165.12 38.5109 165.013 38.0839 165.013 37.6079ZM172.205 35.6899V37.3209H173.983V37.8459H172.205V39.5259H174.193V40.0509H171.568V35.1649H174.193V35.6899H172.205ZM177.614 40.0999C177.292 40.0999 177.002 40.0439 176.746 39.9319C176.494 39.8152 176.295 39.6566 176.151 39.4559C176.006 39.2506 175.931 39.0149 175.927 38.7489H176.606C176.629 38.9776 176.722 39.1712 176.886 39.3299C177.054 39.4839 177.296 39.5609 177.614 39.5609C177.917 39.5609 178.155 39.4862 178.328 39.3369C178.505 39.1829 178.594 38.9869 178.594 38.7489C178.594 38.5622 178.542 38.4106 178.44 38.2939C178.337 38.1772 178.209 38.0886 178.055 38.0279C177.901 37.9672 177.693 37.9019 177.432 37.8319C177.11 37.7479 176.851 37.6639 176.655 37.5799C176.463 37.4959 176.298 37.3652 176.158 37.1879C176.022 37.0059 175.955 36.7632 175.955 36.4599C175.955 36.1939 176.022 35.9582 176.158 35.7529C176.293 35.5476 176.482 35.3889 176.725 35.2769C176.972 35.1649 177.254 35.1089 177.572 35.1089C178.029 35.1089 178.402 35.2232 178.692 35.4519C178.986 35.6806 179.151 35.9839 179.189 36.3619H178.489C178.465 36.1752 178.367 36.0119 178.195 35.8719C178.022 35.7272 177.793 35.6549 177.509 35.6549C177.243 35.6549 177.026 35.7249 176.858 35.8649C176.69 36.0002 176.606 36.1916 176.606 36.4389C176.606 36.6162 176.655 36.7609 176.753 36.8729C176.855 36.9849 176.979 37.0712 177.124 37.1319C177.273 37.1879 177.481 37.2532 177.747 37.3279C178.069 37.4166 178.328 37.5052 178.524 37.5939C178.72 37.6779 178.888 37.8109 179.028 37.9929C179.168 38.1702 179.238 38.4129 179.238 38.7209C179.238 38.9589 179.175 39.1829 179.049 39.3929C178.923 39.6029 178.736 39.7732 178.489 39.9039C178.241 40.0346 177.95 40.0999 177.614 40.0999ZM182.632 40.0999C182.31 40.0999 182.021 40.0439 181.764 39.9319C181.512 39.8152 181.314 39.6566 181.169 39.4559C181.024 39.2506 180.95 39.0149 180.945 38.7489H181.624C181.647 38.9776 181.741 39.1712 181.904 39.3299C182.072 39.4839 182.315 39.5609 182.632 39.5609C182.935 39.5609 183.173 39.4862 183.346 39.3369C183.523 39.1829 183.612 38.9869 183.612 38.7489C183.612 38.5622 183.561 38.4106 183.458 38.2939C183.355 38.1772 183.227 38.0886 183.073 38.0279C182.919 37.9672 182.711 37.9019 182.45 37.8319C182.128 37.7479 181.869 37.6639 181.673 37.5799C181.482 37.4959 181.316 37.3652 181.176 37.1879C181.041 37.0059 180.973 36.7632 180.973 36.4599C180.973 36.1939 181.041 35.9582 181.176 35.7529C181.311 35.5476 181.5 35.3889 181.743 35.2769C181.99 35.1649 182.273 35.1089 182.59 35.1089C183.047 35.1089 183.421 35.2232 183.71 35.4519C184.004 35.6806 184.17 35.9839 184.207 36.3619H183.507C183.484 36.1752 183.386 36.0119 183.213 35.8719C183.04 35.7272 182.812 35.6549 182.527 35.6549C182.261 35.6549 182.044 35.7249 181.876 35.8649C181.708 36.0002 181.624 36.1916 181.624 36.4389C181.624 36.6162 181.673 36.7609 181.771 36.8729C181.874 36.9849 181.997 37.0712 182.142 37.1319C182.291 37.1879 182.499 37.2532 182.765 37.3279C183.087 37.4166 183.346 37.5052 183.542 37.5939C183.738 37.6779 183.906 37.8109 184.046 37.9929C184.186 38.1702 184.256 38.4129 184.256 38.7209C184.256 38.9589 184.193 39.1829 184.067 39.3929C183.941 39.6029 183.754 39.7732 183.507 39.9039C183.26 40.0346 182.968 40.0999 182.632 40.0999ZM190.427 40.0999C190.105 40.0999 189.815 40.0439 189.559 39.9319C189.307 39.8152 189.108 39.6566 188.964 39.4559C188.819 39.2506 188.744 39.0149 188.74 38.7489H189.419C189.442 38.9776 189.535 39.1712 189.699 39.3299C189.867 39.4839 190.109 39.5609 190.427 39.5609C190.73 39.5609 190.968 39.4862 191.141 39.3369C191.318 39.1829 191.407 38.9869 191.407 38.7489C191.407 38.5622 191.355 38.4106 191.253 38.2939C191.15 38.1772 191.022 38.0886 190.868 38.0279C190.714 37.9672 190.506 37.9019 190.245 37.8319C189.923 37.7479 189.664 37.6639 189.468 37.5799C189.276 37.4959 189.111 37.3652 188.971 37.1879C188.835 37.0059 188.768 36.7632 188.768 36.4599C188.768 36.1939 188.835 35.9582 188.971 35.7529C189.106 35.5476 189.295 35.3889 189.538 35.2769C189.785 35.1649 190.067 35.1089 190.385 35.1089C190.842 35.1089 191.215 35.2232 191.505 35.4519C191.799 35.6806 191.964 35.9839 192.002 36.3619H191.302C191.278 36.1752 191.18 36.0119 191.008 35.8719C190.835 35.7272 190.606 35.6549 190.322 35.6549C190.056 35.6549 189.839 35.7249 189.671 35.8649C189.503 36.0002 189.419 36.1916 189.419 36.4389C189.419 36.6162 189.468 36.7609 189.566 36.8729C189.668 36.9849 189.792 37.0712 189.937 37.1319C190.086 37.1879 190.294 37.2532 190.56 37.3279C190.882 37.4166 191.141 37.5052 191.337 37.5939C191.533 37.6779 191.701 37.8109 191.841 37.9929C191.981 38.1702 192.051 38.4129 192.051 38.7209C192.051 38.9589 191.988 39.1829 191.862 39.3929C191.736 39.6029 191.549 39.7732 191.302 39.9039C191.054 40.0346 190.763 40.0999 190.427 40.0999ZM196.901 35.1719V35.6899H195.571V40.0509H194.934V35.6899H193.597V35.1719H196.901ZM201.479 38.9659H199.351L198.959 40.0509H198.287L200.051 35.1999H200.786L202.543 40.0509H201.871L201.479 38.9659ZM201.297 38.4479L200.415 35.9839L199.533 38.4479H201.297ZM206.791 40.0509L205.629 38.0559H204.859V40.0509H204.222V35.1719H205.797C206.166 35.1719 206.476 35.2349 206.728 35.3609C206.985 35.4869 207.176 35.6572 207.302 35.8719C207.428 36.0866 207.491 36.3316 207.491 36.6069C207.491 36.9429 207.393 37.2392 207.197 37.4959C207.006 37.7526 206.716 37.9229 206.329 38.0069L207.554 40.0509H206.791ZM204.859 37.5449H205.797C206.142 37.5449 206.401 37.4609 206.574 37.2929C206.747 37.1202 206.833 36.8916 206.833 36.6069C206.833 36.3176 206.747 36.0936 206.574 35.9349C206.406 35.7762 206.147 35.6969 205.797 35.6969H204.859V37.5449ZM212.394 35.1719V35.6899H211.064V40.0509H210.427V35.6899H209.09V35.1719H212.394ZM215.635 40.0999C215.313 40.0999 215.024 40.0439 214.767 39.9319C214.515 39.8152 214.317 39.6566 214.172 39.4559C214.027 39.2506 213.953 39.0149 213.948 38.7489H214.627C214.65 38.9776 214.744 39.1712 214.907 39.3299C215.075 39.4839 215.318 39.5609 215.635 39.5609C215.938 39.5609 216.176 39.4862 216.349 39.3369C216.526 39.1829 216.615 38.9869 216.615 38.7489C216.615 38.5622 216.564 38.4106 216.461 38.2939C216.358 38.1772 216.23 38.0886 216.076 38.0279C215.922 37.9672 215.714 37.9019 215.453 37.8319C215.131 37.7479 214.872 37.6639 214.676 37.5799C214.485 37.4959 214.319 37.3652 214.179 37.1879C214.044 37.0059 213.976 36.7632 213.976 36.4599C213.976 36.1939 214.044 35.9582 214.179 35.7529C214.314 35.5476 214.503 35.3889 214.746 35.2769C214.993 35.1649 215.276 35.1089 215.593 35.1089C216.05 35.1089 216.424 35.2232 216.713 35.4519C217.007 35.6806 217.173 35.9839 217.21 36.3619H216.51C216.487 36.1752 216.389 36.0119 216.216 35.8719C216.043 35.7272 215.815 35.6549 215.53 35.6549C215.264 35.6549 215.047 35.7249 214.879 35.8649C214.711 36.0002 214.627 36.1916 214.627 36.4389C214.627 36.6162 214.676 36.7609 214.774 36.8729C214.877 36.9849 215 37.0712 215.145 37.1319C215.294 37.1879 215.502 37.2532 215.768 37.3279C216.09 37.4166 216.349 37.5052 216.545 37.5939C216.741 37.6779 216.909 37.8109 217.049 37.9929C217.189 38.1702 217.259 38.4129 217.259 38.7209C217.259 38.9589 217.196 39.1829 217.07 39.3929C216.944 39.6029 216.757 39.7732 216.51 39.9039C216.263 40.0346 215.971 40.0999 215.635 40.0999ZM228.015 35.1719L226.601 40.0509H225.887L224.753 36.1239L223.577 40.0509L222.87 40.0579L221.505 35.1719H222.184L223.248 39.3089L224.424 35.1719H225.138L226.258 39.2949L227.329 35.1719H228.015ZM230.259 35.1719V40.0509H229.622V35.1719H230.259ZM235.257 35.1719V35.6899H233.927V40.0509H233.29V35.6899H231.953V35.1719H235.257ZM240.71 35.1719V40.0509H240.073V37.8389H237.588V40.0509H236.951V35.1719H237.588V37.3139H240.073V35.1719H240.71ZM247.003 35.1719C247.535 35.1719 247.995 35.2722 248.382 35.4729C248.774 35.6689 249.073 35.9512 249.278 36.3199C249.488 36.6886 249.593 37.1226 249.593 37.6219C249.593 38.1212 249.488 38.5552 249.278 38.9239C249.073 39.2879 248.774 39.5679 248.382 39.7639C247.995 39.9552 247.535 40.0509 247.003 40.0509H245.484V35.1719H247.003ZM247.003 39.5259C247.633 39.5259 248.114 39.3602 248.445 39.0289C248.777 38.6929 248.942 38.2239 248.942 37.6219C248.942 37.0152 248.774 36.5416 248.438 36.2009C248.107 35.8602 247.629 35.6899 247.003 35.6899H246.121V39.5259H247.003ZM253.913 40.0509L252.751 38.0559H251.981V40.0509H251.344V35.1719H252.919C253.287 35.1719 253.598 35.2349 253.85 35.3609C254.106 35.4869 254.298 35.6572 254.424 35.8719C254.55 36.0866 254.613 36.3316 254.613 36.6069C254.613 36.9429 254.515 37.2392 254.319 37.4959C254.127 37.7526 253.838 37.9229 253.451 38.0069L254.676 40.0509H253.913ZM251.981 37.5449H252.919C253.264 37.5449 253.523 37.4609 253.696 37.2929C253.868 37.1202 253.955 36.8916 253.955 36.6069C253.955 36.3176 253.868 36.0936 253.696 35.9349C253.528 35.7762 253.269 35.6969 252.919 35.6969H251.981V37.5449ZM257.149 35.1719V40.0509H256.512V35.1719H257.149ZM263.177 35.1719L261.336 40.0509H260.601L258.76 35.1719H259.439L260.972 39.3789L262.505 35.1719H263.177ZM265.422 35.6899V37.3209H267.2V37.8459H265.422V39.5259H267.41V40.0509H264.785V35.1649H267.41V35.6899H265.422ZM269.921 35.6899V37.3209H271.699V37.8459H269.921V39.5259H271.909V40.0509H269.284V35.1649H271.909V35.6899H269.921ZM276.667 38.9659H274.539L274.147 40.0509H273.475L275.239 35.1999H275.974L277.731 40.0509H277.059L276.667 38.9659ZM276.485 38.4479L275.603 35.9839L274.721 38.4479H276.485ZM280.957 40.0999C280.635 40.0999 280.346 40.0439 280.089 39.9319C279.837 39.8152 279.639 39.6566 279.494 39.4559C279.349 39.2506 279.275 39.0149 279.27 38.7489H279.949C279.972 38.9776 280.066 39.1712 280.229 39.3299C280.397 39.4839 280.64 39.5609 280.957 39.5609C281.26 39.5609 281.498 39.4862 281.671 39.3369C281.848 39.1829 281.937 38.9869 281.937 38.7489C281.937 38.5622 281.886 38.4106 281.783 38.2939C281.68 38.1772 281.552 38.0886 281.398 38.0279C281.244 37.9672 281.036 37.9019 280.775 37.8319C280.453 37.7479 280.194 37.6639 279.998 37.5799C279.807 37.4959 279.641 37.3652 279.501 37.1879C279.366 37.0059 279.298 36.7632 279.298 36.4599C279.298 36.1939 279.366 35.9582 279.501 35.7529C279.636 35.5476 279.825 35.3889 280.068 35.2769C280.315 35.1649 280.598 35.1089 280.915 35.1089C281.372 35.1089 281.746 35.2232 282.035 35.4519C282.329 35.6806 282.495 35.9839 282.532 36.3619H281.832C281.809 36.1752 281.711 36.0119 281.538 35.8719C281.365 35.7272 281.137 35.6549 280.852 35.6549C280.586 35.6549 280.369 35.7249 280.201 35.8649C280.033 36.0002 279.949 36.1916 279.949 36.4389C279.949 36.6162 279.998 36.7609 280.096 36.8729C280.199 36.9849 280.322 37.0712 280.467 37.1319C280.616 37.1879 280.824 37.2532 281.09 37.3279C281.412 37.4166 281.671 37.5052 281.867 37.5939C282.063 37.6779 282.231 37.8109 282.371 37.9929C282.511 38.1702 282.581 38.4129 282.581 38.7209C282.581 38.9589 282.518 39.1829 282.392 39.3929C282.266 39.6029 282.079 39.7732 281.832 39.9039C281.585 40.0346 281.293 40.0999 280.957 40.0999ZM287.844 35.1719L286.255 38.2099V40.0509H285.618V38.2099L284.022 35.1719H284.729L285.933 37.6429L287.137 35.1719H287.844Z" fill="black"/>
</g>
<defs>
<linearGradient id="paint0_linear_198_3745" x1="13" y1="20.8659" x2="303.182" y2="20.8659" gradientUnits="userSpaceOnUse">
<stop/>
<stop offset="1" stop-color="#FFDD94"/>
</linearGradient>
<linearGradient id="paint1_linear_198_3745" x1="0.00398172" y1="20.4578" x2="291" y2="20.4578" gradientUnits="userSpaceOnUse">
<stop/>
<stop offset="1" stop-color="#FFDD94"/>
</linearGradient>
<linearGradient id="paint2_linear_198_3745" x1="0.00398488" y1="20.4578" x2="291" y2="20.4578" gradientUnits="userSpaceOnUse">
<stop stop-color="#161616"/>
<stop offset="1" stop-color="#FFDD94"/>
</linearGradient>
<linearGradient id="paint3_linear_198_3745" x1="0.00350021" y1="20.4577" x2="291.001" y2="20.4577" gradientUnits="userSpaceOnUse">
<stop/>
<stop offset="1" stop-color="#FFDD94"/>
</linearGradient>
<linearGradient id="paint4_linear_198_3745" x1="0.00401462" y1="20.4577" x2="291" y2="20.4577" gradientUnits="userSpaceOnUse">
<stop/>
<stop offset="1" stop-color="#FFDD94"/>
</linearGradient>
<linearGradient id="paint5_linear_198_3745" x1="0.00401647" y1="20.4577" x2="291" y2="20.4577" gradientUnits="userSpaceOnUse">
<stop/>
<stop offset="1" stop-color="#FFDD94"/>
</linearGradient>
<linearGradient id="paint6_linear_198_3745" x1="0.00409719" y1="20.4577" x2="291" y2="20.4577" gradientUnits="userSpaceOnUse">
<stop/>
<stop offset="1" stop-color="#FFDD94"/>
</linearGradient>
<linearGradient id="paint7_linear_198_3745" x1="0.00403675" y1="20.4577" x2="291" y2="20.4577" gradientUnits="userSpaceOnUse">
<stop/>
<stop offset="1" stop-color="#FFDD94"/>
</linearGradient>
<linearGradient id="paint8_linear_198_3745" x1="0.00373037" y1="20.4577" x2="291" y2="20.4577" gradientUnits="userSpaceOnUse">
<stop/>
<stop offset="1" stop-color="#FFDD94"/>
</linearGradient>
<linearGradient id="paint9_linear_198_3745" x1="0.00382666" y1="20.4577" x2="291" y2="20.4577" gradientUnits="userSpaceOnUse">
<stop stop-color="#070707"/>
<stop offset="1" stop-color="#FFDD94"/>
</linearGradient>
<clipPath id="clip0_198_3745">
<rect width="290.182" height="42" fill="white"/>
</clipPath>
</defs>
</svg>
