<svg width="375" height="305" viewBox="0 0 375 305" fill="none" xmlns="http://www.w3.org/2000/svg">
<path d="M131.032 115.795V59.4269H180.804C240.617 59.4269 280.784 96.5688 280.784 152.5C280.784 163.861 279.038 174.348 276.418 183.961L344.091 215.423C347.147 207.994 349.766 200.566 351.513 192.264L300.868 170.416L303.051 165.172L356.752 189.205L374.216 197.07L376.835 191.827L353.696 181.34C355.006 172.163 355.879 162.55 355.879 152.5C355.879 62.9226 282.967 0 178.621 0H59.8664V63.7966L9.22125 58.553L131.032 115.795ZM59.8665 137.643L131.032 171.726V151.189L59.8665 117.543V137.643ZM197.831 235.086L181.677 227.658L179.057 232.901L204.38 244.262C198.704 245.136 192.592 245.573 186.479 245.573H131.032V202.314L59.8665 166.92V305H189.972C228.829 305 262.447 295.824 288.643 279.656L197.831 235.086ZM14.8971 138.517L131.032 195.759V177.844L59.8665 144.198L-62.3804 86.0817L-65 91.3253L18.3899 131.089L14.8971 138.517ZM409.144 283.152L341.471 249.506L328.81 243.825L327.937 244.262C328.373 243.825 328.373 243.825 328.373 243.388L262.447 212.801C252.405 225.473 238.871 235.086 221.844 240.33L294.319 276.161C302.614 270.48 310.036 264.363 317.022 257.371L409.144 283.152Z" fill="url(#paint0_linear_198_3773)" fill-opacity="0.06"/>
<defs>
<linearGradient id="paint0_linear_198_3773" x1="-65.0001" y1="152.5" x2="2133.51" y2="152.5" gradientUnits="userSpaceOnUse">
<stop/>
<stop offset="1" stop-color="#FFDD94"/>
</linearGradient>
</defs>
</svg>
