<svg width="28" height="25" viewBox="0 0 28 25" fill="none" xmlns="http://www.w3.org/2000/svg">
<rect y="1" width="28" height="24" rx="5" fill="#96C0FF"/>
<path d="M4.34416 6C4.15454 6.0003 4.00077 6.15109 4 6.33742V16.4785C4.00077 16.6648 4.15454 16.8156 4.34416 16.8161H16.0489C16.4182 18.6287 18.0436 20 19.9864 20C22.2005 20 24 18.2188 24 16.0333C24 14.0083 22.4553 12.3314 20.4674 12.0957V6.33792C20.4666 6.15083 20.3116 5.99974 20.1212 6.0005L4.34416 6ZM4.69033 6.67757H19.7779V8.28348H4.69033V6.67757ZM4.69033 8.96105H19.7779V10.2441H4.69033V8.96105ZM4.69033 10.9216H19.7779V12.0723C17.6601 12.1798 15.9698 13.9164 15.9698 16.0331C15.9698 16.0682 15.9702 16.1036 15.9711 16.1384H4.69034L4.69033 10.9216ZM19.9867 12.7445C21.8259 12.7445 23.3106 14.2115 23.3106 16.0332C23.3106 17.8549 21.8259 19.3244 19.9867 19.3244C18.3001 19.3244 16.9096 18.0884 16.6904 16.4784C16.6904 16.45 16.6869 16.4216 16.6796 16.3939C16.6667 16.2756 16.6601 16.1551 16.6601 16.0333C16.6601 14.2116 18.1476 12.7447 19.9868 12.7447L19.9867 12.7445ZM21.4985 14.5828C21.4066 14.5894 21.3212 14.6318 21.2615 14.7006L19.5254 16.6909L18.6958 15.8434C18.6325 15.7782 18.5454 15.7405 18.4538 15.7385C18.3622 15.7367 18.2736 15.7706 18.2075 15.8331C18.071 15.9624 18.0664 16.1759 18.1974 16.3109L19.2944 17.4311C19.3618 17.4992 19.4552 17.5362 19.552 17.5334C19.6487 17.5305 19.7397 17.4878 19.8028 17.4158L21.7859 15.1403C21.8453 15.0719 21.8747 14.9833 21.8674 14.8936C21.8602 14.804 21.8171 14.7209 21.7475 14.6625C21.6784 14.6047 21.5889 14.576 21.4983 14.5825L21.4985 14.5828Z" fill="#0253B3"/>
</svg>
