<svg width="40" height="41" viewBox="0 0 40 41" fill="none" xmlns="http://www.w3.org/2000/svg">
<rect width="40" height="41" rx="10" fill="#4378DB"/>
<path d="M23.2936 17.2251H25.5132L24.4084 14.2971L23.2936 17.2251Z" fill="white"/>
<path d="M24.4 11C23.2924 11 22.2097 11.3284 21.2888 11.9438C20.3679 12.5591 19.6501 13.4337 19.2263 14.457C18.8024 15.4802 18.6915 16.6062 18.9076 17.6925C19.1237 18.7788 19.657 19.7766 20.4402 20.5598C21.2234 21.343 22.2212 21.8763 23.3075 22.0924C24.3938 22.3085 25.5198 22.1976 26.543 21.7737C27.5663 21.3499 28.4409 20.6321 29.0562 19.7112C29.6716 18.7903 30 17.7076 30 16.6C29.9984 15.1153 29.4079 13.6918 28.358 12.642C27.3082 11.5921 25.8847 11.0016 24.4 11ZM26.752 19.3744C26.7028 19.393 26.6505 19.4017 26.598 19.4C26.5455 19.3984 26.4938 19.3864 26.446 19.3648C26.3981 19.3432 26.3549 19.3123 26.319 19.274C26.283 19.2357 26.255 19.1907 26.2364 19.1416L25.8152 18.0252H22.9888L22.5632 19.142C22.5455 19.1924 22.518 19.2388 22.4821 19.2783C22.4462 19.3179 22.4028 19.3499 22.3544 19.3725C22.306 19.395 22.2535 19.4076 22.2001 19.4095C22.1468 19.4115 22.0936 19.4027 22.0436 19.3837C21.9937 19.3647 21.9481 19.336 21.9094 19.2991C21.8708 19.2622 21.84 19.218 21.8187 19.169C21.7975 19.12 21.7862 19.0672 21.7857 19.0138C21.7852 18.9604 21.7953 18.9074 21.8156 18.858L23.9184 13.338C23.9564 13.2398 24.023 13.1552 24.1096 13.0952C24.1962 13.0352 24.2987 13.0025 24.4041 13.0014C24.5094 13.0003 24.6126 13.0308 24.7005 13.0889C24.7883 13.1471 24.8567 13.2302 24.8968 13.3276L26.9848 18.8596C27.022 18.9587 27.0185 19.0686 26.9748 19.1651C26.9312 19.2616 26.851 19.3369 26.752 19.3744Z" fill="white"/>
<path d="M15.6 19.8C14.4924 19.8 13.4097 20.1285 12.4888 20.7438C11.5679 21.3592 10.8501 22.2338 10.4263 23.257C10.0024 24.2803 9.89153 25.4063 10.1076 26.4926C10.3237 27.5788 10.857 28.5767 11.6402 29.3598C12.4234 30.143 13.4212 30.6764 14.5075 30.8924C15.5938 31.1085 16.7198 30.9976 17.743 30.5738C18.7663 30.1499 19.6409 29.4322 20.2562 28.5112C20.8715 27.5903 21.2 26.5076 21.2 25.4C21.1984 23.9153 20.6079 22.4919 19.558 21.442C18.5082 20.3921 17.0847 19.8016 15.6 19.8ZM17.468 28.6H13.732C13.6599 28.6001 13.5892 28.5806 13.5273 28.5438C13.4654 28.5069 13.4146 28.454 13.3802 28.3907C13.3459 28.3273 13.3293 28.2559 13.3322 28.1839C13.3352 28.1119 13.3575 28.042 13.3968 27.9816L16.6428 23H13.8468C13.7407 23 13.639 22.9579 13.564 22.8829C13.4889 22.8079 13.4468 22.7061 13.4468 22.6C13.4468 22.494 13.4889 22.3922 13.564 22.3172C13.639 22.2422 13.7407 22.2 13.8468 22.2H17.3808C17.4528 22.2 17.5236 22.2195 17.5855 22.2563C17.6474 22.2932 17.6982 22.3461 17.7325 22.4094C17.7669 22.4728 17.7835 22.5442 17.7805 22.6162C17.7776 22.6882 17.7553 22.7581 17.716 22.8184L14.47 27.8H17.47C17.5761 27.8 17.6778 27.8422 17.7528 27.9172C17.8278 27.9922 17.87 28.094 17.87 28.2C17.87 28.3061 17.8278 28.4079 17.7528 28.4829C17.6778 28.5579 17.5761 28.6 17.47 28.6H17.468Z" fill="white"/>
</svg>
