<svg width="25" height="32" viewBox="0 0 25 32" fill="none" xmlns="http://www.w3.org/2000/svg">
<rect width="24.4" height="32" rx="5" fill="#448FFF" fill-opacity="0.56"/>
<path d="M7.57118 13.2003C7.57118 12.8909 7.80137 12.6403 8.08527 12.6403H14.2558C14.5399 12.6403 14.7701 12.8909 14.7701 13.2003C14.7701 13.5095 14.5399 13.7602 14.2558 13.7602H8.08527C7.80137 13.7602 7.57118 13.5095 7.57118 13.2003Z" fill="#0253B3"/>
<path d="M7.57118 15.4399C7.57118 15.1307 7.80137 14.8801 8.08527 14.8801H14.2558C14.5399 14.8801 14.7701 15.1308 14.7701 15.4399C14.7701 15.7493 14.5399 16 14.2558 16H8.08527C7.80137 16 7.57118 15.7493 7.57118 15.4399Z" fill="#0253B3"/>
<path d="M7.57118 17.6801C7.57118 17.3709 7.80137 17.12 8.08527 17.12H12.1991C12.483 17.12 12.7132 17.3709 12.7132 17.6801C12.7132 17.9892 12.483 18.2401 12.1991 18.2401H8.08527C7.80137 18.2401 7.57118 17.9892 7.57118 17.6801Z" fill="#0253B3"/>
<path fill-rule="evenodd" clip-rule="evenodd" d="M17.6159 8.5986V21.04H18.3563C19.1116 21.04 19.6448 21.901 19.2851 22.6656L18.9039 23.4762C18.6354 24.0471 18.0913 24.4 17.504 24.4H6.56759C5.71363 24.4 5 23.6605 5 22.72V8.5986C5 8.03442 5.42664 7.59998 5.92677 7.59998C6.09223 7.59998 6.25544 7.64779 6.39887 7.73928L8.3924 9.01107C8.56543 9.12151 8.78339 9.12151 8.95661 9.01107L10.5061 8.02258C11.0003 7.70721 11.6158 7.70721 12.1099 8.02258L13.6594 9.01107C13.8326 9.12151 14.0506 9.12151 14.2236 9.01107L16.2171 7.73928C16.3606 7.64779 16.5238 7.59998 16.6892 7.59998C17.1894 7.59998 17.616 8.03441 17.616 8.5986H17.6159ZM6.02852 22.72V8.80116L7.87263 9.97753C8.36676 10.2927 8.98228 10.2927 9.47641 9.97753L11.0259 8.98903C11.1991 8.87859 11.4171 8.87859 11.5901 8.98903L13.1396 9.97753C13.6338 10.2927 14.2493 10.2927 14.7434 9.97753L16.5877 8.80116V21.04H8.79914C8.21188 21.04 7.66764 21.3929 7.39922 21.9638L6.78027 23.2801H6.56781C6.25842 23.2801 6.02877 23.0166 6.02877 22.72H6.02852ZM17.504 23.2801H7.93522L8.314 22.4744C8.40232 22.2865 8.58792 22.16 8.79865 22.16H18.356L18.3603 22.1603C18.3623 22.1605 18.3644 22.1609 18.3644 22.1609L18.3663 22.1618L17.9882 22.9656C17.8999 23.1535 17.7145 23.2801 17.5037 23.2801L17.504 23.2801Z" fill="#0253B3"/>
</svg>
