<svg width="40" height="41" viewBox="0 0 40 41" fill="none" xmlns="http://www.w3.org/2000/svg">
<rect width="40" height="41" rx="10" fill="#28A164"/>
<path d="M27.6 21.4C27.4939 21.4 27.3922 21.3579 27.3172 21.2828C27.2421 21.2078 27.2 21.1061 27.2 21C27.2 20.8939 27.2421 20.7922 27.3172 20.7172C27.3922 20.6421 27.4939 20.6 27.6 20.6H30V18.6C30 18.2817 29.8736 17.9765 29.6485 17.7515C29.4235 17.5264 29.1183 17.4 28.8 17.4H17.6C17.4939 17.4 17.3922 17.3579 17.3172 17.2828C17.2421 17.2078 17.2 17.1061 17.2 17V12.2C17.2 11.8817 17.0736 11.5765 16.8485 11.3515C16.6235 11.1264 16.3183 11 16 11H14V13.4C14 13.5061 13.9579 13.6078 13.8828 13.6828C13.8078 13.7579 13.7061 13.8 13.6 13.8C13.4939 13.8 13.3922 13.7579 13.3172 13.6828C13.2421 13.6078 13.2 13.5061 13.2 13.4V11H11.2C10.8817 11 10.5765 11.1264 10.3515 11.3515C10.1264 11.5765 10 11.8817 10 12.2V23.4C10 23.7183 10.1264 24.0235 10.3515 24.2485C10.5765 24.4736 10.8817 24.6 11.2 24.6H16C16.1061 24.6 16.2078 24.6421 16.2828 24.7172C16.3579 24.7922 16.4 24.8939 16.4 25V29.8C16.4 30.1183 16.5264 30.4235 16.7515 30.6485C16.9765 30.8736 17.2817 31 17.6 31H19.6V28.6C19.6 28.4939 19.6421 28.3922 19.7172 28.3172C19.7922 28.2421 19.8939 28.2 20 28.2C20.1061 28.2 20.2078 28.2421 20.2828 28.3172C20.3579 28.3922 20.4 28.4939 20.4 28.6V31H22.4C22.7183 31 23.0235 30.8736 23.2485 30.6485C23.4736 30.4235 23.6 30.1183 23.6 29.8V25C23.6 24.8939 23.6421 24.7922 23.7172 24.7172C23.7922 24.6421 23.8939 24.6 24 24.6H28.8C29.1183 24.6 29.4235 24.4736 29.6485 24.2485C29.8736 24.0235 30 23.7183 30 23.4V21.4H27.6ZM13.6 18.2C13.4939 18.2 13.3922 18.1579 13.3172 18.0828C13.2421 18.0078 13.2 17.9061 13.2 17.8V15.8C13.2 15.6939 13.2421 15.5922 13.3172 15.5172C13.3922 15.4421 13.4939 15.4 13.6 15.4C13.7061 15.4 13.8078 15.4421 13.8828 15.5172C13.9579 15.5922 14 15.6939 14 15.8V17.8C14 17.9061 13.9579 18.0078 13.8828 18.0828C13.8078 18.1579 13.7061 18.2 13.6 18.2ZM16.4 21.4H14.4C14.2939 21.4 14.1922 21.3579 14.1172 21.2828C14.0421 21.2078 14 21.1061 14 21C14 20.8939 14.0421 20.7922 14.1172 20.7172C14.1922 20.6421 14.2939 20.6 14.4 20.6H16.4C16.5061 20.6 16.6078 20.6421 16.6828 20.7172C16.7579 20.7922 16.8 20.8939 16.8 21C16.8 21.1061 16.7579 21.2078 16.6828 21.2828C16.6078 21.3579 16.5061 21.4 16.4 21.4ZM20.4 26.2C20.4 26.3061 20.3579 26.4078 20.2828 26.4828C20.2078 26.5579 20.1061 26.6 20 26.6C19.8939 26.6 19.7922 26.5579 19.7172 26.4828C19.6421 26.4078 19.6 26.3061 19.6 26.2V24.2C19.6 24.0939 19.6421 23.9922 19.7172 23.9172C19.7922 23.8421 19.8939 23.8 20 23.8C20.1061 23.8 20.2078 23.8421 20.2828 23.9172C20.3579 23.9922 20.4 24.0939 20.4 24.2V26.2ZM20.8 21.4H18.8C18.6939 21.4 18.5922 21.3579 18.5172 21.2828C18.4421 21.2078 18.4 21.1061 18.4 21C18.4 20.8939 18.4421 20.7922 18.5172 20.7172C18.5922 20.6421 18.6939 20.6 18.8 20.6H20.8C20.9061 20.6 21.0078 20.6421 21.0828 20.7172C21.1579 20.7922 21.2 20.8939 21.2 21C21.2 21.1061 21.1579 21.2078 21.0828 21.2828C21.0078 21.3579 20.9061 21.4 20.8 21.4ZM25.2 21.4H23.2C23.0939 21.4 22.9922 21.3579 22.9172 21.2828C22.8421 21.2078 22.8 21.1061 22.8 21C22.8 20.8939 22.8421 20.7922 22.9172 20.7172C22.9922 20.6421 23.0939 20.6 23.2 20.6H25.2C25.3061 20.6 25.4078 20.6421 25.4828 20.7172C25.5579 20.7922 25.6 20.8939 25.6 21C25.6 21.1061 25.5579 21.2078 25.4828 21.2828C25.4078 21.3579 25.3061 21.4 25.2 21.4Z" fill="white" fill-opacity="0.97"/>
</svg>
