<svg width="297" height="30" viewBox="0 0 297 30" fill="none" xmlns="http://www.w3.org/2000/svg">
<path d="M142.84 22.14C141.547 22.14 140.353 21.84 139.26 21.24C138.18 20.6267 137.32 19.78 136.68 18.7C136.053 17.6067 135.74 16.38 135.74 15.02C135.74 13.66 136.053 12.44 136.68 11.36C137.32 10.28 138.18 9.44 139.26 8.84C140.353 8.22667 141.547 7.92 142.84 7.92C144.147 7.92 145.34 8.22667 146.42 8.84C147.513 9.44 148.373 10.28 149 11.36C149.627 12.44 149.94 13.66 149.94 15.02C149.94 16.38 149.627 17.6067 149 18.7C148.373 19.78 147.513 20.6267 146.42 21.24C145.34 21.84 144.147 22.14 142.84 22.14ZM142.84 20.16C143.76 20.16 144.58 19.9533 145.3 19.54C146.02 19.1133 146.58 18.5133 146.98 17.74C147.393 16.9533 147.6 16.0467 147.6 15.02C147.6 13.9933 147.393 13.0933 146.98 12.32C146.58 11.5467 146.02 10.9533 145.3 10.54C144.58 10.1267 143.76 9.92 142.84 9.92C141.92 9.92 141.1 10.1267 140.38 10.54C139.66 10.9533 139.093 11.5467 138.68 12.32C138.28 13.0933 138.08 13.9933 138.08 15.02C138.08 16.0467 138.28 16.9533 138.68 17.74C139.093 18.5133 139.66 19.1133 140.38 19.54C141.1 19.9533 141.92 20.16 142.84 20.16ZM159.404 22L156.204 16.44H154.464V22H152.184V8.1H156.984C158.05 8.1 158.95 8.28667 159.684 8.66C160.43 9.03333 160.984 9.53333 161.344 10.16C161.717 10.7867 161.904 11.4867 161.904 12.26C161.904 13.1667 161.637 13.9933 161.104 14.74C160.584 15.4733 159.777 15.9733 158.684 16.24L162.124 22H159.404ZM154.464 14.62H156.984C157.837 14.62 158.477 14.4067 158.904 13.98C159.344 13.5533 159.564 12.98 159.564 12.26C159.564 11.54 159.35 10.98 158.924 10.58C158.497 10.1667 157.85 9.96 156.984 9.96H154.464V14.62Z" fill="black"/>
<line x1="177" y1="14.5" x2="297" y2="14.5" stroke="url(#paint0_linear_96_1528)"/>
<line y1="-0.5" x2="120" y2="-0.5" transform="matrix(-1 0 0 1 120 15)" stroke="url(#paint1_linear_96_1528)"/>
<defs>
<linearGradient id="paint0_linear_96_1528" x1="177" y1="15" x2="298.5" y2="15" gradientUnits="userSpaceOnUse">
<stop stop-color="#F79515"/>
<stop offset="1" stop-color="#FFC52A" stop-opacity="0.31"/>
</linearGradient>
<linearGradient id="paint1_linear_96_1528" x1="0" y1="0" x2="121.5" y2="-6.69509e-08" gradientUnits="userSpaceOnUse">
<stop stop-color="#F79515"/>
<stop offset="1" stop-color="#FFC52A" stop-opacity="0.31"/>
</linearGradient>
</defs>
</svg>
