<svg width="17" height="15" viewBox="0 0 17 15" fill="none" xmlns="http://www.w3.org/2000/svg">
<path d="M15.9829 5.51787L11.1864 4.85154L9.04222 0.696493C8.98365 0.58273 8.88731 0.490636 8.76829 0.434658C8.46981 0.293809 8.1071 0.411183 7.95786 0.696493L5.8137 4.85154L1.01721 5.51787C0.884974 5.53593 0.76407 5.59552 0.671503 5.6858C0.559595 5.79575 0.497928 5.94367 0.500053 6.09705C0.502179 6.25044 0.567922 6.39674 0.682838 6.50381L4.15316 9.73793L3.33328 14.3047C3.31405 14.4109 3.32635 14.5202 3.36878 14.6201C3.41121 14.72 3.48207 14.8065 3.57333 14.8699C3.66459 14.9332 3.77259 14.9709 3.88509 14.9785C3.9976 14.9862 4.1101 14.9636 4.20983 14.9132L8.50004 12.7572L12.7902 14.9132C12.9074 14.9728 13.0434 14.9927 13.1737 14.971C13.5024 14.9168 13.7235 14.6189 13.6668 14.3047L12.8469 9.73793L16.3172 6.50381C16.4117 6.41533 16.474 6.29976 16.4929 6.17336C16.5439 5.85735 16.3135 5.56482 15.9829 5.51787Z" fill="#FFD600"/>
</svg>
