<svg width="40" height="41" viewBox="0 0 40 41" fill="none" xmlns="http://www.w3.org/2000/svg">
<rect width="40" height="41" rx="10" fill="#F35555"/>
<path d="M26.6 11H16.2C15.8817 11 15.5765 11.1264 15.3515 11.3515C15.1264 11.5765 15 11.8817 15 12.2V12.6H24.2C24.7302 12.6006 25.2386 12.8116 25.6135 13.1865C25.9884 13.5614 26.1994 14.0698 26.2 14.6V28.6H26.6C26.9183 28.6 27.2235 28.4736 27.4485 28.2485C27.6736 28.0235 27.8 27.7183 27.8 27.4V12.2C27.8 11.8817 27.6736 11.5765 27.4485 11.3515C27.2235 11.1264 26.9183 11 26.6 11Z" fill="white"/>
<path d="M15.4 26.2H22.2V27.8H15.4V26.2Z" fill="white"/>
<path d="M15.4 21.4H22.2V23H15.4V21.4Z" fill="white"/>
<path d="M18.2 16.6H22.2V18.2H18.2V16.6Z" fill="white"/>
<path d="M24.2 13.4H13.4C13.0817 13.4 12.7765 13.5265 12.5515 13.7515C12.3264 13.9765 12.2 14.2818 12.2 14.6V29.8C12.2 30.1183 12.3264 30.4235 12.5515 30.6486C12.7765 30.8736 13.0817 31 13.4 31H24.2C24.5183 31 24.8235 30.8736 25.0485 30.6486C25.2736 30.4235 25.4 30.1183 25.4 29.8V14.6C25.4 14.2818 25.2736 13.9765 25.0485 13.7515C24.8235 13.5265 24.5183 13.4 24.2 13.4ZM23 28.2C23 28.3061 22.9579 28.4079 22.8828 28.4829C22.8078 28.5579 22.7061 28.6 22.6 28.6H15C14.8939 28.6 14.7922 28.5579 14.7172 28.4829C14.6421 28.4079 14.6 28.3061 14.6 28.2V25.8C14.6 25.6939 14.6421 25.5922 14.7172 25.5172C14.7922 25.4422 14.8939 25.4 15 25.4H22.6C22.7061 25.4 22.8078 25.4422 22.8828 25.5172C22.9579 25.5922 23 25.6939 23 25.8V28.2ZM23 23.4C23 23.5061 22.9579 23.6079 22.8828 23.6829C22.8078 23.7579 22.7061 23.8 22.6 23.8H15C14.8939 23.8 14.7922 23.7579 14.7172 23.6829C14.6421 23.6079 14.6 23.5061 14.6 23.4V21C14.6 20.8939 14.6421 20.7922 14.7172 20.7172C14.7922 20.6422 14.8939 20.6 15 20.6H22.6C22.7061 20.6 22.8078 20.6422 22.8828 20.7172C22.9579 20.7922 23 20.8939 23 21V23.4ZM23 18.6C23 18.7061 22.9579 18.8079 22.8828 18.8829C22.8078 18.9579 22.7061 19 22.6 19H17.8C17.6939 19 17.5922 18.9579 17.5172 18.8829C17.4421 18.8079 17.4 18.7061 17.4 18.6V16.2C17.4 16.0939 17.4421 15.9922 17.5172 15.9172C17.5922 15.8422 17.6939 15.8 17.8 15.8H22.6C22.7061 15.8 22.8078 15.8422 22.8828 15.9172C22.9579 15.9922 23 16.0939 23 16.2V18.6Z" fill="white"/>
</svg>
