<svg width="33" height="31" viewBox="0 0 33 31" fill="none" xmlns="http://www.w3.org/2000/svg">
<g clip-path="url(#clip0_198_2821)">
<path d="M32.5 15.4917C32.5029 17.562 32.0644 19.6112 31.2115 21.5142L31.1585 21.631C29.7157 24.7685 27.2139 27.3529 24.0532 28.9709C20.8925 30.5889 17.2554 31.1471 13.7237 30.5562C13.6276 30.5399 13.5316 30.523 13.4359 30.5055C12.4462 30.3221 11.4771 30.049 10.5417 29.6897C10.3897 29.6313 10.2389 29.5709 10.0891 29.5083C9.98686 29.4657 9.88461 29.4218 9.78331 29.3766C7.01216 28.1489 4.66592 26.1896 3.02115 23.7295C1.37638 21.2695 0.501627 18.4112 0.5 15.4917C0.5 7.04518 7.66355 0.197754 16.5 0.197754C25.3365 0.197754 32.5 7.04518 32.5 15.4917Z" fill="#2A2575" fill-opacity="0.7"/>
<path opacity="0.2" d="M13.7236 30.5562C13.6276 30.5399 13.5316 30.523 13.4358 30.5055C13.3734 28.7721 13.1589 25.2142 12.4276 21.488C12.0276 19.4487 11.4723 17.3582 10.7021 15.4894C10.4383 14.8428 10.1369 14.2108 9.79939 13.5962C9.02117 12.1913 8.07726 11.0085 6.93265 10.2071L7.10117 9.98724C8.05312 10.6542 8.90866 11.5905 9.66779 12.7963C9.89549 13.1573 10.1142 13.5426 10.3239 13.9519C10.5487 14.3899 10.7632 14.8549 10.9672 15.3469C11.0974 15.66 11.2231 15.984 11.3445 16.3188C11.8728 17.7727 12.3218 19.4315 12.6917 21.2953C12.7736 21.707 12.8515 22.1289 12.9255 22.5608C13.4988 25.9079 13.6716 29.0024 13.7236 30.5562Z" fill="#272323"/>
<path opacity="0.2" d="M10.0891 29.5083C9.98686 29.4657 9.88461 29.4218 9.7833 29.3766C9.68437 28.3495 9.5026 27.0753 9.17029 25.8658C9.02474 25.3226 8.8379 24.7902 8.61124 24.273C8.23206 23.4246 7.74118 22.7034 7.10638 22.2586L7.2749 22.0391C7.93952 22.5043 8.45218 23.2396 8.84839 24.0997C9.29478 25.0689 9.59254 26.197 9.79088 27.2748C9.9381 28.0752 10.0309 28.8485 10.0891 29.5083Z" fill="#272323"/>
<path opacity="0.2" d="M5.34078 10.2008C6.12741 10.2008 6.7651 9.59127 6.7651 8.83936C6.7651 8.08745 6.12741 7.47791 5.34078 7.47791C4.55416 7.47791 3.91647 8.08745 3.91647 8.83936C3.91647 9.59127 4.55416 10.2008 5.34078 10.2008Z" fill="#272323"/>
<path opacity="0.2" d="M5.79946 21.9205C6.58609 21.9205 7.22377 21.311 7.22377 20.5591C7.22377 19.8072 6.58609 19.1976 5.79946 19.1976C5.01284 19.1976 4.37515 19.8072 4.37515 20.5591C4.37515 21.311 5.01284 21.9205 5.79946 21.9205Z" fill="#272323"/>
<path opacity="0.2" d="M10.9954 11.1262C10.6933 12.755 11.3601 14.2299 11.3601 14.2299C11.3601 14.2299 12.5165 13.0639 12.8185 11.4351C13.1206 9.80629 12.4538 8.33142 12.4538 8.33142C12.4538 8.33142 11.2974 9.49739 10.9954 11.1262Z" fill="#272323"/>
<path opacity="0.2" d="M6.26176 14.9926C7.88708 15.5607 9.5203 15.1961 9.5203 15.1961C9.5203 15.1961 8.51836 13.9105 6.89304 13.3424C5.26771 12.7743 3.63449 13.1389 3.63449 13.1389C3.63449 13.1389 4.63644 14.4245 6.26176 14.9926Z" fill="#272323"/>
<path opacity="0.2" d="M5.98616 25.3709C7.12538 25.7691 8.27175 25.5093 8.27175 25.5093C8.27175 25.5093 7.57108 24.604 6.43186 24.2058C5.29264 23.8076 4.14627 24.0674 4.14627 24.0674C4.14627 24.0674 4.84694 24.9727 5.98616 25.3709Z" fill="#272323"/>
<path d="M16.4671 18.8784C19.9121 18.8784 22.7048 16.209 22.7048 12.9161C22.7048 9.62312 19.9121 6.95367 16.4671 6.95367C13.0222 6.95367 10.2295 9.62312 10.2295 12.9161C10.2295 16.209 13.0222 18.8784 16.4671 18.8784Z" fill="#EEE8F6"/>
<path d="M14.0306 17.481C14.0306 17.481 14.8103 21.0211 14.8103 21.3938C14.8103 21.7664 18.5139 23.4434 18.5139 23.4434L21.8276 22.8844L22.9972 19.5305C22.9972 19.5305 21.0479 16.7357 21.0479 15.6177L14.0306 17.481Z" fill="#EEE8F6"/>
<path d="M31.2115 21.5142L31.1585 21.631C29.7157 24.7685 27.2139 27.3529 24.0532 28.9709C20.8925 30.5889 17.2554 31.1471 13.7237 30.5562C13.6276 30.5399 13.5316 30.523 13.4359 30.5055C12.4462 30.3221 11.4771 30.049 10.5417 29.6897C10.3897 29.6313 10.2389 29.5708 10.0891 29.5083C9.98687 29.4657 9.88462 29.4218 9.78332 29.3766C8.86511 28.97 7.98938 28.4809 7.16794 27.916L6.42853 25.8658L6.84415 25.5626L7.69906 24.9386L8.61125 24.273L8.84841 24.0997L12.4276 21.488L12.6917 21.2952L14.5521 19.9378L14.5526 19.9373C14.5526 19.9373 16.5644 23.0708 19.4884 22.1391C22.4124 21.2075 22.3485 18.536 22.3485 18.536L31.2115 21.5142Z" fill="#272323"/>
<path d="M11.0579 8.11241C11.0579 8.11241 13.0383 4.01084 16.8341 4.95736C20.6299 5.90388 22.7754 7.32365 22.9404 8.74343C23.1055 10.1632 22.8579 12.2929 22.8579 12.2929C22.8579 12.2929 22.4453 9.37444 19.8048 10.0054C17.1642 10.6365 13.0383 10.1632 13.0383 10.1632L12.3782 15.8423C12.3782 15.8423 11.6355 14.8169 10.8103 15.4479C9.98515 16.0789 8.41731 9.37444 11.0579 8.11241Z" fill="#272323"/>
<path d="M10.5417 29.6897C10.3897 29.6313 10.2389 29.5709 10.0891 29.5083C9.98688 29.4657 9.88463 29.4218 9.78333 29.3766C8.26471 28.7035 6.86568 27.8073 5.63705 26.7205C6.07208 26.154 6.42853 25.8658 6.42853 25.8658H9.35256L9.7909 27.2748L10.5417 29.6897Z" fill="#272323"/>
<path d="M28.65 21.2075L31.1584 21.631C30.4872 23.0927 29.5806 24.445 28.4716 25.6386L28.65 21.2075Z" fill="#272323"/>
</g>
<defs>
<clipPath id="clip0_198_2821">
<rect width="32" height="30.5879" fill="white" transform="translate(0.5 0.197754)"/>
</clipPath>
</defs>
</svg>
