<svg width="34" height="25" viewBox="0 0 34 25" fill="none" xmlns="http://www.w3.org/2000/svg">
<path d="M32.468 7.27304H28.5802L27.4996 4.57162C26.3892 1.79423 23.7391 0 20.7474 0H12.5003C9.50926 0 6.8585 1.79423 5.74741 4.57162L4.66685 7.27304H0.779667C0.272503 7.27304 -0.0995911 7.74968 0.0237908 8.24126L0.413418 9.79977C0.499785 10.1465 0.811487 10.3901 1.16929 10.3901H2.4726C1.60048 11.1518 1.03877 12.259 1.03877 13.5071V16.6241C1.03877 17.6709 1.43879 18.6157 2.07777 19.3469V22.8581C2.07777 24.0056 3.00833 24.9361 4.15579 24.9361H6.2338C7.38125 24.9361 8.31181 24.0056 8.31181 22.8581V20.7801H24.9359V22.8581C24.9359 24.0056 25.8665 24.9361 27.0139 24.9361H29.0919C30.2394 24.9361 31.1699 24.0056 31.1699 22.8581V19.3469C31.8089 18.6164 32.2089 17.6715 32.2089 16.6241V13.5071C32.2089 12.259 31.6472 11.1518 30.7758 10.3901H32.0791C32.4369 10.3901 32.7486 10.1465 32.8349 9.79977L33.2246 8.24126C33.3473 7.74968 32.9752 7.27304 32.468 7.27304ZM9.60602 6.1152C10.0794 4.93203 11.2256 4.15602 12.5003 4.15602H20.7474C22.0221 4.15602 23.1683 4.93203 23.6417 6.1152L24.9359 9.35105H8.31181L9.60602 6.1152ZM6.2338 16.6111C4.98699 16.6111 4.15579 15.7825 4.15579 14.5396C4.15579 13.2967 4.98699 12.4681 6.2338 12.4681C7.4806 12.4681 9.35081 14.3324 9.35081 15.5753C9.35081 16.8182 7.4806 16.6111 6.2338 16.6111ZM27.0139 16.6111C25.7671 16.6111 23.8969 16.8182 23.8969 15.5753C23.8969 14.3324 25.7671 12.4681 27.0139 12.4681C28.2607 12.4681 29.0919 13.2967 29.0919 14.5396C29.0919 15.7825 28.2607 16.6111 27.0139 16.6111Z" fill="#F9D048"/>
</svg>
