<svg width="21" height="26" viewBox="0 0 21 26" fill="none" xmlns="http://www.w3.org/2000/svg">
<path d="M10.5 0.583313C5.17875 0.583313 0.875 4.62623 0.875 9.62498C0.875 15.0112 6.9525 22.4383 9.455 25.2671C10.005 25.8871 11.0088 25.8871 11.5588 25.2671C14.0475 22.4383 20.125 15.0112 20.125 9.62498C20.125 4.62623 15.8212 0.583313 10.5 0.583313ZM10.5 12.8541C8.6025 12.8541 7.0625 11.4075 7.0625 9.62498C7.0625 7.84248 8.6025 6.39581 10.5 6.39581C12.3975 6.39581 13.9375 7.84248 13.9375 9.62498C13.9375 11.4075 12.3975 12.8541 10.5 12.8541Z" fill="#F9D048"/>
</svg>
