<svg width="33" height="23" viewBox="0 0 33 23" fill="none" xmlns="http://www.w3.org/2000/svg">
<path d="M4.92857 9.85714C6.74085 9.85714 8.21429 8.38371 8.21429 6.57143C8.21429 4.75915 6.74085 3.28571 4.92857 3.28571C3.11629 3.28571 1.64286 4.75915 1.64286 6.57143C1.64286 8.38371 3.11629 9.85714 4.92857 9.85714ZM27.9286 9.85714C29.7408 9.85714 31.2143 8.38371 31.2143 6.57143C31.2143 4.75915 29.7408 3.28571 27.9286 3.28571C26.1163 3.28571 24.6429 4.75915 24.6429 6.57143C24.6429 8.38371 26.1163 9.85714 27.9286 9.85714ZM29.5714 11.5H26.2857C25.3821 11.5 24.5658 11.8645 23.9703 12.4549C26.0393 13.5895 27.5076 15.6379 27.8259 18.0714H31.2143C32.123 18.0714 32.8571 17.3373 32.8571 16.4286V14.7857C32.8571 12.9734 31.3837 11.5 29.5714 11.5ZM16.4286 11.5C19.6065 11.5 22.1786 8.9279 22.1786 5.75C22.1786 2.5721 19.6065 0 16.4286 0C13.2507 0 10.6786 2.5721 10.6786 5.75C10.6786 8.9279 13.2507 11.5 16.4286 11.5ZM20.3714 13.1429H19.9453C18.8775 13.6562 17.6915 13.9643 16.4286 13.9643C15.1656 13.9643 13.9848 13.6562 12.9118 13.1429H12.4857C9.22054 13.1429 6.57143 15.792 6.57143 19.0571V20.5357C6.57143 21.8962 7.67522 23 9.03571 23H23.8214C25.1819 23 26.2857 21.8962 26.2857 20.5357V19.0571C26.2857 15.792 23.6366 13.1429 20.3714 13.1429ZM8.88683 12.4549C8.2913 11.8645 7.475 11.5 6.57143 11.5H3.28571C1.47344 11.5 0 12.9734 0 14.7857V16.4286C0 17.3373 0.734152 18.0714 1.64286 18.0714H5.02612C5.34955 15.6379 6.81786 13.5895 8.88683 12.4549Z" fill="#F9D048"/>
</svg>
